<svg width="31" height="37" viewBox="0 0 31 37" fill="none" xmlns="http://www.w3.org/2000/svg"><path d="M19.375 37c1.241 0 2.324-1.079 2.324-2.316v-5.409h1.551c.931 0 1.552-.618 1.552-1.546V12.281H6.198v15.448c0 .928.621 1.547 1.552 1.547h1.552v5.408c0 1.237 1.082 2.316 2.323 2.316 1.241 0 2.323-1.079 2.323-2.316v-5.408h3.104v5.408c0 1.237 1.082 2.316 2.323 2.316zm9.302-9.27c1.24 0 2.323-1.08 2.323-2.317V14.596c0-1.23-1.082-2.315-2.323-2.315-1.242 0-2.324 1.084-2.324 2.315v10.817c0 1.237 1.082 2.316 2.324 2.316zm-26.354 0c1.242 0 2.324-1.08 2.324-2.317V14.596c0-1.23-1.082-2.315-2.324-2.315C1.083 12.28 0 13.365 0 14.596v10.817c0 1.237 1.082 2.316 2.323 2.316zM22.94.233a.744.744 0 0 0-1.082 0l-2.081 2.068-.096.095c-1.234-.616-2.618-.923-4.158-.926h-.046c-1.54.003-2.924.31-4.157.926l-.097-.095L9.143.233a.744.744 0 0 0-1.083 0 .74.74 0 0 0 0 1.078l2.013 2.007a8.379 8.379 0 0 0-1.748 1.564 9.063 9.063 0 0 0-2.113 5.369c0 .021-.003.042-.004.063a9.77 9.77 0 0 0-.01.42h18.604c0-.141-.004-.28-.01-.42l-.004-.063a9.061 9.061 0 0 0-2.113-5.37 8.371 8.371 0 0 0-1.748-1.563L22.94 1.31a.74.74 0 0 0 0-1.078zm-11.318 7.8a1.16 1.16 0 0 1-1.162-1.158c0-.64.52-1.159 1.162-1.159a1.16 1.16 0 0 1 1.162 1.159c0 .64-.52 1.158-1.162 1.158zm7.756 0a1.16 1.16 0 0 1-1.162-1.158c0-.64.52-1.159 1.162-1.159a1.16 1.16 0 0 1 1.162 1.159c0 .64-.52 1.158-1.162 1.158z" fill="#452FB7"/></svg>