<svg width="29" height="35" viewBox="0 0 29 35" fill="none" xmlns="http://www.w3.org/2000/svg"><path d="M1.497 12.866C-1.503 18 .404 25.793 3.72 30.517 5.377 32.88 7.054 35 9.351 35l.13-.003c1.08-.042 1.859-.37 2.613-.686.846-.356 1.721-.724 3.094-.724 1.306 0 2.14.356 2.946.7.794.339 1.613.69 2.822.667 2.587-.047 4.175-2.335 5.576-4.354a19.184 19.184 0 0 0 2.443-4.935l.01-.031a.286.286 0 0 0-.155-.352l-.02-.01c-.456-.183-4.452-1.931-4.494-6.696-.039-3.872 2.998-5.922 3.606-6.293l.029-.018a.287.287 0 0 0 .082-.402c-2.096-3.026-5.308-3.482-6.601-3.536a5.902 5.902 0 0 0-.576-.028c-1.52 0-2.974.566-4.143 1.02-.807.314-1.505.585-1.985.585-.54 0-1.241-.274-2.053-.592-1.086-.425-2.316-.906-3.619-.906h-.091c-3.029.045-5.89 1.754-7.468 4.46z" fill="#587BE1"/><path d="M21.434 0C19.6.074 17.4 1.187 16.085 2.706c-1.117 1.277-2.209 3.406-1.921 5.552a.29.29 0 0 0 .266.248c.123.01.25.015.376.015 1.793 0 3.727-.979 5.049-2.554 1.39-1.664 2.093-3.799 1.88-5.711a.292.292 0 0 0-.3-.256z" fill="#587BE1"/></svg>