<svg width="45" height="45" viewBox="0 0 45 45" fill="none" xmlns="http://www.w3.org/2000/svg"><path d="M17.231 10.536C7.72 10.536 0 18.256 0 27.77 0 37.283 7.72 45 17.231 45c9.512 0 17.231-7.719 17.231-17.232 0-9.513-7.719-17.23-17.23-17.23z" fill="#452FB7"/><path d="M33.035 0c-6.304 0-11.46 4.885-11.918 11.072a17.199 17.199 0 0 1 8.524 4.933c.207-.016.504-.044.91-.082.438-.046.428-.094.593-.14a.971.971 0 0 0 .49-.335c.11-.154.166-.386.166-.693V9.002h-2.252v-.864h.567c.739 0 1.405-.139 1.99-.415.59-.27 1.005-.565 1.262-.881h1.203l-.06 1.561c-.021.6-.033 1.133-.033 1.607v4.629c0 .242.054.455.161.643a.973.973 0 0 0 .458.418c.178.073.47.142.875.202.406.065.358.1.557.105v1.117H30.62a17.162 17.162 0 0 1 3.268 6.76C40.094 23.447 45 18.284 45 11.965 44.998 5.358 39.64 0 33.035 0z" fill="#A732EE"/><path d="M21.614 26.36c.597.4 1.1.933 1.503 1.608.406.674.611 1.51.611 2.507 0 1.755-.678 3.188-2.04 4.3-1.357 1.113-3.094 1.668-5.206 1.668-1.635 0-3-.35-4.09-1.052-1.094-.7-1.64-1.532-1.64-2.487 0-.57.182-1.045.544-1.435.365-.393.847-.59 1.452-.59.63 0 1.147.17 1.55.51.403.34.607.793.607 1.359a4.6 4.6 0 0 1-.206 1.301c-.135.47-.246.833-.332 1.077.19.072.413.126.67.161.254.037.493.055.716.055.454 0 .9-.104 1.34-.306.439-.202.814-.5 1.123-.892.36-.446.63-.977.817-1.586.182-.61.275-1.301.275-2.075 0-1.124-.305-2.046-.909-2.765-.6-.725-1.38-1.087-2.337-1.087-.747 0-1.366.151-1.872.45a5.34 5.34 0 0 0-1.352 1.18l-.924-.31 1.16-8.808h9.903v3.302h-9.038l-.494 3.947c.429-.268.982-.53 1.662-.776.68-.25 1.474-.37 2.39-.37a9.35 9.35 0 0 1 2.098.235c.69.155 1.364.45 2.02.88z" fill="#fff"/></svg>