<svg width="50" height="49" viewBox="0 0 50 49" fill="none" xmlns="http://www.w3.org/2000/svg"><path d="M19.498 43.126c-.843 0-1.526.681-1.526 1.521 0 .84.683 1.522 1.526 1.522h.001c.843 0 1.526-.681 1.526-1.522 0-.84-.684-1.521-1.527-1.521z" fill="#000"/><path d="M24.153 19.877a1.967 1.967 0 0 0-1.06-1.082 1.976 1.976 0 0 0-1.52-.018 1.97 1.97 0 0 0-1.164 1.276 1.53 1.53 0 0 1-2.223.887 1.988 1.988 0 0 0-1.726-.122 1.969 1.969 0 0 0-1.086 1.057 1.96 1.96 0 0 0-.018 1.514c1.345 3.35 5.265 4.174 6.855 4.372 1.01-1.243 3.278-4.556 1.942-7.884z" fill="#FF1850"/><path d="M48.648 8.48L32.697 6.647l11.328 28.21a4.565 4.565 0 0 1-2.548 5.934l-15.392 6.145 17.883 2.054a1.53 1.53 0 0 0 1.123-.32 1.52 1.52 0 0 0 .568-1.017l4.332-37.487a1.522 1.522 0 0 0-1.342-1.686z" fill="#452FB7"/><path d="M41.19 35.988L27.124.956A1.524 1.524 0 0 0 25.14.109L.959 9.762a1.52 1.52 0 0 0-.85 1.978l14.068 35.032a1.524 1.524 0 0 0 1.985.847l3.873-1.547.031-.012 20.275-8.094a1.52 1.52 0 0 0 .85-1.978zm-17.256-5.573a1.529 1.529 0 0 1-1.126.45c-.32-.01-7.854-.288-10.286-6.344a5.022 5.022 0 0 1 2.804-6.528 5.025 5.025 0 0 1 2.86-.264 5.006 5.006 0 0 1 2.253-1.777c2.578-1.03 5.515.224 6.547 2.795 2.432 6.056-2.827 11.441-3.052 11.668z" fill="#A732EE"/></svg>