<svg width="495" height="771" viewBox="0 0 495 771" fill="none" xmlns="http://www.w3.org/2000/svg"><path d="M178.479 1.395c.697-.697 2.091-.697 2.789-1.395h2.788c.698 0 2.092.698 2.789.698l2.092 2.093 155.471 228.16c0 .698.698 1.396.698 1.396v2.093c0 .698-.698 1.395-.698 2.093l-1.394 1.395-146.408 90.706c-.698.698-1.395.698-2.092.698h-2.091c-.698 0-1.395 0-2.092-.698-.697 0-1.394-.697-1.394-.697L2.092 143.036c-.698-.698-1.395-1.395-1.395-2.093C0 140.245 0 139.548 0 138.152c0-.698 0-1.395.697-2.093s.697-1.396 1.395-2.093L178.479 1.396z" fill="#452FB7"/><path d="M39.74 150.014l-4.183-10.467 11.154 6.28-6.971 4.187zm-6.275-20.235l-2.789 2.093 11.852 27.91-.697 1.395v.698l4.88-3.489-.697-.697-2.788 2.093-4.184-8.373 6.972-4.884 9.76 4.186-2.09 1.396.697.698 11.154-8.373-.697-.698-2.091 2.093-29.282-16.048zm25.098 29.305l-2.091 2.093c-.697 1.396-.697 2.094-.697 2.791 0 .698 0 2.094.697 2.791 0 .698.697 2.093 1.394 2.791l.697.698.698.698s.697.697 1.394.697.697 0 1.394.698l-2.091 2.093c-.697.698-.697 1.396-.697 2.791 0 .698 0 2.094.697 2.791 0 .698.697 1.396 1.394 2.791.697.698 1.395 1.396 2.789 2.093.697.698 2.091.698 2.789.698h2.788c.697 0 2.092-.698 2.789-1.395l1.394-1.396c.698-.697.698-.697.698-1.395 0-.698.697-1.396.697-1.396v-1.395c.697 1.395.697 2.093 1.394 3.489 0 .697.697 2.093.697 2.79v2.791l9.064-6.279h-.697c-.698 0-1.395 0-2.092-.698-.697 0-2.092-.698-2.789-.698-1.394-.697-2.091-.697-3.486-1.395h4.183c.698 0 1.395 0 2.092-.698.697 0 1.394-.698 1.394-.698l2.092-2.093c.697-.698.697-1.395.697-2.791v-2.791c0-.698-.697-2.093-1.394-2.791-.697-.697-1.395-1.395-2.789-2.093-.697-.698-2.092-.698-2.789-.698h-3.486c-.697 0-2.091.698-2.788 1.396v-.698s0-.698-.698-.698c0 0 0-.697-.697-.697l-.697-.698c-.697-.698-1.394-1.396-2.789-2.093-.697-.698-2.091-.698-2.788-.698h-3.486c-2.79-1.396-4.183-1.396-4.88-.698zm259.353 76.054l-6.972-4.885 5.578-3.488 1.394 8.373zm-.697-18.142l-4.88 3.489v.698l2.091-1.396 1.394 6.978-6.274 3.488-6.275-3.488 2.092-1.396v-.698l-10.458 6.978v.698l1.394-.698 20.219 11.164 2.788-1.396-3.486-21.63 1.395-2.791zm-24.402-20.234l-8.366 5.582h.697c.697 0 .697 0 1.394.698.698 0 1.395.697 2.092.697.697.698 2.091.698 2.789 1.396h-2.789c-.697 0-1.394 0-1.394.698-.698 0-1.395.697-1.395.697l-2.091 2.093c-.698.698-.698 1.396-1.395 2.094v2.093c0 .698.697 1.395.697 2.093.698.698 1.395 1.396 2.092 1.396.697.697 1.394.697 2.789.697h2.788c.698 0 2.092-.697 2.789-1.395v2.093s0 .698.697.698c.698.698 1.395 1.395 2.092 1.395.697.698 1.394.698 2.091.698h2.789c.697 0 2.092-.698 2.789-1.395l2.091-2.094c.698-.697.698-1.395 1.395-2.093v-2.093c0-.698-.697-1.396-.697-2.093l-.698-.698-1.394-.698s-.697 0-.697-.698h-.697l2.091-2.093c.697-.697.697-1.395 1.395-2.093v-2.093c0-.698-.698-1.396-.698-2.093-.697-.698-1.394-1.396-2.091-1.396-.697-.698-1.394-.698-2.789-.698h-2.789c-.697 0-2.091.698-2.788 1.396-.697 0-.697.698-1.395 1.395l-1.394 1.396c-.697.698-.697.698-.697 1.395 0 .698 0 .698-.697 1.396 0-.698-.698-2.093-.698-2.791v-2.093c2.092-2.094 2.092-2.791 2.092-3.489zm-126.888-32.794c-2.091 1.396-4.183 3.489-5.577 5.582-1.394 2.093-2.092 4.187-2.789 6.978-.697 2.093 0 4.884 0 6.977.697 2.093 2.092 4.186 3.486 6.28l2.092 2.093c.697.698 1.394 1.395 2.091 1.395.697.698 1.395.698 2.092 1.396.697.698 1.394.698 2.789.698h-2.789c-2.092 1.395-4.183 3.488-5.578 5.581-1.394 2.094-2.091 4.187-2.788 6.28-.698 2.093 0 4.186 0 6.28.697 2.093 1.394 4.186 3.486 6.279 1.394 2.094 3.485 3.489 5.577 4.187 2.092.697 4.88 1.395 6.972 2.093 2.789 0 4.88 0 7.669-.698 2.789-.698 4.88-1.395 6.972-3.488 1.394-.698 2.788-2.094 3.486-2.791 1.394-1.396 2.091-2.094 2.788-3.489.698-1.396 1.395-2.791 1.395-4.187.697-1.395.697-2.79.697-4.186.697 2.791 1.394 5.582 2.091 7.675.698 2.093.698 4.187.698 6.28v5.582l22.309-14.653h-1.394c-1.394 0-2.789-.698-4.183-.698l-6.275-2.093c-2.091-.697-4.88-2.093-7.669-4.186 1.395.698 2.789.698 4.183.698h4.881c1.394 0 2.788-.698 4.88-1.396l4.183-2.093c2.092-1.396 4.183-3.489 5.578-5.582 1.394-2.093 2.788-4.186 2.788-6.28.698-2.093.698-4.186 0-6.977-.697-2.093-1.394-4.186-2.788-6.28-1.395-2.093-3.486-3.488-5.578-4.884-2.091-1.395-4.88-2.093-6.972-2.093-2.788 0-4.88 0-7.669.698-2.788.697-4.88 2.093-7.669 3.488l-.697.698-.697.698-.697.698-.697.697v-2.791c0-.697-.698-1.395-.698-2.791 0-.697-.697-1.395-1.394-2.093s-.697-1.395-1.394-2.093c-1.395-2.093-3.486-3.489-5.578-4.884-2.091-1.396-4.88-2.093-7.669-2.093-2.789 0-5.577 0-7.669.697-1.394 0-4.183 1.396-6.275 2.791z" fill="#27273D"/><path d="M.697 137.454c.697-.697.697-1.395 1.395-2.093L178.479 2.791c.697-.698 2.091-1.396 2.789-1.396h2.788c.698 0 2.092.698 2.789.698l2.092 2.093 155.471 228.161c0 .697.698.697.698 1.395v-.698c0-.697 0-1.395-.698-1.395L188.937 2.791 186.845.698c-.697 0-2.091-.698-2.789-.698h-2.788c-.698 0-2.092.698-2.789 1.395L2.092 133.966c-.698.697-1.395 1.395-1.395 2.093C0 136.757 0 137.454 0 138.152v.698c0-.698 0-.698.697-1.396z" fill="#000"/><path d="M210.55 279.095c.697 0 .697.698 1.394 1.395.697.698.697 1.396 1.395 1.396.697.698.697 1.395.697 2.093s.697 1.396.697 2.093c12.549 90.706 52.986 176.528 123.401 237.231.697.698 1.395 1.396 1.395 2.093.697.698.697 1.396.697 2.094v1.395c0 .698-.697.698-1.395 1.396-57.866 30.7-113.64 64.191-167.323 101.171-.698.698-2.092.698-2.789.698-1.395 0-2.092 0-3.486-.698-1.394-.697-2.092-1.395-3.486-2.093-1.394-.697-2.092-2.093-2.789-3.488C78.782 498.882 52.289 347.473 75.993 200.948c0-.697.698-2.093.698-2.791.697-.697.697-1.395 1.394-1.395s1.394-.698 2.092-.698c.697 0 1.394 0 2.091.698 40.437 30.7 82.965 57.912 128.282 82.333z" fill="#904DBF"/><path d="M89.24 241.417c1.394-4.186 2.091-6.279 4.183-10.466.697 4.187 1.394 9.071 1.394 13.257-2.789-.698-3.486-1.395-5.577-2.791zm8.366-16.048c-.697-.698-1.394-.698-2.789-1.395-3.486 9.07-7.669 18.141-11.155 26.514-.697 0-.697-.698-1.394-.698v.698c2.091 1.395 2.789 1.395 4.88 2.791v-.698c-.697-.698-1.394-.698-2.091-1.395 1.394-3.489 2.091-5.582 3.486-9.071 2.788 1.395 3.485 2.093 6.274 3.489.697 3.488 1.395 7.675 1.395 11.163-.698-.697-1.395-.697-2.092-1.395v.698c3.486 2.093 6.972 3.488 10.458 5.582v-.698c-.698 0-.698-.698-1.395-.698-2.091-11.164-4.183-23.025-5.577-34.887zm2.788 42.562c-.697-.698-1.394-.698-2.091-.698-.697 0-1.395 0-2.092.698-.697.698-1.394.698-2.091 2.093-.698.698-.698 2.094-1.395 2.791 0-1.395-.697-2.791-.697-4.186-.697-1.396-.697-2.791-1.394-3.489-.697-.697-1.395-2.093-2.092-2.791l-2.091-2.093c-.697 0-1.395-.698-1.395-.698-.697 0-1.394 0-1.394.698-.697 0-.697.698-1.394 1.396-.698.697-.698 1.395-1.395 2.093 0 .698-.697 2.093-.697 2.791v2.791c0 .697 0 2.093.697 2.791 0 .697.697 2.093.697 2.791.698 1.395 1.395 3.488 2.092 4.884l2.091 4.186c.698 1.396 1.395 2.791 2.79 4.187.696 1.395 1.394 2.791 2.788 4.186 0 0 .697.698.697 1.396 0 .697.697.697.697 1.395 0 .698.698.698.698 1.395v1.396-.698s0-.698.697-1.395c0-.698.697-.698.697-.698l.697-.698 2.092-2.093c.697-.698 1.394-1.395 2.788-2.093l2.092-2.093c.697-.698 1.394-1.396 2.091-2.791 0-.698.698-1.396.698-2.094 0-.697.697-1.395.697-2.093v-5.582c0-1.395-.697-2.093-.697-2.791 0-.697-.698-1.395-1.395-2.093-.697-.698-.697-1.395-1.394-2.093-1.394 0-1.394 0-2.092-.698zm207.064 252.581c-3.486-2.093-6.972-4.884-10.458-6.977 2.092-.698 3.486-1.396 5.578-2.093 1.394 3.488 2.788 4.884 4.88 9.07zm-7.669-19.536c-2.092.697-2.789.697-4.88 1.395 0 0 0 .698.697.698s1.394-.698 2.091-.698c1.395 2.791 2.092 4.884 4.183 7.675-2.091.698-3.486 1.396-6.274 2.093-3.486-2.791-4.881-3.488-8.366-6.279.697 0 1.394-.698 2.091-.698 0 0 0-.698-.697-.698l-10.458 3.489s0 .698.697.698c.698 0 .698 0 1.395-.698 9.063 6.977 18.824 13.257 28.584 19.537.697-.698 1.395-.698 2.789-1.396-4.88-8.373-9.063-16.048-13.247-24.421.698 0 1.395 0 1.395-.697zm-33.465-26.514v2.791c0 .697-.697 2.093-.697 2.79 0 .698-.697 2.094-.697 2.791 0 .698-.698 2.094-.698 2.791v3.489c0 .698 0 1.396.698 2.093 0 .698.697 1.396.697 2.093.697.698.697 1.396 1.394 2.094l2.092 2.093 2.091 2.093c.697.698 1.395.698 2.092.698.697 0 1.394 0 2.091.698h1.395c.697 0 1.394-.698 2.091-1.396.697-.698.697-1.395.697-2.093v-2.791c0-.698-.697-2.093-.697-2.791.697.698 2.092 1.395 2.789 2.093 1.394.698 2.092 1.396 3.486 1.396 1.394 0 2.091.697 2.789.697h2.788c.698 0 .698-.697 1.395-.697 0 0 .697-.698.697-1.396v-1.395c0-.698-.697-1.396-.697-2.093 0-.698-.697-1.396-1.395-2.094-.697-.697-1.394-1.395-1.394-2.093-.697-.698-1.394-1.395-2.092-1.395-.697-.698-1.394-.698-2.091-1.396-1.394-.698-2.789-1.395-3.486-2.093-1.394-.698-2.789-1.396-3.486-1.396-1.394-.697-2.789-.697-3.486-1.395-1.394-.698-2.789-1.395-3.486-1.395 0 0-.697 0-.697-.698-.697 0-.697-.698-1.394-.698l-2.789-1.395c.697 0 .697 0 0 0zM181.267 373.29c-2.091 0-4.183 0-5.577.697-2.092.698-3.486 2.094-4.88 3.489-1.395 1.395-2.092 3.489-2.789 6.28-.697 2.093-.697 4.884-.697 8.373-1.395-3.489-3.486-6.28-5.578-9.071-2.091-2.791-4.183-5.582-6.274-7.675-2.092-2.093-4.881-4.187-6.972-5.582-2.092-1.396-4.881-2.093-6.972-2.791h-4.183c-1.395.698-2.789.698-3.486 2.093-1.394 1.396-2.092 2.791-2.789 4.187-.697 2.093-1.394 4.186-1.394 6.977 0 2.791 0 4.884.697 7.675.697 2.791 1.394 5.582 2.092 7.675.697 2.791 2.091 4.884 3.485 7.675 1.395 2.791 2.789 4.884 4.184 6.978 2.788 3.488 5.577 6.977 9.063 10.466 2.789 2.791 6.275 5.582 9.76 8.373 3.486 2.791 6.275 4.884 9.761 7.675 3.486 2.791 6.972 4.884 9.761 7.675.697.698 1.394 1.395 2.788 2.093l2.789 2.791 2.789 2.791c.697.698 1.394 2.093 1.394 2.791 0-.698-.697-1.396-.697-2.791v-3.489c0-1.395 0-2.093.697-3.488 0-.698.697-2.094.697-2.791 1.395-2.791 2.092-5.582 3.486-7.676 1.395-2.79 2.789-4.884 4.183-6.977 1.395-2.093 2.789-4.884 3.486-6.977.697-2.791 2.092-4.884 2.092-8.373 0-1.396.697-3.489.697-5.582s0-4.186-.697-5.582c-.697-2.093-.697-4.186-1.395-6.28-.697-2.093-1.394-4.186-2.788-6.279-1.395-2.791-2.789-4.884-4.183-6.28-1.395-2.093-2.789-3.489-4.183-4.884-1.395-1.395-2.789-2.093-4.184-2.791-1.394-.698-2.788-.698-4.183-1.395z" fill="#27273D"/><path opacity=".5" d="M166.627 631.452c-1.394-.697-2.092-1.395-3.486-2.093-1.394-.698-2.091-2.093-2.789-3.488-78.781-126.989-105.274-277.7-82.267-424.225 0-.698.697-2.093.697-2.791.697-.698.697-1.395 1.394-1.395h1.395c-.697-.698-1.395-.698-2.092-.698-.697 0-1.394 0-1.394.698-.697 0-.697.697-1.395 1.395-.697.698-.697 1.396-.697 2.791-23.007 146.525 3.486 297.934 82.268 424.225.697 1.395 2.091 2.79 2.789 3.488 1.394.698 2.091 1.396 3.485 2.093.698-.697 1.395 0 2.092 0z" fill="#8162FF"/><path d="M488.028 524.699c.697 0 1.394.697 2.092 1.395.697.698.697 1.396 1.394 1.396v2.093c0 .698-.697 1.395-.697 2.093l-188.24 236.533-2.091 2.093c-.697.698-2.092.698-2.789.698h-2.789c-.697 0-2.091-.698-2.788-1.395L140.831 649.594c-.697 0-1.394-.698-1.394-1.396v-2.093c0-.698 0-1.395.697-2.093s.697-1.396 1.394-2.093l188.937-182.808 1.394-1.395c.697 0 1.394-.698 2.092-.698h2.091c.697 0 1.395 0 2.092.698l149.894 66.983z" fill="#FF1850"/><path d="M346.5 555.399c-.697.698-.697.698-2.092 1.396-.697.697-2.091.697-2.788 1.395-1.395.698-2.092.698-3.486.698-1.395 0-2.092.697-2.789.697-3.486.698-6.972.698-10.458 1.396-3.486 0-6.972.698-10.457.698-3.486 0-6.972.697-10.458 1.395-3.486.698-6.972 1.396-10.458 2.791-2.092.698-3.486 1.396-5.577 2.093-2.092.698-3.486 2.094-5.578 3.489-1.394 1.396-3.486 2.791-4.88 4.186-1.395 1.396-2.789 2.791-3.486 4.885-.697 2.093-1.394 4.186-2.092 5.582v4.884c.698 1.395.698 2.791 2.092 4.186.697 1.396 2.091 2.093 3.486 2.791 2.091 1.396 4.183 2.093 6.274 2.093h9.064c2.789 0 5.577-.697 7.669-1.395 2.789-.698 5.577-1.396 7.669-2.791-3.486 2.791-7.669 5.582-11.155 6.977-3.486 2.093-6.972 3.489-9.761 4.187-2.788 1.395-5.577 2.093-6.971 2.093-1.395.698-2.789.698-2.789.698l22.31 13.954v-2.093c0-1.395 0-3.489.697-6.28.697-2.79 1.394-5.581 2.789-9.07 1.394-3.489 2.788-6.977 5.577-10.466-.697 2.093-1.394 4.884-1.394 6.977s0 4.884.697 6.978c.697 2.093 1.394 4.186 2.789 5.581 1.394 2.094 2.788 3.489 4.88 4.187 1.394.698 2.789 1.395 4.88 2.093 2.092.698 3.486.698 5.578.698 2.091 0 4.183-.698 6.274-1.396 2.092-.697 4.183-2.093 6.275-3.488 2.091-1.396 3.486-2.791 4.88-4.187 1.395-1.395 2.789-3.488 3.486-4.884.697-2.093 1.394-3.489 2.092-5.582.697-2.093.697-3.488.697-5.582 0-3.488 0-6.279-.697-9.07l-2.092-8.373-2.091-8.373-2.092-8.373v-4.884c0-.698 0-2.093.697-2.791 2.092 1.396 2.092.698 2.789 0zm-15.338-76.053l8.366-4.187-3.486 6.978-4.88-2.791zm16.035-6.978l-2.092-.697-21.612 11.163-1.395-.697-.697.697 4.183 2.094.697-.698-2.091-.698 6.972-3.489 5.577 2.791-2.789 5.582-2.091-.697-.697.697 9.063 4.187.697-.698-1.394-.698 7.669-18.839zm-20.218 18.142c-.697.697-1.394.697-1.394.697h-2.092c-1.394 0-2.091 0-3.486.698-1.394 0-2.091 0-3.486.698-1.394.697-2.091 0-3.485.697-1.395 0-2.092.698-3.486.698-.698 0-1.395.698-2.092.698-.697 0-1.394.698-2.091.698-.698.697-1.395.697-1.395 1.395l-1.394 1.396c0 .697-.697 1.395-.697 1.395v1.396c0 .697.697.697.697 1.395 0 0 .697.698 1.394.698s1.395.697 2.092.697h2.788c.698 0 2.092 0 2.789-.697.697 0 1.395-.698 2.789-.698-1.394.698-2.092 1.396-3.486 2.093-1.394.698-2.092.698-3.486 1.396-.697 0-1.394.697-2.091.697h-.698l7.669 3.489v-2.791c0-.698.698-1.395.698-2.791.697-.697.697-2.093 2.091-2.791 0 .698-.697 1.396-.697 2.093v2.094c0 .697.697 1.395.697 1.395l1.394 1.396c.698 0 .698.697 1.395.697h2.091c.698 0 1.395 0 2.092-.697.697 0 1.394-.698 2.091-.698.698-.698 1.395-.698 1.395-1.396l1.394-1.395c0-.698.697-.698.697-1.396 0-.697 0-1.395.698-1.395v-2.791c0-.698 0-1.395-.698-2.791 0-.698-.697-1.395-.697-2.093s-.697-1.396-.697-2.791v-1.395c0 .697.697.697.697 0zm-36.951 244.905l4.881-11.861 6.274 4.884-11.155 6.977zm25.099-12.559l-5.577-4.186-.698.697 2.789 2.094-9.063 5.581-6.972-4.884 4.183-9.768 2.789 2.093.697-.697-11.155-8.373-.697.697 1.394 1.396-11.852 31.398 2.789 2.093 29.979-18.839 1.394.698zm20.915-39.073l-9.063-6.28v3.489c0 1.395-.697 2.791-.697 4.186-.698 1.396-1.395 2.791-2.092 4.884.697-.697.697-2.093.697-2.791 0-.697 0-2.093-.697-2.79 0-.698-.697-2.094-1.394-2.791l-2.092-2.094c-.697-.697-1.394-.697-2.091-.697h-2.092c-.697 0-1.394 0-2.091.697-.698 0-1.395.698-2.789 1.396l-2.092 2.093c-.697.698-1.394 1.395-1.394 2.093-.697.698-.697 1.396-.697 2.093 0 .698-.698 1.396-.698 2.094v4.186c0 1.396 0 2.791.698 4.187 0 1.395.697 2.79.697 4.186 0 1.395.697 2.791.697 4.186v4.187c0 .698 0 .698-.697.698l.697-.698c.697 0 .697-.698 1.394-.698.698 0 .698 0 1.395-.698h1.394c1.395 0 2.789-.697 4.183-.697h4.183c1.395 0 2.789 0 4.183-.698 1.395 0 2.789-.698 4.184-1.396.697 0 1.394-.697 2.788-1.395.697-.698 1.395-.698 2.092-1.396l2.091-2.093c.698-.698.698-1.395 1.395-2.093.697-.698.697-2.093.697-2.791v-2.093c0-.698-.697-1.396-.697-2.093l-1.395-1.396c-.697-.698-1.394-.698-2.788-1.395-.698 0-2.092-.698-2.789-.698-1.394 0-2.092 0-3.486.698-1.394 0-2.092.697-3.486 1.395 1.394-1.395 2.789-2.093 4.183-3.489l4.183-2.093c1.395-.698 2.092-.697 2.789-.697l.697-.698z" fill="#27273D"/><path d="M490.816 527.49c0-.698-.697-1.396-1.394-1.396 0 0-.697 0-.697-.698.697.698.697.698.697 1.396v2.093c0 .698-.697 1.396-.697 2.093l-188.24 236.533-2.091 2.094c-.697.697-2.092.697-2.789.697h-2.789c-.697 0-2.091-.698-2.788-1.395L140.831 650.291l149.894 119.314c.697.697 1.394 1.395 2.789 1.395h2.788c.698 0 2.092-.698 2.789-.698l2.092-2.093 188.239-236.533c.697-.698.697-1.395.697-2.093.698-.698.697-1.396.697-2.093z" fill="#000"/><path d="M492.211 265.838c.698.698 1.395.698 1.395 1.396.697.697.697 1.395.697 2.093 0 .697.697 1.395.697 2.093v1.395l-86.45 235.138c0 .698-.698 1.395-1.395 2.093-.697.698-1.394 1.396-2.091 1.396-.698 0-1.395.697-2.092 0-.697 0-1.394-.698-2.091-.698l-192.423-117.22-2.092-2.093c-.697-.698-.697-1.396-1.394-2.791v-2.791c0-.698.697-2.093 1.394-2.791l144.317-219.09c0-.697.698-.697 1.395-1.395h1.394s1.394 0 2.092.698c.697 0 1.394.697 2.091 1.395l134.556 101.172z" fill="#8162FF"/><path d="M357.656 190.482l6.274-4.186-1.394 7.675-4.88-3.489zm12.549-5.582l-2.092-2.093-17.429 9.769-1.395-1.396v.698l4.881 3.489v-.698l-2.092-1.396 5.578-3.488 6.274 4.186-.697 6.977-2.091-1.395v.698l9.76 6.977v-.698l-1.394-.697.697-20.933zm-13.247 18.839s-.697 0-1.394.698-2.092.698-3.486 1.396c-1.395.697-3.486.697-5.578 1.395-2.091 0-4.183 0-6.274-.698 1.394 2.094 2.091 4.187 2.788 6.28.698 2.093.698 4.186.698 5.582v5.582s.697-.698 1.394-.698c.697-.698 2.092-1.395 3.486-1.395 1.394-.698 3.486-1.396 5.577-1.396h6.275c-1.394-2.093-2.092-4.186-2.789-6.28-.697-2.093-.697-4.186-.697-5.581v-4.187c-.697 0 0-.698 0-.698zM391.12 477.95l1.394-12.559 6.275 4.186-7.669 8.373zm17.429-14.652l-5.577-3.489v.698l2.789 1.395-6.275 6.978-6.972-4.187.697-9.768L396 456.32v-.697l-11.852-7.676v.698l1.394.698-2.091 33.491 2.788 2.094 19.522-21.63 1.394.697 1.394-.697zm3.487-44.655l-1.394 1.395c-.698.698-2.092 2.093-3.486 2.791-1.395 1.395-3.486 2.093-5.578 2.791-2.091.698-4.183 1.395-6.972 1.395 1.395 2.094 2.789 4.885 3.486 7.676.697 2.79 1.395 4.884 1.395 7.675v7.675l1.394-1.396 3.486-3.488c1.394-1.396 3.486-2.094 5.577-2.791 2.092-.698 4.183-1.396 6.972-1.396-1.394-2.093-2.789-4.884-3.486-7.675-.697-2.791-1.394-4.884-1.394-7.675v-6.977zm-16.732-139.548s-1.395 1.396-4.184 2.791c-2.788 2.093-6.274 4.186-11.154 6.28-4.881 2.093-10.458 4.186-16.733 5.582-6.275 1.395-13.944 1.395-20.915.697 4.183 6.978 7.669 14.653 9.063 21.63 2.092 7.675 2.789 14.653 3.486 21.63.697 6.28 0 12.559 0 16.746 0 4.186-.697 6.279-.697 6.279s1.394-1.395 4.88-4.186c2.789-2.093 6.972-5.582 11.852-8.373 4.88-2.791 11.155-5.582 17.43-6.977 6.274-1.396 13.246-2.094 20.218-1.396-4.183-6.977-7.669-13.955-9.761-21.63-2.091-6.977-3.485-13.954-3.485-20.234-.698-5.582-.698-11.164-.698-14.653.698-2.093.698-4.186.698-4.186z" fill="#27273D"/><path d="M403.669 510.744c-.697 0-1.394-.698-2.091-.698L209.852 392.128l-2.091-2.093c-.697-.697-.697-1.395-1.395-2.791v-2.791c0-.697.698-2.093 1.395-2.791l144.317-219.089.697-.698h-.697c-.698 0-.698.698-1.395 1.396L206.366 383.058c-.697.698-.697 2.093-1.394 2.791v2.791c0 .698.697 2.093 1.394 2.791l2.092 2.093 191.725 117.918c.698.697 1.395.697 2.092.697h2.091c.698 0 .698-.697 1.395-.697-.697-.698-1.395-.698-2.092-.698z" fill="#000"/></svg>