<svg width="30" height="29" viewBox="0 0 30 29" fill="none" xmlns="http://www.w3.org/2000/svg"><path d="M7.538 26.835L10.541 0l18.881 2.113-3.002 26.835-18.882-2.113z" fill="#1A0D5F"/><path d="M23.608 22.593l-1.713 1.82 1.268 2.155 1.713-1.82-1.268-2.155zm-1.65-7.733l-.233-.29a13.396 13.396 0 0 1-2.633-5.565 13.397 13.397 0 0 1-3.8 4.844l-.292.233.233.292a13.402 13.402 0 0 1 2.634 5.564 13.392 13.392 0 0 1 3.8-4.844l.291-.233z" fill="#B20D24"/><path d="M.422 1.998h19V29h-19V1.998z" fill="#452FB7"/><path d="M15.422 27l-1.75-1.75a1.061 1.061 0 0 1 1.5-1.5l.25.25.25-.25a1.061 1.061 0 0 1 1.5 1.5L15.422 27zm-9.5-12.684v.054a5.871 5.871 0 0 0 3.246 5.25l.754.38.75-.376a5.884 5.884 0 0 0 3.25-5.258v-.054a1.96 1.96 0 0 0-.578-1.39l-.027-.028a1.972 1.972 0 0 0-2.79 0l-.605.605-.605-.605c-.77-.77-2.02-.77-2.791 0l-.028.028c-.37.37-.577.871-.576 1.394zm-1.5-6.818l-1.75-1.75a1.061 1.061 0 0 1 1.5-1.5l.25.25.25-.25a1.06 1.06 0 0 1 1.5 1.5l-1.75 1.75z" fill="#EE2849"/></svg>