<svg width="31" height="34" viewBox="0 0 31 34" fill="none" xmlns="http://www.w3.org/2000/svg"><path d="M28.977 18.616H16.626V34h12.351V18.616zm-14.603 0H2.022V34h12.352V18.616zM25.13 6.27a4.167 4.167 0 0 0 .524-2.026C25.654 1.904 23.72 0 21.343 0c-1.758 0-3.557.894-4.935 2.454-.341.386-.645.8-.908 1.232a8.653 8.653 0 0 0-.908-1.232C13.214.894 11.415 0 9.657 0c-2.377 0-4.31 1.904-4.31 4.244 0 .734.19 1.424.524 2.027H0v10.128h14.374V6.271h2.252v10.128H31V6.271h-5.87zm-15.473 0C8.522 6.27 7.6 5.363 7.6 4.245c0-1.117.923-2.027 2.058-2.027 2.044 0 3.987 2.058 4.552 4.054H9.657zm11.686 0H16.79c.565-1.994 2.508-4.053 4.552-4.053 1.135 0 2.058.91 2.058 2.027 0 1.118-.923 2.027-2.058 2.027z" fill="#8162FF" fill-opacity=".5"/></svg>