<svg width="35" height="38" viewBox="0 0 35 38" fill="none" xmlns="http://www.w3.org/2000/svg"><path d="M13.498 18.878l-.776 4.19 4.14-2.008a1.46 1.46 0 0 1 1.276 0l4.122 2.005-.756-4.187a1.32 1.32 0 0 1 .425-1.23l3.271-2.953-4.57-.61a1.412 1.412 0 0 1-1.06-.726l-2.056-3.857v-.004l-2.08 3.862a1.412 1.412 0 0 1-1.06.725l-4.561.61 3.264 2.95c.349.314.508.78.42 1.233z" fill="#5D698D"/><path d="M17.5 29.854c7.345 0 13.3-5.772 13.3-12.892 0-7.12-5.955-12.891-13.3-12.891-7.346 0-13.3 5.772-13.3 12.891.008 7.117 5.958 12.884 13.3 12.892zm-9.035-15.56a1.39 1.39 0 0 1 1.152-.94l4.561-.613 2.065-3.86a1.424 1.424 0 0 1 1.257-.739c.528 0 1.012.285 1.256.738l2.056 3.857 4.571.618c.54.07.989.435 1.152.938a1.31 1.31 0 0 1-.383 1.396l-3.271 2.954.779 4.185a1.327 1.327 0 0 1-.541 1.324 1.45 1.45 0 0 1-1.486.126l-4.121-2.006-4.142 2.006a1.45 1.45 0 0 1-1.487-.126 1.326 1.326 0 0 1-.541-1.323l.776-4.192-3.272-2.948a1.311 1.311 0 0 1-.381-1.396z" fill="#5D698D"/><path d="M17.5 33.925c9.665 0 17.5-7.595 17.5-16.963C35 7.594 27.165 0 17.5 0S0 7.594 0 16.962c.01 9.364 7.84 16.952 17.5 16.963zm0-31.211c8.119 0 14.7 6.38 14.7 14.248 0 7.87-6.581 14.249-14.7 14.249S2.8 24.83 2.8 16.962c.01-7.865 6.585-14.24 14.7-14.248z" fill="#5D698D"/><path d="M17.5 35.282C10.21 35.275 3.572 31.21.435 24.832 2.265 32.54 9.342 38 17.5 38c8.159 0 15.236-5.46 17.066-13.167C31.428 31.21 24.79 35.275 17.5 35.282z" fill="#5D698D"/></svg>