<svg width="41" height="42" viewBox="0 0 41 42" fill="none" xmlns="http://www.w3.org/2000/svg"><path d="M9.34 31.843c-1.922-3.845-.8-8.294 2.51-9.948l.997-.498c3.31-1.654 7.542.119 9.463 3.963 1.783 3.568.325 7.91-3.257 9.7-3.582 1.79-7.93.35-9.713-3.217z" fill="#FF1850"/><path d="M24.048 28.838c-1.921-3.844-.799-8.294 2.51-9.947l.998-.499c3.309-1.654 7.541.12 9.462 3.964 1.783 3.567.325 7.91-3.257 9.7-3.582 1.79-7.93.349-9.713-3.218z" fill="#FF1850"/><path d="M30.542 20.625a.554.554 0 0 1-.805-.52c.22-4.835-1.715-7.846-7.549-11.416 1.945 5.867-.75 12.744-4.83 14.782a.557.557 0 0 1-.747-.247.557.557 0 0 1 .25-.746c3.918-1.958 6.436-9.349 3.681-14.862a.56.56 0 0 1 .776-.732c6.257 3.561 9.823 6.874 9.533 13.268a.56.56 0 0 1-.309.473z" fill="#4C312C"/><path d="M20.718 7.204c2.731.461 5.405-1.844 5.876-4.57-2.732-.462-5.405 1.844-5.876 4.57z" fill="#27273D"/><path d="M13.496 6.478c1.599 2.254 5.117 2.504 7.382.902-1.599-2.254-5.117-2.504-7.382-.902z" fill="#27273D"/></svg>