<svg width="42" height="45" viewBox="0 0 42 45" fill="none" xmlns="http://www.w3.org/2000/svg"><path d="M10.5 13.184c2.005 0 3.77-.55 5.229-1.252-1.48 2.798-2.368 6.037-2.544 9.377-5.919.638-10.56 5.626-10.56 11.738C2.625 39.59 7.924 45 14.438 45c2.006 0 3.928-.568 5.652-1.518-2.674-2.633-4.34-6.385-4.34-10.435 0-4.05 1.666-7.714 4.34-10.347a12.054 12.054 0 0 0-4.284-1.423c.57-9.318 7.577-17.005 16.61-18.407-2.3 3.244-3.541 7.116-3.541 11.18v7.265c-5.89.666-10.5 5.64-10.5 11.732C18.375 39.59 23.674 45 30.188 45 36.7 45 42 39.59 42 33.047c0-6.092-4.61-11.066-10.5-11.732V14.05a16.62 16.62 0 0 1 4.865-11.8L38.606 0h-3.169c-6.164 0-11.751 2.525-15.794 6.598-1.06-1.023-4.464-3.961-9.143-3.961-5.537 0-9.326 4.144-9.51 4.32L0 7.91l.99.953c.184.176 3.973 4.32 9.51 4.32zm19.688 15.908c-2.172 0-3.938 1.774-3.938 3.955h-2.625c0-3.634 2.944-6.592 6.563-6.592v2.637zm-15.75 0c-2.172 0-3.938 1.774-3.938 3.955H7.875c0-3.634 2.944-6.592 6.563-6.592v2.637z" fill="#452FB7"/></svg>