<svg width="51" height="64" viewBox="0 0 51 64" fill="none" xmlns="http://www.w3.org/2000/svg"><path d="M22.862 53.073C10.236 53.073 0 48.45 0 43.707v10.921C.007 59.368 10.24 64 22.862 64c12.623 0 22.855-4.633 22.862-9.372v-10.92c0 4.742-10.236 9.365-22.862 9.365z" fill="#08041D"/><path d="M28.138 35.903c-12.626 0-22.862-4.624-22.862-9.366v10.92c.007 4.74 10.24 9.372 22.862 9.372 12.622 0 22.855-4.633 22.862-9.372v-10.92c0 4.742-10.236 9.366-22.862 9.366zM45.724 8.008c0 4.74-10.236 9.163-22.862 9.163C10.236 17.17 0 12.749 0 8.008 0 3.266 10.236 0 22.862 0c12.626 0 22.862 3.266 22.862 8.008z" fill="#08041D"/><path d="M22.862 17.17C10.236 17.17 0 12.548 0 7.806v10.92c.007 4.74 10.24 9.372 22.862 9.372 12.623 0 22.855-4.632 22.862-9.372V7.806c0 4.742-10.236 9.366-22.862 9.366z" fill="#452FB7"/><path d="M40.448 13.61v10.92a18.013 18.013 0 0 0 1.759-1.008V12.603c-.535.35-1.12.686-1.759 1.007zM7.914 14.743v10.923c.563.207 1.15.404 1.758.59V15.333a32.225 32.225 0 0 1-1.758-.59zm23.741 1.65v10.924c.6-.11 1.185-.233 1.759-.362V16.03a38.43 38.43 0 0 1-1.759.363zm-14.948.401V27.72c.578.072 1.163.136 1.758.187V16.98a47.52 47.52 0 0 1-1.758-.186z" fill="#08041D"/><path d="M8.793 31.335v10.919c.535.35 1.12.687 1.759 1.008v-10.92a18.34 18.34 0 0 1-1.759-1.007zm36.931 1.007v10.92a18.036 18.036 0 0 0 1.759-1.008v-10.92c-.535.35-1.12.686-1.759 1.008zm-8.793 2.781V46.05c.6-.111 1.185-.233 1.759-.362V34.763a37.85 37.85 0 0 1-1.759.36zm-14.948.403v10.925c.578.072 1.163.136 1.758.188V35.712a47.305 47.305 0 0 1-1.758-.186zM7.914 50.646v10.922c.563.208 1.15.404 1.758.59V51.236a32.31 32.31 0 0 1-1.758-.59zm28.138.59V62.16c.61-.188 1.196-.384 1.758-.592V50.646c-.562.207-1.149.404-1.758.59zm-19.345 1.461v10.925c.578.072 1.163.136 1.758.188V52.883a47.52 47.52 0 0 1-1.758-.186zm10.552.186v10.926c.595-.051 1.18-.115 1.758-.187V52.697a47.52 47.52 0 0 1-1.758.186z" fill="#443A76"/><path d="M28.138 46.83c-11.618 0-21.206-3.927-22.663-8.247C2.064 39.955 0 41.783 0 43.91c0 4.74 10.236 9.163 22.862 9.163 12.626 0 22.862-4.422 22.862-9.163 0-.209-.026-.413-.066-.616-4.193 2.094-10.484 3.535-17.52 3.535z" fill="#2ACFD9"/><path d="M44.839 21.15c-2.736 3.777-11.536 6.948-21.977 6.948-6.742 0-12.802-1.324-16.986-3.278-.388.608-.6 1.248-.6 1.92 0 4.742 10.236 9.163 22.862 9.163C40.764 35.903 51 31.482 51 26.74c0-2.267-2.342-4.195-6.161-5.59z" fill="#A732EE"/></svg>