<svg width="410" height="250" viewBox="40 100 400 250" fill="none" xmlns="http://www.w3.org/2000/svg"><path d="M203.682 149.666l90.321 71.126-112.212-15.91L94.284 134.5l109.398 15.166z" fill="#FF1850"/><path d="M38.933 264.043l56.188-129.372 86.906 69.911-65.091 134.546-78.003-75.085z" fill="#08041D"/><path d="M182.027 204.581c34.062 5.441 109.816 16.367 111.911 15.674l-65.701 127.273-111.301-8.401 65.091-134.546z" fill="#A732EE"/><path d="M245.902 260.849c-6.935-5.424-2.048-16.281 3.443-23.293 5.491-7.013 14.619-10.158 21.554-4.734 6.935 5.424 2.615 14.755-2.876 21.768-5.491 7.012-15.185 11.683-22.121 6.259zm-46.114 32.872c-6.935-5.424-2.048-16.28 3.443-23.293 5.491-7.012 14.619-10.157 21.554-4.733 6.935 5.424 2.615 14.755-2.876 21.767-5.491 7.013-15.186 11.683-22.121 6.259zm7.827 42.046c-6.935-5.424-2.048-16.28 3.443-23.293 5.491-7.013 14.618-10.158 21.554-4.734 6.935 5.424 2.615 14.755-2.876 21.768-5.492 7.012-15.186 11.683-22.121 6.259zm-30.125-86.672c-6.935-5.424-2.048-16.28 3.443-23.293 5.491-7.013 14.619-10.158 21.554-4.734 6.935 5.424 2.615 14.755-2.876 21.768s-15.185 11.683-22.121 6.259zm-30.125 79.361c-6.935-5.424-2.048-16.281 3.443-23.293 5.491-7.013 14.618-10.158 21.554-4.734 6.935 5.424 2.615 14.755-2.876 21.768-5.492 7.012-15.186 11.683-22.121 6.259z" fill="#08041D"/><path d="M423.555 187.528l13.474 114.211-67.986-90.59-12.014-111.696 66.526 88.075z" fill="#FF1850"/><path d="M226.319 152.047l131.182-51.882 11.921 110.937-141.127 49.252-1.976-108.307z" fill="#08041D"/><path d="M369.422 211.102c20.205 27.932 65.972 89.22 67.94 90.211l-136.413 43.67-72.654-84.629 141.127-49.252z" fill="#A732EE"/><path d="M374.731 296.098c-1.061-8.743 10.068-12.975 18.906-14.059 8.837-1.083 17.507 3.142 18.568 11.886 1.061 8.743-8.589 12.296-17.427 13.379-8.837 1.084-18.986-2.463-20.047-11.206zm-55.814-9.323c-1.061-8.744 10.069-12.976 18.906-14.059 8.838-1.084 17.508 3.142 18.569 11.885s-8.59 12.296-17.427 13.38c-8.838 1.083-18.987-2.463-20.048-11.206zm-24.213 35.302c-1.06-8.744 10.069-12.976 18.907-14.059 8.837-1.084 17.507 3.142 18.568 11.885s-8.589 12.296-17.427 13.38c-8.837 1.083-18.987-2.463-20.048-11.206zm40.03-82.663c-1.061-8.744 10.069-12.976 18.906-14.059 8.838-1.084 17.508 3.142 18.569 11.885s-8.59 12.296-17.427 13.38c-8.838 1.083-18.987-2.463-20.048-11.206z" fill="#08041D"/><path d="M309.094 139.867c-.002-14.178 13.71-19.069 24.274-19.308 10.563-.238 20.172 7.996 20.174 22.174.003 14.178-11.87 18.232-22.434 18.47-10.563.238-22.011-7.158-22.014-21.336zm-40.227 36.506c-.002-14.178 13.71-19.07 24.273-19.308 10.564-.238 20.173 7.996 20.175 22.173.003 14.178-11.871 18.233-22.434 18.471-10.564.238-22.011-7.158-22.014-21.336zm-33.007 42.152c-.002-14.178 13.71-19.069 24.273-19.307 10.564-.239 20.173 7.995 20.175 22.173.003 14.178-11.87 18.232-22.434 18.47-10.563.239-22.011-7.158-22.014-21.336z" fill="#A732EE"/><path d="M257.331 274.309c-1.061-8.743 10.068-12.975 18.906-14.058 8.837-1.084 17.507 3.142 18.568 11.885s-8.589 12.296-17.427 13.379c-8.837 1.084-18.986-2.462-20.047-11.206z" fill="#08041D"/></svg>