<svg width="51" height="49" viewBox="0 0 51 49" fill="none" xmlns="http://www.w3.org/2000/svg"><path d="M30.001 39.626l-11.203 7.362a1.996 1.996 0 0 1-2.761-.585L8.602 35.09a1.996 1.996 0 0 1 .559-2.767l11.203-7.362a1.996 1.996 0 0 1 2.761.585L30.56 36.86a1.996 1.996 0 0 1-.56 2.766z" fill="#FFD146"/><path d="M14.171 36.03a1.663 1.663 0 0 0 .466-2.306 1.663 1.663 0 0 0-2.301-.487 1.663 1.663 0 0 0-.466 2.305c.507.772 1.537.99 2.301.488zm7.608-5a1.663 1.663 0 0 0 .465-2.305 1.663 1.663 0 0 0-2.301-.488 1.663 1.663 0 0 0-.465 2.306c.506.771 1.537.99 2.3.488zm-2.56 12.682a1.663 1.663 0 0 0 .465-2.306 1.663 1.663 0 0 0-2.3-.488 1.663 1.663 0 0 0-.466 2.306c.507.771 1.537.99 2.301.488zm7.607-5a1.663 1.663 0 0 0 .466-2.305 1.663 1.663 0 0 0-2.301-.488 1.663 1.663 0 0 0-.465 2.306c.506.771 1.537.99 2.3.487z" fill="#452FB7"/><path d="M41.483 14.703l-8.136 10.673a1.982 1.982 0 0 1-2.791.358L19.85 17.47a2.01 2.01 0 0 1-.381-2.805l8.136-10.673a1.982 1.982 0 0 1 2.791-.358l10.705 8.263a2.01 2.01 0 0 1 .38 2.805z" fill="#FFD146"/><path d="M24.997 16.9a1.663 1.663 0 0 0 .465-2.306 1.663 1.663 0 0 0-2.3-.487 1.663 1.663 0 0 0-.466 2.305c.507.772 1.537.99 2.301.488zm5.525-7.247a1.663 1.663 0 0 0 .465-2.306 1.663 1.663 0 0 0-2.3-.488 1.663 1.663 0 0 0-.466 2.306c.507.771 1.537.99 2.301.488zm1.745 12.857a1.663 1.663 0 0 0 .465-2.305 1.663 1.663 0 0 0-2.3-.488 1.663 1.663 0 0 0-.466 2.306c.507.771 1.537.99 2.3.488zM20.652 37.604a1.663 1.663 0 0 0 .465-2.306 1.663 1.663 0 0 0-2.301-.488 1.663 1.663 0 0 0-.465 2.306c.507.771 1.537.99 2.3.488zM37.79 15.263a1.663 1.663 0 0 0 .466-2.306 1.663 1.663 0 0 0-2.301-.487 1.663 1.663 0 0 0-.465 2.305c.506.772 1.537.99 2.3.488z" fill="#452FB7"/></svg>