<svg width="9" height="15" viewBox="0 0 9 15" fill="none" xmlns="http://www.w3.org/2000/svg"><mask id="mask0" maskUnits="userSpaceOnUse" x="0" y="0" width="9" height="16"><path fill-rule="evenodd" clip-rule="evenodd" d="M7.158.3L.29 6.825a.929.929 0 0 0 0 1.349L7.158 14.7c.422.4 1.087.4 1.508 0a1.07 1.07 0 0 0 0-1.554L2.913 7.68a.247.247 0 0 1 0-.361l5.753-5.466a1.07 1.07 0 0 0 0-1.554 1.096 1.096 0 0 0-1.508 0z" fill="#fff"/></mask><g mask="url(#mask0)"><path fill-rule="evenodd" clip-rule="evenodd" d="M7.158.3L.29 6.825a.929.929 0 0 0 0 1.349L7.158 14.7c.422.4 1.087.4 1.508 0a1.07 1.07 0 0 0 0-1.554L2.913 7.68a.247.247 0 0 1 0-.361l5.753-5.466a1.07 1.07 0 0 0 0-1.554 1.096 1.096 0 0 0-1.508 0z" fill="#8F8F8F"/></g></svg>