<svg width="41" height="49" viewBox="0 0 41 49" fill="none" xmlns="http://www.w3.org/2000/svg"><path d="M12.045 24.674c6.65 0 12.045-5.523 12.045-12.332C24.09 5.532 18.695 0 12.045 0S0 5.523 0 12.332c0 6.809 5.394 12.341 12.045 12.341zM7.837 17.21c.11-.408.22-.806.34-1.214.139-.47.268-.521.687-.297a6.618 6.618 0 0 0 2.273.695c.509.06 1.017.01 1.486-.205.888-.398 1.027-1.45.28-2.082a3.619 3.619 0 0 0-.848-.51c-.778-.348-1.586-.613-2.323-1.062C8.545 11.81 7.787 10.8 7.877 9.32c.1-1.674 1.027-2.725 2.523-3.277.618-.234.618-.224.628-.888v-.674c.01-.5.1-.581.578-.602h.449c1.037 0 1.037 0 1.037 1.062 0 .745 0 .755.728.868a6.36 6.36 0 0 1 1.605.49c.289.132.389.336.309.643-.13.459-.25.918-.399 1.368-.14.428-.27.49-.668.296a5.025 5.025 0 0 0-2.553-.521c-.239.01-.458.04-.678.143-.767.347-.897 1.215-.239 1.756.33.275.708.47 1.107.633.678.285 1.366.571 2.024.939 2.064 1.174 2.622 3.828 1.167 5.635a3.868 3.868 0 0 1-2.014 1.317c-.35.102-.509.286-.489.653.02.367 0 .725 0 1.092 0 .327-.16.5-.479.51-.379.011-.767.011-1.146 0-.34-.01-.499-.203-.499-.54 0-.266 0-.531-.01-.796-.01-.582-.02-.613-.578-.705-.708-.112-1.396-.276-2.044-.602-.489-.235-.539-.368-.399-.909z" fill="#452FB7"/><path d="M39.066 25.705H37.66c-.927-2.91-2.742-5.492-5.165-7.493 0-.092-.02-.194-.04-.286-.508-1.827.12-3.491.848-4.686.508-.837-.15-1.909-1.107-1.786-2.144.275-3.62 1.082-4.637 1.99a4.633 4.633 0 0 0-1.416 2.39c-1.535 6.512-7.268 11.361-14.098 11.361a14.2 14.2 0 0 1-8.814-3.063 14.725 14.725 0 0 0-.908 9.474s0 .02.01.05c.27 1.134.678 2.226 1.197 3.257.688 1.521 1.685 3.298 3.06 4.737 1.985 2.093 2.324 4.686 2.374 5.809v.55c.04.552.488.991 1.037.991h6.301c.569 0 1.037-.47 1.037-1.062v-1.592a21.18 21.18 0 0 0 2.802.194c.748 0 1.476-.041 2.204-.123v1.521c0 .582.458 1.062 1.037 1.062h6.321a1.05 1.05 0 0 0 1.037-1.062v-1.592c.01-.531.19-2.644 2.144-4.451l.21-.184c.02-.02.039-.03.059-.05 2.174-1.981 3.779-4.452 4.607-7.208h1.326c1.056 0 1.914-.878 1.914-1.96v-4.828c-.02-1.082-.877-1.96-1.934-1.96zm-7.887.347c-.868 0-1.566-.715-1.566-1.603s.698-1.603 1.566-1.603c.867 0 1.565.715 1.565 1.603s-.698 1.603-1.565 1.603z" fill="#A732EE"/></svg>