<svg width="29" height="28" viewBox="0 0 29 28" fill="none" xmlns="http://www.w3.org/2000/svg"><path d="M14.72 28c7.732 0 14-6.268 14-14s-6.268-14-14-14-14 6.268-14 14 6.268 14 14 14z" fill="#587BE1"/><path d="M14.72 7c1.232 0 2.409.235 3.5.644V.441A14.021 14.021 0 0 0 14.72 0c-1.209 0-2.382.153-3.5.441v7.204A9.934 9.934 0 0 1 14.72 7zm0 14a9.934 9.934 0 0 1-3.5-.645v7.204c1.118.288 2.291.441 3.5.441 1.208 0 2.381-.153 3.5-.441v-7.204a9.934 9.934 0 0 1-3.5.645zm7-7a9.934 9.934 0 0 1-.645 3.5h7.204c.288-1.119.44-2.291.44-3.5s-.152-2.382-.44-3.5h-7.204a9.934 9.934 0 0 1 .645 3.5zm-14 0c0-1.232.235-2.409.644-3.5H1.161A14.021 14.021 0 0 0 .72 14c0 1.209.153 2.381.44 3.5h7.204A9.934 9.934 0 0 1 7.72 14z" fill="#139AD6"/><path d="M14.72 24.5c-5.79 0-10.5-4.71-10.5-10.5S8.93 3.5 14.72 3.5s10.5 4.71 10.5 10.5-4.71 10.5-10.5 10.5z" fill="#139AD6"/></svg>