<svg width="70" height="82" viewBox="10 0 70 82" fill="none" xmlns="http://www.w3.org/2000/svg"><path d="M48.84 0l5.3 16.265h17.15L57.416 26.318l5.3 16.265L48.84 32.531 34.965 42.583l5.3-16.265-13.876-10.053H43.54L48.84 0z" fill="#8162FF"/><path d="M16.567 17.58l15.339 7.65 12.037-12.183-2.557 16.912 15.34 7.65-16.92 2.802-2.556 16.91-7.9-15.179-16.92 2.802L24.468 32.76l-7.9-15.18z" fill="#2ACFD9"/><path d="M41.8 32.191l15.34 7.65 12.037-12.183L66.62 44.57l15.34 7.65-16.92 2.802-2.556 16.912-7.9-15.18-16.92 2.801 12.037-12.183-7.9-15.18z" fill="#08041D"/></svg>