<svg width="59" height="59" viewBox="0 0 59 59" fill="none" xmlns="http://www.w3.org/2000/svg"><path d="M39.871 20.857c-10.484 0-19.014 8.53-19.014 19.014S29.387 59 39.871 59 59 50.355 59 39.871c0-10.484-8.645-19.014-19.129-19.014zm5.186 12.1a1.728 1.728 0 1 1 3.457 0v3.457a1.728 1.728 0 1 1-3.457 0v-3.457zm-13.829 0a1.728 1.728 0 1 1 3.457 0v3.457a1.728 1.728 0 1 1-3.457 0v-3.457zm17.198 12.012a12.015 12.015 0 0 1-8.555 3.545c-3.233 0-6.27-1.26-8.555-3.545a1.728 1.728 0 1 1 2.445-2.444c3.264 3.264 8.956 3.264 12.22 0a1.728 1.728 0 1 1 2.445 2.444z" fill="#A732EE"/><path d="M25.194 22.999c3.517-3.063 7.942-5.111 12.866-5.507C37.225 7.772 29.06 0 19.129 0 8.645 0 0 8.645 0 19.129c0 9.932 7.773 18.096 17.492 18.93.382-4.751 2.31-9.033 5.192-12.491-3.181-1.376-7.143-.826-9.666 1.697a1.728 1.728 0 1 1-2.444-2.444c3.825-3.828 10.018-4.405 14.62-1.822zm-.88-10.784a1.728 1.728 0 1 1 3.457 0v3.457a1.728 1.728 0 1 1-3.457 0v-3.457zm-13.828 0a1.728 1.728 0 1 1 3.457 0v3.457a1.728 1.728 0 1 1-3.457 0v-3.457z" fill="#08041D"/></svg>