<svg width="31" height="30" viewBox="0 0 31 30" fill="none" xmlns="http://www.w3.org/2000/svg"><path d="M15.422 0c-8.27 0-15 6.73-15 15s6.73 15 15 15c8.272 0 15-6.73 15-15s-6.728-15-15-15z" fill="#8162FF"/><path d="M25.128 16.07c.002.006.03.588-.23 1.284l1.88.998c.912-1.252.463-2.557.454-2.585l-2.104.302zm-13.577 7.621l-.069-.04-1.405 1.802.054.056a3.069 3.069 0 0 0 2.543.924l.078-.009.07-2.203v-.085l-.085-.008c-.004-.002-.565-.073-1.186-.437zm1.025 2.57a2.888 2.888 0 0 1-2.258-.823l1.21-1.552c.492.274.926.375 1.11.408l-.062 1.967zM7.514 9.465L6.09 7.885a2.967 2.967 0 0 0-1.31 2.275l2.08.436a3.49 3.49 0 0 1 .655-1.13zm14.71-1.39l.051.062 1.937-1.212-.032-.072c-.616-1.39-1.925-1.706-2.074-1.738l-.076-.017-.82 2.045-.055.093.103.024c.005.002.508.262.966.815zm-.083-2.765a2.902 2.902 0 0 1 1.84 1.545L22.313 7.9a3.72 3.72 0 0 0-.903-.762l.732-1.827zm-.988 17.515l.798 1.971c1.503-.372 1.998-1.662 2.01-1.688l-1.807-1.121a3.49 3.49 0 0 1-1.001.838zm-13.585-2.57l-.085-.059c-.003-.004-.384-.41-.629-1.097l-.026-.075-2.235.477.006.079c.103 1.516 1.225 2.26 1.355 2.342l.065.042 1.47-1.642.08-.067zm-1.58 1.472a2.902 2.902 0 0 1-1.202-2.081l1.925-.411c.195.513.462.877.588 1.026l-1.312 1.466zm6.918-16.121L12.83 3.48c-1.54-.165-2.446.877-2.466.899l1.314 1.67c.005-.004.494-.32 1.228-.444zm13.974 6.047l-.047-.062-1.942 1.04-.095.036.056.084c.002.005.22.52.215 1.246v.08l2.263.316.022-.075a3.08 3.08 0 0 0-.472-2.665zm.318 2.539l-1.95-.273a3.69 3.69 0 0 0-.2-1.165l1.733-.929a2.89 2.89 0 0 1 .417 2.367zM14.766 24.607l-.656 2.023c1.39.681 2.599.011 2.625-.002l-.663-2.02a3.492 3.492 0 0 1-1.306-.001zM3.726 14.219l2.181-.313h.104l-.027-.099c0-.006-.03-.564.224-1.246l.028-.074-2.018-1.072-.047.065c-.893 1.225-.514 2.518-.468 2.664l.023.075zm.546-2.568l1.739.922a3.739 3.739 0 0 0-.209 1.164l-1.947.28a2.907 2.907 0 0 1 .417-2.366zm14.086-8.109l-.068 2.125c.007 0 .585.072 1.227.45l1.308-1.678c-1.073-1.116-2.438-.9-2.467-.897zm5.725 15.623l-.008.102a3.382 3.382 0 0 1-.636 1.095l-.052.06 1.53 1.697.066-.044c1.258-.846 1.345-2.19 1.351-2.343l.005-.078-2.158-.453-.098-.036zm2.065.634c-.027.304-.192 1.362-1.201 2.08l-1.319-1.462c.346-.425.528-.838.595-1.022l1.925.404zM8.729 21.866l-1.803 1.129c.627 1.415 1.983 1.68 2.011 1.686l.79-1.974a3.472 3.472 0 0 1-.998-.84zM9.05 5c-1.47.365-2.014 1.6-2.071 1.74l-.032.073 1.874 1.162.08.07.043-.096c.003-.004.347-.455.97-.81l.07-.038-.858-2.119L9.05 5zm-.202 2.78L7.177 6.74c.13-.277.646-1.215 1.84-1.545l.74 1.826a3.689 3.689 0 0 0-.91.757zm15.405 2.975l2.08-.444c-.105-1.544-1.289-2.255-1.313-2.272l-1.418 1.585c.006.003.402.43.651 1.131zm-4.89 12.93l-.072.075a3.453 3.453 0 0 1-1.19.43l-.078.012.082 2.284.078.008a3.055 3.055 0 0 0 2.54-.926l.056-.057-1.363-1.733-.053-.093zm-.844 2.646c-.079 0-.16-.003-.239-.009l-.07-1.968c.54-.103.943-.302 1.112-.4l1.216 1.546c-.201.2-.92.831-2.02.831zM5.864 15.887l-2.106-.295c-.429 1.488.44 2.561.457 2.585l1.875-1.004a3.45 3.45 0 0 1-.226-1.286zm9.018-10.478l.093-.046c.002 0 .236-.055.607-.055.222 0 .443.02.658.06l.078.014.705-2.174-.07-.035a3.034 3.034 0 0 0-1.342-.315c-.727 0-1.262.264-1.364.317l-.07.035.687 2.095.018.104zm.728-2.369c.411 0 .811.089 1.19.262l-.605 1.874a3.813 3.813 0 0 0-.613-.05c-.247 0-.454.025-.57.046l-.614-1.87a2.933 2.933 0 0 1 1.212-.262zm.65 16.646l-.193-2.098a2.687 2.687 0 0 0 1.868-2.319l2.146-.205c.253.62.888 1.029 1.588.961a1.572 1.572 0 0 0 1.41-1.71 1.558 1.558 0 0 0-3.058-.263l-2.182.209a2.666 2.666 0 0 0-2.254-1.9l-.188-2.029c.567-.28.933-.887.872-1.556a1.559 1.559 0 0 0-1.698-1.412 1.572 1.572 0 0 0-1.41 1.71 1.56 1.56 0 0 0 1.235 1.388l.183 1.98a2.688 2.688 0 0 0-1.958 2.319l-1.912.182a1.552 1.552 0 0 0-1.546-.87 1.57 1.57 0 0 0-1.41 1.71c.08.862.84 1.494 1.698 1.412a1.57 1.57 0 0 0 1.384-1.246l1.875-.18a2.662 2.662 0 0 0 2.354 1.931l.19 2.048a1.573 1.573 0 0 0-.961 1.598c.08.863.84 1.494 1.698 1.412a1.57 1.57 0 0 0 .27-3.072z" fill="#27273D"/></svg>