<svg width="31" height="26" viewBox="0 0 31 26" fill="none" xmlns="http://www.w3.org/2000/svg"><path d="M30.422 20.82h-30V26h30v-5.18z" fill="#452FB7"/><path d="M22.724 14.661H16.45v2.876h-1.758v-2.876H8.12l-4.344 4.4h23.292l-4.344-4.4z" fill="#FFD146"/><path d="M26.201 5.855V4.81h-1.758v1.046h-5.698a3.32 3.32 0 0 0-1.065-1.654v-2.09A2.113 2.113 0 0 0 15.57 0a2.112 2.112 0 0 0-2.108 2.112v2.09a3.326 3.326 0 0 0-1.066 1.653H6.777V4.81H5.02v1.046H3.762v1.76H5.02v1.18h1.757v-1.18h5.619c.18.643.55 1.223 1.066 1.654v1.19H11.32v2.443h8.205V10.46H17.68V9.27a3.321 3.321 0 0 0 1.065-1.654h5.698v1.18h1.758v-1.18h1.294v-1.76H26.2z" fill="#452FB7"/></svg>