<svg width="20" height="20" viewBox="0 0 20 20" fill="none" xmlns="http://www.w3.org/2000/svg"><path fill-rule="evenodd" clip-rule="evenodd" d="M15.983 8.339c0 4.18-3.429 7.569-7.658 7.569-4.23 0-7.658-3.39-7.658-7.57S4.095.77 8.325.77s7.658 3.39 7.658 7.57zm-13.402 0c0 3.135 2.572 5.676 5.744 5.676 3.172 0 5.743-2.541 5.743-5.676 0-3.136-2.571-5.677-5.743-5.677S2.58 5.203 2.58 8.339z" fill="#27273D"/><path fill-rule="evenodd" clip-rule="evenodd" d="M17.682 19.398a.965.965 0 0 0 1.353.034.938.938 0 0 0 .035-1.337l-5.265-5.479a.965.965 0 0 0-1.353-.034.938.938 0 0 0-.035 1.338l5.265 5.478z" fill="#27273D"/></svg>