<svg width="51" height="47" viewBox="0 0 51 47" fill="none" xmlns="http://www.w3.org/2000/svg"><path d="M10.694 20.567c-.452-.4-1.13-.706-2.016-.911-.682-.155-.999-.332-1.146-.454-.183-.148-.27-.346-.27-.607-.004-.31.09-.508.292-.676.21-.177.534-.245.94-.245h.023c.352 0 .494.048.696.224.192.166.315.429.367.811l.043.254 1.543-.013-.012-.322c-.04-.73-.321-1.317-.84-1.745-.349-.28-.654-.466-1.121-.556l-.004-.958-1.595.01.008.992c-.418.102-.79.285-1.106.544-.54.44-.812 1.012-.808 1.7.004.6.224 1.108.656 1.512.405.375 1.011.656 1.802.838.651.15 1.111.327 1.367.525.224.174.328.398.328.702 0 .384-.114.67-.35.874-.244.214-.604.325-1.068.329-.471 0-.677-.107-.916-.319-.238-.203-.357-.496-.364-.9l-.011-.3-1.558.006-.06.49v.01c0 .61.326 1.154.874 1.62.412.337.768.56 1.247.669l.013 1.134 1.598-.004-.008-1.134a2.889 2.889 0 0 0 1.314-.638 2.32 2.32 0 0 0 .858-1.865c0-.636-.24-1.173-.716-1.597zm12.606 0c-.451-.4-1.13-.706-2.015-.911-.683-.155-1-.332-1.147-.454-.182-.148-.27-.346-.27-.607-.003-.31.09-.508.293-.676.21-.177.533-.245.939-.245h.023c.352 0 .494.048.697.224.191.166.314.429.366.811l.043.254 1.543-.013-.011-.322c-.04-.73-.322-1.317-.841-1.745-.348-.28-.654-.466-1.12-.556l-.005-.958-1.594.01.008.992c-.419.102-.79.285-1.107.544-.54.44-.812 1.013-.807 1.7.003.6.223 1.108.656 1.512.404.375 1.01.656 1.801.838.652.15 1.112.327 1.367.525.224.174.328.398.328.702 0 .384-.114.67-.349.874-.245.214-.605.325-1.069.329-.47 0-.677-.107-.916-.319-.238-.203-.357-.496-.364-.9l-.01-.3-1.56.006-.063.49v.01c0 .61.328 1.154.876 1.62.422.345.77.562 1.248.669l.014 1.134 1.598-.004-.007-1.134a2.89 2.89 0 0 0 1.313-.638 2.321 2.321 0 0 0 .859-1.865 2.06 2.06 0 0 0-.716-1.597zm11.5 2.498c-.246.215-.606.326-1.07.33-.47 0-.677-.107-.916-.319-.238-.204-.357-.497-.364-.9l-.01-.3-1.61.006-.112.49v.01c.197.61.377 1.154.926 1.62.422.345.794.562 1.273.669l.025 1.134 1.604-.004-.004-1.134a2.896 2.896 0 0 0 1.315-.638 2.321 2.321 0 0 0 .86-1.865A2.06 2.06 0 0 0 36 20.567c-.452-.4-1.13-.706-2.016-.911-.682-.155-.999-.332-1.146-.454-.183-.148-.271-.346-.271-.607-.003-.31.09-.508.293-.676.21-.177.534-.245.94-.245h.022c.353 0 .495.048.697.224.192.166.315.429.367.811l.042.254 1.543-.013-.011-.322c-.04-.73-.322-1.317-.841-1.745-.348-.28-.653-.466-1.12-.556l-.005-.958-1.594.01.008.992c-.419.102-.79.285-1.106.544-.54.44-.813 1.013-.808 1.7.003.6.224 1.108.656 1.512.405.375 1.011.656 1.802.838.65.15 1.111.327 1.367.525.224.174.328.398.328.702 0 .383-.114.669-.349.873z" fill="#08041D"/><path d="M51 4.37C51 1.96 49.029 0 46.586 0c-2.443 0-4.455 1.96-4.455 4.37 0 1.686.993 3.151 2.37 3.88v26.709h-4.725V31.85h2.166V9.322h-2.166V5.244h-13.75c-.485-2.243-2.51-3.93-4.926-3.93-2.417 0-4.44 1.687-4.926 3.93H2.363v4.078H0v22.53h2.363V47h37.413v-8.157h8.664V8.315A4.266 4.266 0 0 0 51 4.37zM16.54 27.967v-14.76h8.861v14.76h-8.86zm21.464 0H29.34v-14.76h8.664v14.76zM3.938 13.207h8.664v14.76H3.938v-14.76z" fill="#452FB7"/></svg>