<svg width="29" height="29" viewBox="0 0 29 29" fill="none" xmlns="http://www.w3.org/2000/svg"><path d="M27.646 12.482C25.778 9.177 21.956 4.42 14.812.026a.177.177 0 0 0-.184 0C7.485 4.419 3.662 9.032 1.793 12.338c-2.197 3.887-.944 8.584 3.052 10.57 1.042.518 1.8.586 2.698.586 0 0 .22-.008.582-.062 1.606-.24 3.083-1.021 4.225-2.176l.163-.165a.359.359 0 0 1 .613.286c-.17 1.824-.499 4.56-1.893 6.302-.428.533-.078 1.321.606 1.321h5.767c.681 0 1.029-.786.602-1.318-1.412-1.76-1.731-4.54-1.904-6.364-.027-.285.324-.438.517-.227a7.674 7.674 0 0 0 3.714 2.283 9.57 9.57 0 0 0 1.36.265c.899 0 1.657-.068 2.698-.586 3.998-1.986 5.25-6.683 3.053-10.57z" fill="#FF1850"/></svg>