<svg xmlns="http://www.w3.org/2000/svg"><defs><symbol id="icon-icon-right" viewBox="0 0 19 32"><path d="M3.929.638l14.652 13.923a1.98 1.98 0 0 1 0 2.877L3.929 31.358a2.339 2.339 0 0 1-3.216 0 2.283 2.283 0 0 1 0-3.315l12.272-11.66a.527.527 0 0 0 0-.77L.713 3.952a2.283 2.283 0 0 1 0-3.315 2.341 2.341 0 0 1 3.216 0z"/></symbol><symbol id="icon-icon-left" viewBox="0 0 19 32"><path d="M15.271.638L.619 14.561a1.982 1.982 0 0 0 0 2.877l14.652 13.92a2.339 2.339 0 0 0 3.216 0 2.283 2.283 0 0 0 0-3.315L6.215 16.383a.527.527 0 0 1 0-.77L18.487 3.952a2.283 2.283 0 0 0 0-3.315 2.341 2.341 0 0 0-3.216 0z"/></symbol></defs></svg>