<svg aria-hidden="true" style="position:absolute;width:0;height:0" xmlns="http://www.w3.org/2000/svg" overflow="hidden"><defs><symbol id="icon-casino-company" viewBox="0 0 29 32"><path d="M11.367 15.897l-.654 3.529 3.487-1.692a1.227 1.227 0 0 1 1.074 0l3.471 1.689-.637-3.526a1.111 1.111 0 0 1 .358-1.035l2.755-2.487-3.849-.514a1.19 1.19 0 0 1-.893-.611l-1.731-3.248v-.003l-1.751 3.252a1.19 1.19 0 0 1-.894.611l-3.84.514 2.749 2.484c.294.264.428.656.354 1.038z"/><path d="M14.737 25.14c6.186 0 11.2-4.86 11.2-10.856s-5.014-10.856-11.2-10.856c-6.186 0-11.2 4.86-11.2 10.856.007 5.993 5.017 10.849 11.2 10.856zM7.128 12.036c.137-.424.516-.732.97-.79l3.841-.517 1.739-3.251c.206-.382.614-.621 1.058-.621s.852.239 1.058.621l1.731 3.248 3.849.52c.454.058.832.367.97.79.139.419.013.878-.322 1.175l-2.755 2.488.656 3.525c.079.425-.097.857-.456 1.114a1.218 1.218 0 0 1-1.251.106l-3.47-1.689-3.488 1.689c-.404.199-.89.157-1.252-.106a1.12 1.12 0 0 1-.456-1.114l.654-3.53-2.756-2.483a1.105 1.105 0 0 1-.321-1.175z"/><path d="M14.737 28.568c8.139 0 14.737-6.395 14.737-14.284S22.876 0 14.737 0 0 6.395 0 14.284c.009 7.885 6.602 14.275 14.737 14.284zm0-26.283c6.837 0 12.379 5.372 12.379 11.999s-5.542 11.999-12.379 11.999S2.358 20.911 2.358 14.284C2.366 7.66 7.903 2.293 14.737 2.285z"/><path d="M14.737 29.711C8.598 29.706 3.008 26.283.366 20.912 1.906 27.402 7.867 32 14.737 32s12.83-4.599 14.371-11.088c-2.642 5.371-8.232 8.794-14.371 8.799z"/></symbol><symbol id="icon-contact" viewBox="0 0 27 32"><path d="M22.546 23.551C17.631 30.063 7.053 35.598 0 29.086l7.48-9.659 3.847 3.039 7.48-9.659-3.954-3.147 7.48-9.659c7.907 5.318 5.129 17.148.214 23.551z"/></symbol><symbol id="icon-casino-bonuses" viewBox="0 0 29 32"><path d="M27.273 17.521H15.648V32h11.625V17.521zm-13.745 0H1.903V32h11.625V17.521zM23.651 5.902a3.926 3.926 0 0 0 .493-1.908c0-2.203-1.82-3.994-4.057-3.994-1.655 0-3.348.842-4.645 2.309a8.088 8.088 0 0 0-.854 1.16 8.145 8.145 0 0 0-.854-1.16C12.437.841 10.744 0 9.089 0 6.852 0 5.032 1.792 5.032 3.994c0 .69.179 1.34.493 1.908H0v9.532h13.528V5.902h2.12v9.532h13.528V5.902h-5.525zm-14.562 0c-1.068 0-1.938-.856-1.938-1.908s.869-1.907 1.938-1.907c1.923 0 3.752 1.937 4.284 3.815H9.089zm10.998 0h-4.284c.532-1.878 2.361-3.815 4.284-3.815 1.068 0 1.938.856 1.938 1.908s-.869 1.907-1.938 1.907z"/></symbol></defs></svg>