<svg aria-hidden="true" style="position:absolute;width:0;height:0" xmlns="http://www.w3.org/2000/svg" overflow="hidden"><defs><symbol id="icon-instagram" viewBox="0 0 31 32"><path fill="var(--color1, #484876)" opacity=".7" d="M21.742 0H9.225C4.138 0 0 4.276 0 9.533v12.934C0 27.724 4.139 32 9.225 32h12.517c5.087 0 9.226-4.276 9.226-9.533V9.533C30.968 4.277 26.829 0 21.742 0zm6.11 22.467c0 3.487-2.736 6.314-6.11 6.314H9.225c-3.374 0-6.11-2.827-6.11-6.314V9.533c0-3.487 2.736-6.314 6.11-6.314h12.517c3.375 0 6.11 2.827 6.11 6.314v12.934z"/><path fill="var(--color1, #484876)" opacity=".7" d="M15.484 7.724c-4.416 0-8.009 3.713-8.009 8.276s3.593 8.276 8.009 8.276 8.009-3.713 8.009-8.276-3.593-8.276-8.009-8.276zm0 13.333c-2.703 0-4.894-2.264-4.894-5.057s2.191-5.057 4.894-5.057c2.703 0 4.894 2.264 4.894 5.057s-2.191 5.057-4.894 5.057zm8.025-11.288c1.06 0 1.919-.888 1.919-1.983s-.859-1.983-1.919-1.983-1.919.888-1.919 1.983.859 1.983 1.919 1.983z"/></symbol><symbol id="icon-linkedin" viewBox="0 0 32 32"><path fill="var(--color1, #484876)" opacity=".7" d="M29.105 0H2.894A2.895 2.895 0 0 0-.001 2.895v26.211a2.895 2.895 0 0 0 2.895 2.895h26.211A2.895 2.895 0 0 0 32 29.106V2.895A2.895 2.895 0 0 0 29.105 0zM9.902 27.631a.842.842 0 0 1-.842.842H5.474a.842.842 0 0 1-.842-.842V12.599c0-.465.377-.842.842-.842H9.06c.465 0 .842.377.842.842v15.032zM7.267 10.34a3.407 3.407 0 1 1 0-6.814 3.407 3.407 0 0 1 0 6.814zm21.375 17.359a.774.774 0 0 1-.775.774h-3.848a.775.775 0 0 1-.775-.774v-7.051c0-1.052.309-4.609-2.749-4.609-2.371 0-2.852 2.435-2.949 3.528v8.132a.774.774 0 0 1-.774.774H13.05a.774.774 0 0 1-.774-.774V12.532c0-.428.347-.774.774-.774h3.722c.428 0 .774.347.774.774v1.311c.879-1.32 2.186-2.338 4.969-2.338 6.161 0 6.126 5.756 6.126 8.919v7.275z"/></symbol><symbol id="icon-facebook" viewBox="0 0 32 32"><path fill="var(--color1, #484876)" opacity=".7" d="M27.688 0H4.312A4.313 4.313 0 0 0 0 4.312v23.376A4.312 4.312 0 0 0 4.312 32h11.529l.02-11.435H12.89a.701.701 0 0 1-.701-.698l-.014-3.686a.701.701 0 0 1 .701-.704h2.965v-3.562c0-4.133 2.524-6.384 6.211-6.384h3.026c.387 0 .701.314.701.701V9.34a.701.701 0 0 1-.701.701l-1.857.001c-2.005 0-2.393.953-2.393 2.351v3.083h4.406c.42 0 .745.367.696.783l-.437 3.686a.701.701 0 0 1-.696.619h-3.95l-.02 11.435h6.86a4.313 4.313 0 0 0 4.312-4.312V4.311a4.313 4.313 0 0 0-4.312-4.312z"/></symbol></defs></svg>