<svg width="53" height="64" viewBox="0 0 53 64" fill="none" xmlns="http://www.w3.org/2000/svg"><path d="M33.118 43.934H19.824C8.901 43.934 0 52.944 0 64h53c-.058-10.998-8.959-20.066-19.882-20.066z" fill="#8162FF"/><path d="M30.811 49.418h-9.466c-7.78 0-14.118 6.547-14.118 14.582H44.97c-.041-7.993-6.38-14.582-14.159-14.582z" fill="#08041D"/><path d="M28.84 34.75c1.041 0 2.024.35 2.775.994h4.797c2.37-2.516 3.815-5.85 3.815-9.594 0-7.722-6.184-13.923-13.756-13.923-7.571 0-13.756 6.2-13.756 13.923 0 5.207 2.832 9.77 7.052 12.168.462-2.047 2.254-3.569 4.334-3.569h4.74z" fill="#8162FF"/><path d="M6.127 27.32a6.567 6.567 0 0 0 1.849 3.802c.751.761 1.734 1.346 2.832 1.697-.058-.234-.058-.468-.058-.644V20.826c0-.234 0-.468.058-.702-1.098.293-2.023.878-2.832 1.697l-.231.234v-.468c0-1.112.115-2.223.289-3.276.173-1.112.462-2.165.867-3.16a14.01 14.01 0 0 1 1.387-2.983 17.033 17.033 0 0 1 1.85-2.69.446.446 0 0 0 .115-.235c.52.059 1.04-.117 1.387-.468a17.834 17.834 0 0 1 12.715-5.323c4.567 0 9.248 1.755 12.716 5.323.404.41.925.527 1.387.468.058.059.058.176.116.234.693.82 1.329 1.755 1.85 2.691.52.936.982 1.93 1.386 2.984.347 1.053.636 2.106.867 3.217a20.3 20.3 0 0 1 .29 3.276v.468c-.059-.117-.174-.175-.232-.234-.751-.76-1.734-1.345-2.832-1.696.058.234.058.468.058.702v11.29c0 .235 0 .469-.058.644.289-.059.578-.175.867-.293v3.686c0 .41-.058.82-.116 1.112-.058.292-.173.468-.289.643a1.256 1.256 0 0 1-.462.293 2.895 2.895 0 0 1-.751.117H30.459c-.347-.585-.925-.995-1.676-.995h-4.74c-1.04 0-1.849.878-1.849 1.872.058 1.053.867 1.872 1.907 1.872h4.74c.693 0 1.33-.41 1.676-.994h11.155c.404 0 .751-.117 1.098-.234a3.09 3.09 0 0 0 1.156-.76c.289-.352.52-.761.693-1.288a7.061 7.061 0 0 0 .232-1.696v-4.856l.173-.175a6.567 6.567 0 0 0 1.85-3.803c.057-.059.115-.059.115-.117.174-.176.29-.468.29-.702v-4.856c0-1.228-.117-2.457-.29-3.627-.347-1.228-.636-2.398-1.04-3.568a17.487 17.487 0 0 0-1.56-3.335 17.232 17.232 0 0 0-2.082-2.983c-.057-.117-.173-.176-.288-.234a1.796 1.796 0 0 0-.463-1.58C37.395 2.106 31.962 0 26.471 0c-5.49 0-10.924 2.106-15.143 6.318a1.796 1.796 0 0 0-.462 1.58c-.116.058-.173.117-.29.234a17.295 17.295 0 0 0-2.08 2.983 29.309 29.309 0 0 0-1.56 3.335c-.405 1.17-.752 2.34-.925 3.568-.231 1.17-.29 2.399-.29 3.627v4.856c0 .292.117.526.29.702.058.058.115.058.115.117z" fill="#08041D"/></svg>