<svg width="20" height="13" viewBox="0 0 20 13" fill="none" xmlns="http://www.w3.org/2000/svg"><path d="M19.876 13H0V0h19.876v13z" fill="#F0F0F0"/><path d="M11.18 13H8.696V7.719H0V5.28h8.696V.001h2.484v5.28h8.696V7.72H11.18V13z" fill="#D80027"/><path d="M15.287 4.24l4.589-2.502v2.501h-4.59zm-3.189 0L19.876 0v1.2l-5.579 3.04h-2.199zM17.804 0l-5.706 3.11V0h5.706z" fill="#0052B4"/><path d="M12.098 4.24L19.876 0v1.2l-5.579 3.04h-2.199z" fill="#F0F0F0"/><path d="M12.098 4.24L19.876 0v1.2l-5.579 3.04h-2.199z" fill="#D80027"/><path d="M3.507 4.24L0 2.327v1.911h3.507zm4.271-.54V0H.99l6.788 3.7z" fill="#0052B4"/><path d="M5.578 4.24L0 1.198V0l7.777 4.24H5.578z" fill="#D80027"/><path d="M4.59 8.76L0 11.263V8.761h4.59zm3.187.001L0 13v-1.199l5.578-3.04h2.2zM2.072 13l5.706-3.11V13H2.072z" fill="#0052B4"/><path d="M7.777 8.761L0 13v-1.199l5.578-3.04h2.2z" fill="#F0F0F0"/><path d="M7.777 8.761L0 13v-1.199l5.578-3.04h2.2z" fill="#D80027"/><path d="M16.369 8.76l3.507 1.912V8.761h-3.507zm-4.271.54V13h6.788l-6.788-3.7z" fill="#0052B4"/><path d="M14.297 8.761l5.579 3.04V13l-7.778-4.239h2.2z" fill="#D80027"/></svg>