<svg width="31" height="37" viewBox="0 0 31 37" fill="none" xmlns="http://www.w3.org/2000/svg">
<path d="M19.375 37.0001C20.6162 37.0001 21.6986 35.9212 21.6986 34.6841V29.2754H23.2501C24.1811 29.2754 24.8016 28.6567 24.8016 27.729V12.2808H6.19849V27.7291C6.19849 28.6569 6.81908 29.2755 7.74997 29.2755H9.30158V34.6842C9.30158 35.9214 10.3837 37.0002 11.6252 37.0002C12.8662 37.0002 13.9485 35.9214 13.9485 34.6842V29.2755H17.0516V34.6842C17.0515 35.9212 18.1338 37.0001 19.375 37.0001Z" fill="#452FB7"/>
<path d="M28.6766 27.7291C29.9178 27.7291 30.9999 26.6504 30.9999 25.4131V14.5957C30.9999 13.3652 29.9178 12.2808 28.6766 12.2808C27.4353 12.2808 26.353 13.3652 26.353 14.5957V25.4131C26.353 26.6502 27.4352 27.7291 28.6766 27.7291Z" fill="#452FB7"/>
<path d="M2.32333 27.7291C3.56464 27.7291 4.6469 26.6504 4.6469 25.4131V14.5957C4.6469 13.3652 3.56476 12.2808 2.32333 12.2808C1.08214 12.2808 0 13.3652 0 14.5957V25.4131C0 26.6502 1.08214 27.7291 2.32333 27.7291Z" fill="#452FB7"/>
<path d="M22.9397 0.233349C22.6295 -0.077783 22.1677 -0.077783 21.8575 0.233349L19.7766 2.30052L19.6806 2.39609C18.4467 1.78024 17.0633 1.47269 15.5228 1.46973C15.5152 1.46973 15.5078 1.46948 15.5002 1.46948H15.5C15.4922 1.46948 15.485 1.46973 15.4772 1.46973C13.9367 1.47269 12.5533 1.78024 11.3196 2.39609L11.2233 2.30052L9.14253 0.233349C8.83211 -0.077783 8.37057 -0.077783 8.06039 0.233349C7.74997 0.542752 7.74997 1.00192 8.06039 1.31108L10.0733 3.31775C9.42471 3.74939 8.83657 4.27757 8.32511 4.88168C7.10064 6.32832 6.31963 8.21104 6.21224 10.2509C6.21125 10.2722 6.20914 10.2932 6.20815 10.3144C6.20158 10.4533 6.19849 10.5929 6.19849 10.7331H24.8016C24.8016 10.5929 24.7982 10.4533 24.7919 10.3144C24.7909 10.2932 24.7888 10.2722 24.7876 10.2509C24.6804 8.21104 23.8992 6.3282 22.6747 4.88181C22.1635 4.27769 21.5751 3.74951 20.9265 3.31788L22.9397 1.3112C23.2501 1.00192 23.2501 0.542752 22.9397 0.233349ZM11.6222 8.03301C10.9803 8.03301 10.4599 7.51433 10.4599 6.87453C10.4599 6.23474 10.9803 5.71606 11.6222 5.71606C12.2641 5.71606 12.7845 6.23474 12.7845 6.87453C12.7845 7.51433 12.2641 8.03301 11.6222 8.03301ZM19.3779 8.03301C18.736 8.03301 18.2156 7.51433 18.2156 6.87453C18.2156 6.23474 18.736 5.71606 19.3779 5.71606C20.0198 5.71606 20.5402 6.23474 20.5402 6.87453C20.5402 7.51433 20.0198 8.03301 19.3779 8.03301Z" fill="#452FB7"/>
</svg>
