<svg width="29" height="35" viewBox="0 0 29 35" fill="none" xmlns="http://www.w3.org/2000/svg">
<path d="M1.49658 12.8659C-1.50347 18.0006 0.403717 25.7927 3.72129 30.5174C5.37728 32.8795 7.05387 34.9998 9.35024 34.9998C9.39353 34.9998 9.43692 34.999 9.48137 34.9973C10.5603 34.9548 11.3399 34.6272 12.0937 34.3106C12.9401 33.9549 13.8154 33.5871 15.1883 33.5871C16.4944 33.5871 17.3279 33.9429 18.134 34.287C18.9284 34.6259 19.7467 34.9766 20.9558 34.9543C23.5425 34.9068 25.1306 32.6188 26.5318 30.6004C27.994 28.4929 28.7274 26.4467 28.9749 25.6648L28.9849 25.6337C29.032 25.4947 28.9655 25.343 28.8304 25.2819C28.8267 25.2801 28.813 25.2745 28.8091 25.2729C28.3536 25.0892 24.358 23.3409 24.316 18.5759C24.277 14.7045 27.3135 12.6544 27.9224 12.2829L27.9508 12.2654C28.0168 12.2235 28.0627 12.1571 28.0783 12.0811C28.0939 12.0053 28.0776 11.9263 28.0334 11.8625C25.9375 8.83737 22.7251 8.38145 21.4318 8.3266C21.2441 8.30812 21.0504 8.29883 20.8559 8.29883C19.3368 8.29883 17.8816 8.86468 16.7126 9.31934C15.9056 9.63319 15.2085 9.90424 14.7278 9.90424C14.1876 9.90424 13.4866 9.62986 12.6748 9.31222C11.5893 8.88729 10.3589 8.40578 9.05635 8.40578C9.02528 8.40578 8.99468 8.40612 8.96455 8.4067C5.93599 8.45065 3.07427 10.1596 1.49658 12.8659Z" fill="#587BE1"/>
<path d="M21.4345 0.000220493C19.6005 0.0738926 17.4004 1.18735 16.0855 2.70647C14.9679 3.98334 13.8762 6.11226 14.1638 8.25816C14.1819 8.39242 14.2926 8.49604 14.4296 8.50648C14.5534 8.51601 14.6797 8.52083 14.8056 8.52094C16.5989 8.52094 18.5334 7.54244 19.8546 5.96686C21.2451 4.30316 21.9482 2.16804 21.7355 0.255548C21.7187 0.10568 21.585 -0.00563197 21.4345 0.000220493Z" fill="#587BE1"/>
</svg>
