<svg width="45" height="45" viewBox="0 0 45 45" fill="none" xmlns="http://www.w3.org/2000/svg">
<path d="M17.2312 10.5364C7.7192 10.5364 0 18.2562 0 27.769C0 37.2818 7.7192 44.9999 17.2312 44.9999C26.7433 44.9999 34.4625 37.2801 34.4625 27.7673C34.4625 18.2544 26.7433 10.5364 17.2312 10.5364Z" fill="#452FB7"/>
<path d="M33.0349 0C26.731 0 21.5755 4.88548 21.1172 11.0722C24.4342 11.8625 27.3737 13.6045 29.6406 16.0051C29.8478 15.9893 30.1446 15.9612 30.5502 15.9226C30.9892 15.8769 30.9787 15.8295 31.1437 15.7838C31.3562 15.7136 31.5195 15.6012 31.6336 15.4484C31.7443 15.2939 31.8005 15.0621 31.8005 14.7548V9.00178H29.5476V8.13778H30.1147C30.854 8.13778 31.5195 7.99904 32.1042 7.72334C32.6942 7.4529 33.1104 7.15787 33.3668 6.84177H34.5696C34.552 7.28782 34.5327 7.80587 34.5099 8.40295C34.4888 9.00353 34.4765 9.53563 34.4765 10.0098V14.6389C34.4765 14.8812 34.531 15.0937 34.6381 15.2816C34.7452 15.4695 34.8962 15.61 35.0964 15.6996C35.2737 15.7733 35.5652 15.8418 35.9709 15.9015C36.3765 15.9665 36.3291 16.0016 36.5275 16.0069V17.1237H30.6204C32.171 19.0765 33.3 21.3753 33.8883 23.8847C40.0938 23.4457 45 18.2828 45 11.9643C44.9982 5.35787 39.6391 0 33.0349 0Z" fill="#A732EE"/>
<path d="M21.6141 26.3609C22.2112 26.7595 22.7134 27.2934 23.1172 27.9677C23.5229 28.6421 23.7283 29.478 23.7283 30.4754C23.7283 32.2298 23.0505 33.6628 21.6879 34.7744C20.3305 35.8877 18.5939 36.4427 16.4815 36.4427C14.8467 36.4427 13.4823 36.0932 12.3918 35.3908C11.2979 34.6901 10.7518 33.8594 10.7518 32.9041C10.7518 32.3334 10.9344 31.8592 11.2961 31.4694C11.6613 31.076 12.1425 30.8793 12.7483 30.8793C13.3787 30.8793 13.8949 31.0497 14.2988 31.3886C14.7009 31.7293 14.9046 32.1824 14.9046 32.7478C14.9046 33.1465 14.8379 33.5802 14.6992 34.0491C14.5639 34.5197 14.4533 34.8815 14.3673 35.1256C14.5569 35.1976 14.7799 35.252 15.0363 35.2872C15.2909 35.324 15.5297 35.3416 15.7527 35.3416C16.2075 35.3416 16.6535 35.238 17.0925 35.036C17.5315 34.8341 17.9073 34.5355 18.2163 34.1439C18.5763 33.6979 18.8467 33.1675 19.0329 32.5582C19.2155 31.9488 19.3085 31.2569 19.3085 30.4825C19.3085 29.3586 19.003 28.4366 18.399 27.7184C17.7984 26.9931 17.0188 26.6313 16.0618 26.6313C15.3155 26.6313 14.6956 26.7824 14.1899 27.0809C13.6912 27.3829 13.2399 27.7746 12.8378 28.261L11.9142 27.9502L13.0749 19.1433H22.9767V22.4448H13.9388L13.4454 26.3925C13.8739 26.1238 14.427 25.8622 15.1065 25.6163C15.7861 25.3669 16.5815 25.2458 17.4964 25.2458C18.204 25.2458 18.9082 25.323 19.5948 25.4811C20.2849 25.6356 20.9592 25.9306 21.6141 26.3609Z" fill="white"/>
</svg>
