<svg width="495" height="771" viewBox="0 0 495 771" fill="none" xmlns="http://www.w3.org/2000/svg">
<path d="M178.479 1.39548C179.176 0.697738 180.57 0.697738 181.268 0C181.965 0 183.359 0 184.056 0C184.754 0 186.148 0.697738 186.845 0.697738C187.542 1.39548 188.239 2.09321 188.937 2.79095L344.408 230.951C344.408 231.649 345.106 232.347 345.106 232.347C345.106 233.044 345.106 233.742 345.106 234.44C345.106 235.138 344.408 235.835 344.408 236.533C343.711 237.231 343.014 237.928 343.014 237.928L196.606 328.634C195.908 329.332 195.211 329.332 194.514 329.332C193.817 329.332 193.12 329.332 192.423 329.332C191.725 329.332 191.028 329.332 190.331 328.634C189.634 328.634 188.937 327.937 188.937 327.937L2.09155 143.036C1.39437 142.338 0.697183 141.641 0.697183 140.943C0 140.245 0 139.548 0 138.152C0 137.454 0 136.757 0.697183 136.059C1.39437 135.361 1.39437 134.663 2.09155 133.966L178.479 1.39548Z" fill="#452FB7"/>
<path d="M39.7396 150.014L35.5566 139.547L46.7115 145.827L39.7396 150.014ZM33.465 129.779L30.6763 131.872L42.5284 159.782L41.8312 161.177V161.875L46.7115 158.386L46.0143 157.689L43.2256 159.782L39.0425 151.409L46.0143 146.525L55.7749 150.711L53.6833 152.107L54.3805 152.805L65.5354 144.432L64.8382 143.734L62.7467 145.827L33.465 129.779Z" fill="#27273D"/>
<path d="M58.5634 159.084C57.8662 159.782 57.169 160.48 56.4718 161.177C55.7747 162.573 55.7747 163.271 55.7747 163.968C55.7747 164.666 55.7747 166.062 56.4718 166.759C56.4718 167.457 57.169 168.852 57.8662 169.55L58.5634 170.248L59.2606 170.946C59.2606 170.946 59.9578 171.643 60.6549 171.643C61.3521 171.643 61.3521 171.643 62.0493 172.341C61.3521 173.039 60.6549 173.737 59.9578 174.434C59.2606 175.132 59.2606 175.83 59.2606 177.225C59.2606 177.923 59.2606 179.319 59.9578 180.016C59.9578 180.714 60.6549 181.412 61.3521 182.807C62.0493 183.505 62.7465 184.203 64.1409 184.9C64.838 185.598 66.2324 185.598 66.9296 185.598C68.324 185.598 69.0211 185.598 69.7183 185.598C70.4155 185.598 71.8099 184.9 72.507 184.203C73.2042 183.505 73.2042 183.505 73.9014 182.807C74.5986 182.11 74.5986 182.11 74.5986 181.412C74.5986 180.714 75.2958 180.016 75.2958 180.016C75.2958 179.319 75.2958 178.621 75.2958 178.621C75.993 180.016 75.993 180.714 76.6901 182.11C76.6901 182.807 77.3873 184.203 77.3873 184.9C77.3873 185.598 77.3873 186.296 77.3873 186.994C77.3873 187.691 77.3873 187.691 77.3873 187.691L86.4507 181.412C86.4507 181.412 86.4507 181.412 85.7535 181.412C85.0563 181.412 84.3592 181.412 83.662 180.714C82.9648 180.714 81.5704 180.016 80.8733 180.016C79.4789 179.319 78.7817 179.319 77.3873 178.621C78.0845 178.621 78.7817 178.621 79.4789 178.621C80.1761 178.621 80.8732 178.621 81.5704 178.621C82.2676 178.621 82.9648 178.621 83.662 177.923C84.3592 177.923 85.0563 177.225 85.0563 177.225C85.7535 176.528 86.4507 175.83 87.1479 175.132C87.8451 174.434 87.8451 173.737 87.8451 172.341C87.8451 171.643 87.8451 170.248 87.8451 169.55C87.8451 168.852 87.1479 167.457 86.4507 166.759C85.7535 166.062 85.0563 165.364 83.662 164.666C82.9648 163.968 81.5704 163.968 80.8733 163.968C79.4789 163.968 78.7817 163.968 77.3873 163.968C76.6902 163.968 75.2958 164.666 74.5986 165.364V164.666C74.5986 164.666 74.5986 163.968 73.9014 163.968C73.9014 163.968 73.9014 163.271 73.2042 163.271L72.507 162.573C71.8099 161.875 71.1127 161.177 69.7183 160.48C69.0211 159.782 67.6268 159.782 66.9296 159.782C66.2324 159.782 64.838 159.782 63.4437 159.782C60.6549 158.386 59.2606 158.386 58.5634 159.084Z" fill="#27273D"/>
<path d="M317.916 235.138L310.944 230.253L316.522 226.765L317.916 235.138ZM317.219 216.996L312.339 220.485V221.183L314.43 219.787L315.824 226.765L309.55 230.253L303.275 226.765L305.367 225.369V224.671L294.909 231.649V232.347L296.303 231.649L316.522 242.813L319.31 241.417L315.824 219.787L317.219 216.996Z" fill="#27273D"/>
<path d="M292.817 196.762L284.451 202.344C284.451 202.344 284.451 202.344 285.148 202.344C285.845 202.344 285.845 202.344 286.542 203.042C287.24 203.042 287.937 203.739 288.634 203.739C289.331 204.437 290.725 204.437 291.423 205.135C290.725 205.135 290.028 205.135 290.028 205.135C289.331 205.135 288.634 205.135 288.634 205.135C287.937 205.135 287.24 205.135 287.24 205.833C286.542 205.833 285.845 206.53 285.845 206.53C285.148 207.228 284.451 207.926 283.754 208.623C283.056 209.321 283.056 210.019 282.359 210.717C282.359 211.414 282.359 212.112 282.359 212.81C282.359 213.508 283.056 214.205 283.056 214.903C283.754 215.601 284.451 216.299 285.148 216.299C285.845 216.996 286.542 216.996 287.937 216.996C288.634 216.996 290.028 216.996 290.725 216.996C291.423 216.996 292.817 216.299 293.514 215.601V216.299V216.996V217.694C293.514 217.694 293.514 218.392 294.211 218.392C294.909 219.09 295.606 219.787 296.303 219.787C297 220.485 297.697 220.485 298.394 220.485C299.092 220.485 300.486 220.485 301.183 220.485C301.88 220.485 303.275 219.787 303.972 219.09C304.669 218.392 305.366 217.694 306.063 216.996C306.761 216.299 306.761 215.601 307.458 214.903C307.458 214.205 307.458 213.508 307.458 212.81C307.458 212.112 306.761 211.414 306.761 210.717L306.063 210.019L304.669 209.321C304.669 209.321 303.972 209.321 303.972 208.623H303.275C303.972 207.926 304.669 207.228 305.366 206.53C306.063 205.833 306.063 205.135 306.761 204.437C306.761 203.739 306.761 203.042 306.761 202.344C306.761 201.646 306.063 200.948 306.063 200.251C305.366 199.553 304.669 198.855 303.972 198.855C303.275 198.157 302.578 198.157 301.183 198.157C300.486 198.157 299.092 198.157 298.394 198.157C297.697 198.157 296.303 198.855 295.606 199.553C294.909 199.553 294.909 200.251 294.211 200.948C293.514 201.646 293.514 201.646 292.817 202.344C292.12 203.042 292.12 203.042 292.12 203.739C292.12 204.437 292.12 204.437 291.423 205.135C291.423 204.437 290.725 203.042 290.725 202.344C290.725 201.646 290.725 200.948 290.725 200.251C292.817 198.157 292.817 197.46 292.817 196.762Z" fill="#27273D"/>
<path d="M165.929 163.968C163.838 165.364 161.746 167.457 160.352 169.55C158.958 171.643 158.26 173.737 157.563 176.528C156.866 178.621 157.563 181.412 157.563 183.505C158.26 185.598 159.655 187.691 161.049 189.785C161.746 190.482 162.444 191.18 163.141 191.878C163.838 192.576 164.535 193.273 165.232 193.273C165.929 193.971 166.627 193.971 167.324 194.669C168.021 195.367 168.718 195.367 170.113 195.367C170.113 195.367 170.113 195.367 169.415 195.367C169.415 195.367 169.415 195.367 168.718 195.367C168.718 195.367 168.718 195.367 168.021 195.367C168.021 195.367 168.021 195.367 167.324 195.367C165.232 196.762 163.141 198.855 161.746 200.948C160.352 203.042 159.655 205.135 158.958 207.228C158.26 209.321 158.958 211.414 158.958 213.508C159.655 215.601 160.352 217.694 162.444 219.787C163.838 221.881 165.929 223.276 168.021 223.974C170.113 224.671 172.901 225.369 174.993 226.067C177.782 226.067 179.873 226.067 182.662 225.369C185.451 224.671 187.542 223.974 189.634 221.881C191.028 221.183 192.422 219.787 193.12 219.09C194.514 217.694 195.211 216.996 195.908 215.601C196.606 214.205 197.303 212.81 197.303 211.414C198 210.019 198 208.624 198 207.228C198.697 210.019 199.394 212.81 200.091 214.903C200.789 216.996 200.789 219.09 200.789 221.183C200.789 222.578 200.789 224.671 200.789 225.369C200.789 226.067 200.789 226.765 200.789 226.765L223.098 212.112C223.098 212.112 222.401 212.112 221.704 212.112C220.31 212.112 218.915 211.414 217.521 211.414C215.429 210.717 213.338 210.019 211.246 209.321C209.155 208.624 206.366 207.228 203.577 205.135C204.972 205.833 206.366 205.833 207.76 205.833C209.155 205.833 210.549 205.833 212.641 205.833C214.035 205.833 215.429 205.135 217.521 204.437C218.915 203.739 220.31 203.042 221.704 202.344C223.796 200.948 225.887 198.855 227.282 196.762C228.676 194.669 230.07 192.576 230.07 190.482C230.768 188.389 230.768 186.296 230.07 183.505C229.373 181.412 228.676 179.319 227.282 177.225C225.887 175.132 223.796 173.737 221.704 172.341C219.613 170.946 216.824 170.248 214.732 170.248C211.944 170.248 209.852 170.248 207.063 170.946C204.275 171.643 202.183 173.039 199.394 174.434C199.394 174.434 199.394 174.434 198.697 175.132C198.697 175.132 198.697 175.132 198 175.83C198 175.83 198 175.83 197.303 176.528C197.303 176.528 197.303 176.528 196.606 177.225C196.606 176.528 196.606 175.83 196.606 174.434C196.606 173.737 195.908 173.039 195.908 171.643C195.908 170.946 195.211 170.248 194.514 169.55C193.817 168.852 193.817 168.155 193.12 167.457C191.725 165.364 189.634 163.968 187.542 162.573C185.451 161.177 182.662 160.48 179.873 160.48C177.084 160.48 174.296 160.48 172.204 161.177C170.81 161.177 168.021 162.573 165.929 163.968Z" fill="#27273D"/>
<path d="M0.697183 137.454C1.39437 136.757 1.39437 136.059 2.09155 135.361L178.479 2.79095C179.176 2.09321 180.57 1.39548 181.268 1.39548C181.965 1.39548 183.359 1.39548 184.056 1.39548C184.754 1.39548 186.148 2.09321 186.845 2.09321C187.542 2.79095 188.239 3.48869 188.937 4.18643L344.408 232.347C344.408 233.044 345.106 233.044 345.106 233.742V233.044C345.106 232.347 345.106 231.649 344.408 231.649L188.937 2.79095C188.239 2.09321 187.542 1.39548 186.845 0.697738C186.148 0.697738 184.754 0 184.056 0C183.359 0 181.965 0 181.268 0C180.57 0 179.176 0.697738 178.479 1.39548L2.09155 133.966C1.39437 134.663 0.697183 135.361 0.697183 136.059C0 136.757 0 137.454 0 138.152V138.85C0 138.152 0 138.152 0.697183 137.454Z" fill="black"/>
<path d="M210.55 279.095C211.247 279.095 211.247 279.793 211.944 280.49C212.641 281.188 212.641 281.886 213.339 281.886C214.036 282.584 214.036 283.281 214.036 283.979C214.036 284.677 214.733 285.375 214.733 286.072C227.282 376.778 267.719 462.6 338.134 523.303C338.831 524.001 339.529 524.699 339.529 525.396C340.226 526.094 340.226 526.792 340.226 527.49C340.226 528.187 340.226 528.885 340.226 528.885C340.226 529.583 339.529 529.583 338.831 530.281C280.965 560.981 225.191 594.472 171.508 631.452C170.81 632.15 169.416 632.15 168.719 632.15C167.324 632.15 166.627 632.15 165.233 631.452C163.839 630.755 163.141 630.057 161.747 629.359C160.353 628.662 159.655 627.266 158.958 625.871C78.7822 498.882 52.2892 347.473 75.9935 200.948C75.9935 200.251 76.6907 198.855 76.6907 198.157C77.3878 197.46 77.3878 196.762 78.085 196.762C78.7822 196.762 79.4794 196.064 80.1766 196.064C80.8738 196.064 81.5709 196.064 82.2681 196.762C122.705 227.462 165.233 254.674 210.55 279.095Z" fill="#904DBF"/>
<path d="M89.2397 241.417C90.634 237.231 91.3312 235.138 93.4227 230.951C94.1199 235.138 94.8171 240.022 94.8171 244.208C92.0284 243.51 91.3312 242.813 89.2397 241.417ZM97.6059 225.369C96.9087 224.671 96.2115 224.671 94.8171 223.974C91.3312 233.044 87.1481 242.115 83.6622 250.488C82.965 250.488 82.965 249.79 82.2678 249.79C82.2678 250.488 82.2678 250.488 82.2678 250.488C84.3594 251.883 85.0566 251.883 87.1481 253.279C87.1481 252.581 87.1481 252.581 87.1481 252.581C86.4509 251.883 85.7537 251.883 85.0566 251.186C86.4509 247.697 87.1481 245.604 88.5425 242.115C91.3312 243.51 92.0284 244.208 94.8171 245.604C95.5143 249.092 96.2115 253.279 96.2115 256.767C95.5143 256.07 94.8171 256.07 94.1199 255.372C94.1199 256.07 94.1199 256.07 94.1199 256.07C97.6059 258.163 101.092 259.558 104.578 261.652V260.954C103.88 260.954 103.88 260.256 103.183 260.256C101.092 249.092 99.0002 237.231 97.6059 225.369Z" fill="#27273D"/>
<path d="M100.394 267.931C99.6971 267.233 99 267.233 98.3028 267.233C97.6056 267.233 96.9084 267.233 96.2112 267.931C95.5141 268.629 94.8169 268.629 94.1197 270.024C93.4225 270.722 93.4225 272.118 92.7253 272.815C92.7253 271.42 92.0281 270.024 92.0281 268.629C91.331 267.233 91.331 265.838 90.6338 265.14C89.9366 264.443 89.2394 263.047 88.5422 262.349C87.845 261.652 87.1479 260.954 86.4507 260.256C85.7535 260.256 85.0563 259.558 85.0563 259.558C84.3591 259.558 83.6619 259.558 83.6619 260.256C82.9648 260.256 82.9648 260.954 82.2676 261.652C81.5704 262.349 81.5704 263.047 80.8732 263.745C80.8732 264.443 80.176 265.838 80.176 266.536C80.176 267.233 80.176 268.629 80.176 269.327C80.176 270.024 80.176 271.42 80.8732 272.118C80.8732 272.815 81.5704 274.211 81.5704 274.909C82.2676 276.304 82.9648 278.397 83.6619 279.793C84.3591 281.188 85.0563 282.584 85.7535 283.979C86.4507 285.375 87.1479 286.77 88.5422 288.166C89.2394 289.561 89.9366 290.957 91.331 292.352C91.331 292.352 92.0281 293.05 92.0281 293.748C92.0281 294.445 92.7253 294.445 92.7253 295.143C92.7253 295.841 93.4225 295.841 93.4225 296.538C93.4225 297.236 93.4225 297.236 93.4225 297.934V297.236C93.4225 297.236 93.4225 296.538 94.1197 295.841C94.1197 295.143 94.8169 295.143 94.8169 295.143L95.5141 294.445C96.2112 293.748 96.9084 293.05 97.6056 292.352C98.3028 291.654 99 290.957 100.394 290.259C101.092 289.561 101.789 288.863 102.486 288.166C103.183 287.468 103.88 286.77 104.577 285.375C104.577 284.677 105.275 283.979 105.275 283.281C105.275 282.584 105.972 281.886 105.972 281.188C105.972 280.49 105.972 279.793 105.972 278.397C105.972 277.7 105.972 276.304 105.972 275.606C105.972 274.211 105.275 273.513 105.275 272.815C105.275 272.118 104.577 271.42 103.88 270.722C103.183 270.024 103.183 269.327 102.486 268.629C101.092 268.629 101.092 268.629 100.394 267.931Z" fill="#27273D"/>
<path d="M307.458 520.512C303.972 518.419 300.486 515.628 297 513.535C299.092 512.837 300.486 512.139 302.578 511.442C303.972 514.93 305.366 516.326 307.458 520.512ZM299.789 500.976C297.697 501.673 297 501.673 294.909 502.371C294.909 502.371 294.909 503.069 295.606 503.069C296.303 503.069 297 502.371 297.697 502.371C299.092 505.162 299.789 507.255 301.88 510.046C299.789 510.744 298.394 511.442 295.606 512.139C292.12 509.348 290.725 508.651 287.24 505.86C287.937 505.86 288.634 505.162 289.331 505.162C289.331 505.162 289.331 504.464 288.634 504.464C284.451 505.86 282.359 506.557 278.176 507.953C278.176 507.953 278.176 508.651 278.873 508.651C279.571 508.651 279.571 508.651 280.268 507.953C289.331 514.93 299.092 521.21 308.852 527.49C309.549 526.792 310.247 526.792 311.641 526.094C306.761 517.721 302.578 510.046 298.394 501.673C299.092 501.673 299.789 501.673 299.789 500.976Z" fill="#27273D"/>
<path d="M266.324 474.462V475.159V475.857C266.324 476.555 266.324 476.555 266.324 476.555V477.253C266.324 477.95 265.627 479.346 265.627 480.043C265.627 480.741 264.93 482.137 264.93 482.834C264.93 483.532 264.232 484.928 264.232 485.625C264.232 486.323 264.232 487.719 264.232 489.114C264.232 489.812 264.232 490.51 264.93 491.207C264.93 491.905 265.627 492.603 265.627 493.3C266.324 493.998 266.324 494.696 267.021 495.394C267.718 496.091 268.415 496.789 269.113 497.487C269.81 498.185 270.507 498.882 271.204 499.58C271.901 500.278 272.599 500.278 273.296 500.278C273.993 500.278 274.69 500.278 275.387 500.976C276.085 500.976 276.782 500.976 276.782 500.976C277.479 500.976 278.176 500.278 278.873 499.58C279.57 498.882 279.57 498.185 279.57 497.487C279.57 496.789 279.57 496.091 279.57 494.696C279.57 493.998 278.873 492.603 278.873 491.905C279.57 492.603 280.965 493.3 281.662 493.998C283.056 494.696 283.754 495.394 285.148 495.394C286.542 495.394 287.239 496.091 287.937 496.091C288.634 496.091 290.028 496.091 290.725 496.091C291.423 496.091 291.423 495.394 292.12 495.394C292.12 495.394 292.817 494.696 292.817 493.998C292.817 493.3 292.817 493.3 292.817 492.603C292.817 491.905 292.12 491.207 292.12 490.51C292.12 489.812 291.423 489.114 290.725 488.416C290.028 487.719 289.331 487.021 289.331 486.323C288.634 485.625 287.937 484.928 287.239 484.928C286.542 484.23 285.845 484.23 285.148 483.532C283.754 482.834 282.359 482.137 281.662 481.439C280.268 480.741 278.873 480.043 278.176 480.043C276.782 479.346 275.387 479.346 274.69 478.648C273.296 477.95 271.901 477.253 271.204 477.253C271.204 477.253 270.507 477.253 270.507 476.555C269.81 476.555 269.81 475.857 269.113 475.857C267.718 475.159 267.718 475.159 266.324 474.462C267.021 474.462 267.021 474.462 266.324 474.462Z" fill="#27273D"/>
<path d="M181.267 373.29C179.176 373.29 177.084 373.29 175.69 373.987C173.598 374.685 172.204 376.081 170.81 377.476C169.415 378.871 168.718 380.965 168.021 383.756C167.324 385.849 167.324 388.64 167.324 392.129C165.929 388.64 163.838 385.849 161.746 383.058C159.655 380.267 157.563 377.476 155.472 375.383C153.38 373.29 150.591 371.196 148.5 369.801C146.408 368.405 143.619 367.708 141.528 367.01C140.134 367.01 138.739 367.01 137.345 367.01C135.95 367.708 134.556 367.708 133.859 369.103C132.465 370.499 131.767 371.894 131.07 373.29C130.373 375.383 129.676 377.476 129.676 380.267C129.676 383.058 129.676 385.151 130.373 387.942C131.07 390.733 131.767 393.524 132.465 395.617C133.162 398.408 134.556 400.501 135.95 403.292C137.345 406.083 138.739 408.176 140.134 410.27C142.922 413.758 145.711 417.247 149.197 420.736C151.986 423.527 155.472 426.318 158.957 429.109C162.443 431.9 165.232 433.993 168.718 436.784C172.204 439.575 175.69 441.668 178.479 444.459C179.176 445.157 179.873 445.854 181.267 446.552C181.965 447.25 183.359 448.645 184.056 449.343C184.753 450.041 186.148 451.436 186.845 452.134C187.542 452.832 188.239 454.227 188.239 454.925C188.239 454.227 187.542 453.529 187.542 452.134C187.542 451.436 187.542 450.041 187.542 448.645C187.542 447.25 187.542 446.552 188.239 445.157C188.239 444.459 188.936 443.063 188.936 442.366C190.331 439.575 191.028 436.784 192.422 434.69C193.817 431.9 195.211 429.806 196.605 427.713C198 425.62 199.394 422.829 200.091 420.736C200.788 417.945 202.183 415.852 202.183 412.363C202.183 410.967 202.88 408.874 202.88 406.781C202.88 404.688 202.88 402.595 202.183 401.199C201.486 399.106 201.486 397.013 200.788 394.919C200.091 392.826 199.394 390.733 198 388.64C196.605 385.849 195.211 383.756 193.817 382.36C192.422 380.267 191.028 378.871 189.634 377.476C188.239 376.081 186.845 375.383 185.45 374.685C184.056 373.987 182.662 373.987 181.267 373.29Z" fill="#27273D"/>
<path opacity="0.5" d="M166.627 631.452C165.233 630.755 164.535 630.057 163.141 629.359C161.747 628.661 161.05 627.266 160.352 625.871C81.5707 498.882 55.0777 348.171 78.0848 201.646C78.0848 200.948 78.7819 199.553 78.7819 198.855C79.4791 198.157 79.4791 197.46 80.1763 197.46C80.1763 197.46 80.8735 197.46 81.5707 197.46C80.8735 196.762 80.1763 196.762 79.4791 196.762C78.7819 196.762 78.0848 196.762 78.0848 197.46C77.3876 197.46 77.3876 198.157 76.6904 198.855C75.9932 199.553 75.9932 200.251 75.9932 201.646C52.9862 348.171 79.4791 499.58 158.261 625.871C158.958 627.266 160.352 628.661 161.05 629.359C162.444 630.057 163.141 630.755 164.535 631.452C165.233 630.755 165.93 631.452 166.627 631.452Z" fill="#8162FF"/>
<path d="M488.028 524.699C488.725 524.699 489.422 525.396 490.12 526.094C490.817 526.792 490.817 527.49 491.514 527.49C491.514 528.187 491.514 528.885 491.514 529.583C491.514 530.281 490.817 530.978 490.817 531.676L302.577 768.209C301.88 768.907 301.183 769.605 300.486 770.302C299.789 771 298.394 771 297.697 771C297 771 295.606 771 294.908 771C294.211 771 292.817 770.302 292.12 769.605L140.831 649.594C140.134 649.594 139.437 648.896 139.437 648.198C139.437 647.5 139.437 646.803 139.437 646.105C139.437 645.407 139.437 644.71 140.134 644.012C140.831 643.314 140.831 642.616 141.528 641.919L330.465 459.111C331.162 458.414 331.162 458.414 331.859 457.716C332.556 457.716 333.253 457.018 333.951 457.018C334.648 457.018 335.345 457.018 336.042 457.018C336.739 457.018 337.437 457.018 338.134 457.716L488.028 524.699Z" fill="#FF1850"/>
<path d="M346.5 555.399C345.803 556.097 345.803 556.097 344.408 556.795C343.711 557.492 342.317 557.492 341.62 558.19C340.225 558.888 339.528 558.888 338.134 558.888C336.739 558.888 336.042 559.585 335.345 559.585C331.859 560.283 328.373 560.283 324.887 560.981C321.401 560.981 317.915 561.679 314.43 561.679C310.944 561.679 307.458 562.376 303.972 563.074C300.486 563.772 297 564.47 293.514 565.865C291.422 566.563 290.028 567.261 287.937 567.958C285.845 568.656 284.451 570.052 282.359 571.447C280.965 572.843 278.873 574.238 277.479 575.633C276.084 577.029 274.69 578.424 273.993 580.518C273.296 582.611 272.599 584.704 271.901 586.1C271.901 587.495 271.901 589.588 271.901 590.984C272.599 592.379 272.599 593.775 273.993 595.17C274.69 596.566 276.084 597.263 277.479 597.961C279.57 599.357 281.662 600.054 283.753 600.054C287.239 600.054 290.028 600.054 292.817 600.054C295.606 600.054 298.394 599.357 300.486 598.659C303.275 597.961 306.063 597.263 308.155 595.868C304.669 598.659 300.486 601.45 297 602.845C293.514 604.938 290.028 606.334 287.239 607.032C284.451 608.427 281.662 609.125 280.268 609.125C278.873 609.823 277.479 609.823 277.479 609.823L299.789 623.777C299.789 623.777 299.789 623.08 299.789 621.684C299.789 620.289 299.789 618.195 300.486 615.404C301.183 612.614 301.88 609.823 303.275 606.334C304.669 602.845 306.063 599.357 308.852 595.868C308.155 597.961 307.458 600.752 307.458 602.845C307.458 604.938 307.458 607.729 308.155 609.823C308.852 611.916 309.549 614.009 310.944 615.404C312.338 617.498 313.732 618.893 315.824 619.591C317.218 620.289 318.613 620.986 320.704 621.684C322.796 622.382 324.19 622.382 326.282 622.382C328.373 622.382 330.465 621.684 332.556 620.986C334.648 620.289 336.739 618.893 338.831 617.498C340.922 616.102 342.317 614.707 343.711 613.311C345.106 611.916 346.5 609.823 347.197 608.427C347.894 606.334 348.591 604.938 349.289 602.845C349.986 600.752 349.986 599.357 349.986 597.263C349.986 593.775 349.986 590.984 349.289 588.193C348.591 585.402 347.894 582.611 347.197 579.82C346.5 577.029 345.803 574.238 345.106 571.447C344.408 568.656 343.711 565.865 343.014 563.074C343.014 562.376 343.014 561.679 343.014 560.981C343.014 560.283 343.014 558.888 343.014 558.19C343.014 557.492 343.014 556.097 343.711 555.399C345.803 556.795 345.803 556.097 346.5 555.399Z" fill="#27273D"/>
<path d="M331.162 479.346L339.528 475.159L336.042 482.137L331.162 479.346ZM347.197 472.368L345.105 471.671L323.493 482.834L322.098 482.137L321.401 482.834L325.584 484.928L326.281 484.23L324.19 483.532L331.162 480.043L336.739 482.834L333.95 488.416L331.859 487.719L331.162 488.416L340.225 492.603L340.922 491.905L339.528 491.207L347.197 472.368Z" fill="#27273D"/>
<path d="M326.979 490.51C326.282 491.207 325.585 491.207 325.585 491.207C324.888 491.207 324.888 491.207 324.19 491.207C323.493 491.207 323.493 491.207 323.493 491.207C322.099 491.207 321.402 491.207 320.007 491.905C318.613 491.905 317.916 491.905 316.521 492.603C315.127 493.3 314.43 492.603 313.036 493.3C311.641 493.3 310.944 493.998 309.55 493.998C308.852 493.998 308.155 494.696 307.458 494.696C306.761 494.696 306.064 495.394 305.367 495.394C304.669 496.091 303.972 496.091 303.972 496.789C303.275 497.487 303.275 497.487 302.578 498.185C302.578 498.882 301.881 499.58 301.881 499.58C301.881 500.278 301.881 500.278 301.881 500.976C301.881 501.673 302.578 501.673 302.578 502.371C302.578 502.371 303.275 503.069 303.972 503.069C304.669 503.069 305.367 503.766 306.064 503.766C306.761 503.766 307.458 503.766 308.852 503.766C309.55 503.766 310.944 503.766 311.641 503.069C312.338 503.069 313.036 502.371 314.43 502.371C313.036 503.069 312.338 503.767 310.944 504.464C309.55 505.162 308.852 505.162 307.458 505.86C306.761 505.86 306.064 506.557 305.367 506.557C304.669 506.557 304.669 506.557 304.669 506.557L312.338 510.046C312.338 510.046 312.338 510.046 312.338 509.348C312.338 508.651 312.338 508.651 312.338 507.255C312.338 506.557 313.036 505.86 313.036 504.464C313.733 503.767 313.733 502.371 315.127 501.673C315.127 502.371 314.43 503.069 314.43 503.766C314.43 504.464 314.43 505.162 314.43 505.86C314.43 506.557 315.127 507.255 315.127 507.255C315.824 507.953 315.824 507.953 316.521 508.651C317.219 508.651 317.219 509.348 317.916 509.348C318.613 509.348 319.31 509.348 320.007 509.348C320.705 509.348 321.402 509.348 322.099 508.651C322.796 508.651 323.493 507.953 324.19 507.953C324.888 507.255 325.585 507.255 325.585 506.557C326.282 505.86 326.282 505.86 326.979 505.162C326.979 504.464 327.676 504.464 327.676 503.766C327.676 503.069 327.676 502.371 328.374 502.371C328.374 501.673 328.374 500.278 328.374 499.58C328.374 498.882 328.374 498.185 327.676 496.789C327.676 496.091 326.979 495.394 326.979 494.696C326.979 493.998 326.282 493.3 326.282 491.905V491.207V490.51C326.282 491.207 326.979 491.207 326.979 490.51Z" fill="#27273D"/>
<path d="M290.028 735.415L294.909 723.554L301.183 728.438L290.028 735.415ZM315.127 722.856L309.55 718.67L308.852 719.367L311.641 721.461L302.578 727.042L295.606 722.158L299.789 712.39L302.578 714.483L303.275 713.786L292.12 705.413L291.423 706.11L292.817 707.506L280.965 738.904L283.754 740.997L313.733 722.158L315.127 722.856Z" fill="#27273D"/>
<path d="M336.042 683.783L326.979 677.503V678.201C326.979 678.899 326.979 679.596 326.979 680.992C326.979 682.387 326.282 683.783 326.282 685.178C325.584 686.574 324.887 687.969 324.19 690.062C324.887 689.365 324.887 687.969 324.887 687.271C324.887 686.574 324.887 685.178 324.19 684.481C324.19 683.783 323.493 682.387 322.796 681.69C322.099 680.992 321.401 680.294 320.704 679.596C320.007 678.899 319.31 678.899 318.613 678.899C317.915 678.899 317.218 678.899 316.521 678.899C315.824 678.899 315.127 678.899 314.43 679.596C313.732 679.596 313.035 680.294 311.641 680.992C310.944 681.69 310.246 682.387 309.549 683.085C308.852 683.783 308.155 684.48 308.155 685.178C307.458 685.876 307.458 686.574 307.458 687.271C307.458 687.969 306.76 688.667 306.76 689.365C306.76 690.76 306.76 692.156 306.76 693.551C306.76 694.947 306.76 696.342 307.458 697.738C307.458 699.133 308.155 700.528 308.155 701.924C308.155 703.319 308.852 704.715 308.852 706.11C308.852 706.11 308.852 706.808 308.852 707.506C308.852 708.204 308.852 708.204 308.852 708.901C308.852 709.599 308.852 709.599 308.852 710.297C308.852 710.995 308.852 710.995 308.155 710.995L308.852 710.297C309.549 710.297 309.549 709.599 310.246 709.599C310.944 709.599 310.944 709.599 311.641 708.901C312.338 708.901 312.338 708.901 313.035 708.901C314.43 708.901 315.824 708.204 317.218 708.204C318.613 708.204 320.007 708.204 321.401 708.204C322.796 708.204 324.19 708.204 325.584 707.506C326.979 707.506 328.373 706.808 329.768 706.11C330.465 706.11 331.162 705.413 332.556 704.715C333.253 704.017 333.951 704.017 334.648 703.319C335.345 702.622 336.042 701.924 336.739 701.226C337.437 700.528 337.437 699.831 338.134 699.133C338.831 698.435 338.831 697.04 338.831 696.342C338.831 695.644 338.831 694.947 338.831 694.249C338.831 693.551 338.134 692.853 338.134 692.156C337.437 691.458 337.437 691.458 336.739 690.76C336.042 690.062 335.345 690.062 333.951 689.365C333.253 689.365 331.859 688.667 331.162 688.667C329.768 688.667 329.07 688.667 327.676 689.365C326.282 689.365 325.584 690.062 324.19 690.76C325.584 689.365 326.979 688.667 328.373 687.271C329.768 686.574 331.162 685.876 332.556 685.178C333.951 684.48 334.648 684.481 335.345 684.481C336.042 683.783 336.042 683.783 336.042 683.783Z" fill="#27273D"/>
<path d="M490.816 527.49C490.816 526.792 490.119 526.094 489.422 526.094C489.422 526.094 488.725 526.094 488.725 525.396C489.422 526.094 489.422 526.094 489.422 526.792C489.422 527.49 489.422 528.187 489.422 528.885C489.422 529.583 488.725 530.281 488.725 530.978L300.485 767.511C299.788 768.209 299.091 768.907 298.394 769.605C297.697 770.302 296.302 770.302 295.605 770.302C294.908 770.302 293.514 770.302 292.816 770.302C292.119 770.302 290.725 769.604 290.028 768.907L140.831 650.291L290.725 769.605C291.422 770.302 292.119 771 293.514 771C294.211 771 295.605 771 296.302 771C297 771 298.394 770.302 299.091 770.302C299.788 769.605 300.486 768.907 301.183 768.209L489.422 531.676C490.119 530.978 490.119 530.281 490.119 529.583C490.817 528.885 490.816 528.187 490.816 527.49Z" fill="black"/>
<path d="M492.211 265.838C492.909 266.536 493.606 266.536 493.606 267.234C494.303 267.931 494.303 268.629 494.303 269.327C494.303 270.024 495 270.722 495 271.42C495 272.118 495 272.815 495 272.815L408.55 507.953C408.55 508.651 407.852 509.348 407.155 510.046C406.458 510.744 405.761 511.442 405.064 511.442C404.366 511.442 403.669 512.139 402.972 511.442C402.275 511.442 401.578 510.744 400.881 510.744L208.458 393.524C207.761 392.826 207.064 392.129 206.366 391.431C205.669 390.733 205.669 390.035 204.972 388.64C204.972 387.942 204.972 386.547 204.972 385.849C204.972 385.151 205.669 383.756 206.366 383.058L350.683 163.968C350.683 163.271 351.381 163.271 352.078 162.573C352.775 162.573 353.472 162.573 353.472 162.573C353.472 162.573 354.866 162.573 355.564 163.271C356.261 163.271 356.958 163.968 357.655 164.666L492.211 265.838Z" fill="#8162FF"/>
<path d="M357.656 190.482L363.93 186.296L362.536 193.971L357.656 190.482ZM370.205 184.9L368.113 182.807L350.684 192.576L349.289 191.18V191.878L354.17 195.367V194.669L352.078 193.273L357.656 189.785L363.93 193.971L363.233 200.948L361.142 199.553V200.251L370.902 207.228V206.53L369.508 205.833L370.205 184.9Z" fill="#27273D"/>
<path d="M356.958 203.739C356.958 203.739 356.261 203.739 355.564 204.437C354.867 205.135 353.472 205.135 352.078 205.833C350.683 206.53 348.592 206.53 346.5 207.228C344.409 207.228 342.317 207.228 340.226 206.53C341.62 208.624 342.317 210.717 343.014 212.81C343.712 214.903 343.712 216.996 343.712 218.392C343.712 220.485 343.712 221.881 343.712 222.578C343.712 223.974 343.712 223.974 343.712 223.974C343.712 223.974 344.409 223.276 345.106 223.276C345.803 222.578 347.198 221.881 348.592 221.881C349.986 221.183 352.078 220.485 354.169 220.485C356.261 220.485 358.352 220.485 360.444 220.485C359.05 218.392 358.352 216.299 357.655 214.205C356.958 212.112 356.958 210.019 356.958 208.624C356.958 207.228 356.958 205.135 356.958 204.437C356.261 204.437 356.958 203.739 356.958 203.739Z" fill="#27273D"/>
<path d="M391.12 477.95L392.514 465.391L398.789 469.577L391.12 477.95ZM408.549 463.298L402.972 459.809V460.507L405.761 461.902L399.486 468.88L392.514 464.693L393.211 454.925L396 456.32V455.623L384.148 447.947V448.645L385.542 449.343L383.451 482.834L386.239 484.928L405.761 463.298L407.155 463.995L408.549 463.298Z" fill="#27273D"/>
<path d="M412.036 418.643C412.036 418.643 411.339 419.34 410.642 420.038C409.944 420.736 408.55 422.131 407.156 422.829C405.761 424.224 403.67 424.922 401.578 425.62C399.487 426.318 397.395 427.015 394.606 427.015C396.001 429.109 397.395 431.9 398.092 434.691C398.789 437.481 399.487 439.575 399.487 442.366C399.487 444.459 399.487 446.552 399.487 447.948C399.487 449.343 399.487 450.041 399.487 450.041C399.487 450.041 400.184 449.343 400.881 448.645C401.578 447.948 402.973 446.552 404.367 445.157C405.761 443.761 407.853 443.063 409.944 442.366C412.036 441.668 414.127 440.97 416.916 440.97C415.522 438.877 414.127 436.086 413.43 433.295C412.733 430.504 412.036 428.411 412.036 425.62C412.036 423.527 412.036 421.434 412.036 420.038C412.036 419.34 412.036 418.643 412.036 418.643Z" fill="#27273D"/>
<path d="M395.304 279.095C395.304 279.095 393.909 280.491 391.12 281.886C388.332 283.979 384.846 286.072 379.966 288.166C375.085 290.259 369.508 292.352 363.233 293.748C356.958 295.143 349.289 295.143 342.318 294.445C346.501 301.423 349.987 309.098 351.381 316.075C353.473 323.75 354.17 330.728 354.867 337.705C355.564 343.985 354.867 350.264 354.867 354.451C354.867 358.637 354.17 360.73 354.17 360.73C354.17 360.73 355.564 359.335 359.05 356.544C361.839 354.451 366.022 350.962 370.902 348.171C375.782 345.38 382.057 342.589 388.332 341.194C394.606 339.798 401.578 339.1 408.55 339.798C404.367 332.821 400.881 325.843 398.789 318.168C396.698 311.191 395.304 304.214 395.304 297.934C394.606 292.352 394.606 286.77 394.606 283.281C395.304 281.188 395.304 279.095 395.304 279.095Z" fill="#27273D"/>
<path d="M403.669 510.744C402.972 510.744 402.275 510.046 401.578 510.046L209.852 392.128C209.155 391.431 208.458 390.733 207.761 390.035C207.064 389.338 207.064 388.64 206.366 387.244C206.366 386.547 206.366 385.151 206.366 384.453C206.366 383.756 207.064 382.36 207.761 381.662L352.078 162.573C352.078 162.573 352.078 162.573 352.775 161.875C352.775 161.875 352.775 161.875 352.078 161.875C351.38 161.875 351.38 162.573 350.683 163.271L206.366 383.058C205.669 383.756 205.669 385.151 204.972 385.849C204.972 386.547 204.972 387.942 204.972 388.64C204.972 389.338 205.669 390.733 206.366 391.431C207.064 392.128 207.761 392.826 208.458 393.524L400.183 511.442C400.881 512.139 401.578 512.139 402.275 512.139C402.972 512.139 403.669 512.139 404.366 512.139C405.064 512.139 405.064 511.442 405.761 511.442C405.064 510.744 404.366 510.744 403.669 510.744Z" fill="black"/>
</svg>
