<svg width="30" height="29" viewBox="0 0 30 29" fill="none" xmlns="http://www.w3.org/2000/svg">
<path d="M7.53809 26.8347L10.5407 0L29.4224 2.11317L26.4198 28.9479L7.53809 26.8347Z" fill="#1A0D5F"/>
<path d="M23.6085 22.5931L21.8955 24.4138L23.1635 26.5685L24.8764 24.7478L23.6085 22.5931Z" fill="#B20D24"/>
<path d="M21.9581 14.8608L21.7251 14.5693C20.4273 12.9442 19.5256 11.0393 19.0916 9.00537C18.2182 10.8931 16.9172 12.5515 15.2917 13.8493L15.0002 14.0823L15.2332 14.3738C16.5308 15.9989 17.4324 17.9038 17.8667 19.9377C18.74 18.0499 20.041 16.3915 21.6666 15.0939L21.9581 14.8608Z" fill="#B20D24"/>
<path d="M0.422363 1.9978H19.4219V28.9999H0.422363V1.9978Z" fill="#452FB7"/>
<path d="M15.422 27L13.6721 25.2499C13.2581 24.8355 13.2581 24.1641 13.6721 23.7497C14.0864 23.3357 14.7577 23.3357 15.172 23.7497L15.422 23.9998L15.672 23.7497C16.0863 23.3357 16.7577 23.3357 17.172 23.7497C17.586 24.1641 17.586 24.8355 17.172 25.2499L15.422 27Z" fill="#EE2849"/>
<path d="M5.92237 14.3163V14.3698C5.92293 16.5935 7.17946 18.626 9.16828 19.6202L9.92226 19.9993L10.6722 19.6237C12.6629 18.6273 13.9207 16.5925 13.9222 14.3663V14.3123C13.922 13.7902 13.714 13.2897 13.3442 12.9212L13.3172 12.8942C12.547 12.1237 11.2981 12.1235 10.5277 12.8938C10.5276 12.8939 10.5274 12.8941 10.5272 12.8942L9.92226 13.4987L9.31728 12.8942C8.54642 12.1233 7.2967 12.1233 6.52585 12.8942L6.49835 12.9217C6.12874 13.2916 5.92149 13.7934 5.92237 14.3163Z" fill="#EE2849"/>
<path d="M4.42226 7.49816L2.67231 5.74802C2.25832 5.33368 2.25832 4.66225 2.67231 4.2479C3.08661 3.83387 3.75797 3.83387 4.17227 4.2479L4.42226 4.49792L4.67225 4.2479C5.08656 3.83387 5.75791 3.83387 6.17221 4.2479C6.5862 4.66225 6.5862 5.33368 6.17221 5.74802L4.42226 7.49816Z" fill="#EE2849"/>
</svg>
