<svg width="50" height="49" viewBox="0 0 50 49" fill="none" xmlns="http://www.w3.org/2000/svg">
<path d="M19.498 43.1257C18.6552 43.1257 17.9719 43.807 17.9719 44.6473C17.9719 45.4876 18.6552 46.1688 19.498 46.1688H19.499C20.3417 46.1688 21.0246 45.4876 21.0246 44.6473C21.0246 43.807 20.3408 43.1257 19.498 43.1257Z" fill="black"/>
<path d="M24.1527 19.8774C23.9559 19.3871 23.5792 19.0024 23.0921 18.7945C22.605 18.5865 22.0657 18.5802 21.5739 18.7766C21.0078 19.0026 20.5834 19.4679 20.4094 20.0532C20.2767 20.4993 19.9467 20.8604 19.5134 21.0334C19.0803 21.2063 18.5913 21.1721 18.1865 20.9405C17.8792 20.7645 17.5389 20.6755 17.1969 20.6755C16.9481 20.6755 16.6984 20.7227 16.4601 20.8179C15.9682 21.0143 15.5824 21.3899 15.3737 21.8755C15.1651 22.3612 15.1588 22.8987 15.3558 23.3892C16.7011 26.7393 20.6206 27.5629 22.2109 27.7608C23.221 26.5178 25.4891 23.205 24.1527 19.8774Z" fill="#FF1850"/>
<path d="M48.6485 8.48019L32.6959 6.64697L44.0242 34.8567C44.9626 37.1935 43.8192 39.8556 41.4756 40.7911L26.0842 46.9355L43.9668 48.99C44.0251 48.9967 44.0834 49 44.1417 49C44.4843 49 44.819 48.885 45.0901 48.6705C45.4072 48.4196 45.6114 48.0535 45.6577 47.6526L49.9898 10.1658C50.0863 9.33108 49.4858 8.57639 48.6485 8.48019Z" fill="#452FB7"/>
<path d="M41.1906 35.9879L27.1229 0.956042C26.9724 0.581472 26.6789 0.28168 26.3069 0.122874C25.9348 -0.0360281 25.5146 -0.0409938 25.1389 0.109048L0.959252 9.76199C0.17683 10.0744 -0.203541 10.96 0.10974 11.7401L14.1774 46.7721C14.3279 47.1468 14.6215 47.4464 14.9935 47.6052C15.1852 47.6871 15.3896 47.728 15.5941 47.728C15.7867 47.728 15.9794 47.6917 16.1616 47.6189L20.0346 46.072C20.0452 46.068 20.0557 46.064 20.0662 46.0598L40.3411 37.966C41.1236 37.6537 41.5039 36.768 41.1906 35.9879ZM23.934 30.4145C23.647 30.703 23.2567 30.8648 22.8505 30.8648C22.8362 30.8648 22.822 30.8646 22.8078 30.8642C22.4883 30.8553 14.9545 30.5769 12.5224 24.5206C11.4903 21.9504 12.7478 19.0221 15.3257 17.9931C16.25 17.6241 17.2398 17.5388 18.1865 17.7293C18.7396 16.94 19.515 16.3206 20.4394 15.9517C23.0175 14.9225 25.9544 16.1764 26.9864 18.7466C29.4184 24.8028 24.1591 30.1882 23.934 30.4145Z" fill="#A732EE"/>
</svg>
