<svg width="35" height="38" viewBox="0 0 35 38" fill="none" xmlns="http://www.w3.org/2000/svg">
<path d="M13.4978 18.8776L12.7215 23.0687L16.8627 21.0597C17.2639 20.8642 17.7369 20.8642 18.1381 21.0597L22.2604 23.0653L21.5044 18.8776C21.4195 18.4245 21.5798 17.9609 21.9293 17.6489L25.2004 14.6954L20.6301 14.0848C20.1761 14.024 19.7808 13.7536 19.5696 13.3595L17.5137 9.50224V9.49817L15.4347 13.3595C15.2234 13.7538 14.8277 14.0242 14.3735 14.0848L9.81299 14.6954L13.0771 17.6455C13.426 17.9591 13.5848 18.4242 13.4978 18.8776Z" fill="#5D698D"/>
<path d="M17.4997 29.8536C24.8451 29.8536 30.7997 24.082 30.7997 16.9623C30.7997 9.8426 24.8451 4.07095 17.4997 4.07095C10.1543 4.07095 4.19971 9.8426 4.19971 16.9623C4.20781 24.0787 10.1577 29.8457 17.4997 29.8536ZM8.46481 14.2931C8.62803 13.7898 9.07741 13.4238 9.61701 13.3547L14.1782 12.7407L16.2432 8.8801C16.4876 8.4265 16.9718 8.14213 17.4997 8.14213C18.0276 8.14213 18.5118 8.4265 18.7562 8.8801L20.8121 12.7373L25.3831 13.3547C25.9224 13.4241 26.3715 13.79 26.5346 14.2931C26.6995 14.7907 26.5503 15.3359 26.1524 15.6887L22.8806 18.6429L23.6597 22.8285C23.7541 23.3334 23.5443 23.8465 23.1186 24.1516C22.6885 24.4646 22.1122 24.5135 21.6325 24.2778L17.5116 22.2721L13.3697 24.2778C12.8898 24.5136 12.3133 24.4647 11.8829 24.1516C11.4573 23.8467 11.2475 23.3339 11.3418 22.8292L12.1181 18.6375L8.84561 15.6887C8.44857 15.3354 8.29989 14.7905 8.46481 14.2931Z" fill="#5D698D"/>
<path d="M17.5 33.9245C27.165 33.9245 35 26.3303 35 16.9623C35 7.59426 27.165 0 17.5 0C7.83502 0 0 7.59426 0 16.9623C0.0108016 26.3259 7.83949 33.9141 17.5 33.9245ZM17.5 2.71396C25.6186 2.71396 32.2 9.09314 32.2 16.9623C32.2 24.8314 25.6186 31.2106 17.5 31.2106C9.38141 31.2106 2.8 24.8314 2.8 16.9623C2.80926 9.09686 9.38525 2.72294 17.5 2.71396Z" fill="#5D698D"/>
<path d="M17.5004 35.2815C10.2104 35.2752 3.5724 31.2108 0.435059 24.8328C2.26442 32.5391 9.34193 38 17.5004 38C25.6588 38 32.7363 32.5391 34.5657 24.8328C31.4283 31.2108 24.7903 35.2752 17.5004 35.2815Z" fill="#5D698D"/>
</svg>
