<svg width="31" height="34" viewBox="0 0 31 34" fill="none" xmlns="http://www.w3.org/2000/svg">
<path d="M28.9773 18.6165H16.626V34H28.9773V18.6165Z" fill="#8162FF" fill-opacity="0.5"/>
<path d="M14.3738 18.6165H2.02246V34H14.3738V18.6165Z" fill="#8162FF" fill-opacity="0.5"/>
<path d="M25.1293 6.27087C25.4634 5.66824 25.6535 4.97768 25.6535 4.24409C25.6536 1.90387 23.7197 0 21.3428 0C19.5847 0 17.7858 0.894359 16.4076 2.45378C16.0665 2.83966 15.7627 3.25437 15.5 3.68628C15.2373 3.25437 14.9335 2.83966 14.5924 2.45378C13.2142 0.894359 11.4154 0 9.65722 0C7.28028 0 5.34642 1.90393 5.34642 4.24409C5.34642 4.97761 5.5365 5.66824 5.87064 6.27087H0V16.3991H14.3739V6.27087H16.6261V16.3991H31V6.27087H25.1293ZM9.65722 6.27087C8.52217 6.27087 7.59864 5.36164 7.59864 4.24409C7.59864 3.12654 8.52217 2.21737 9.65722 2.21737C11.7009 2.21737 13.6439 4.2755 14.2093 6.27081H9.65722V6.27087ZM21.3428 6.27087H16.7907C17.3561 4.2755 19.2991 2.21744 21.3428 2.21744C22.4778 2.21744 23.4014 3.12667 23.4014 4.24416C23.4013 5.36171 22.4778 6.27087 21.3428 6.27087Z" fill="#8162FF" fill-opacity="0.5"/>
</svg>
