<svg width="41" height="42" viewBox="0 0 41 42" fill="none" xmlns="http://www.w3.org/2000/svg">
<path d="M9.33951 31.8426C7.41815 27.9981 8.54067 23.5489 11.8496 21.8952L12.8473 21.3965C16.1563 19.7428 20.3885 21.5159 22.3099 25.3604C24.0927 28.9277 22.6345 33.2703 19.0526 35.0604C15.4708 36.8504 11.1221 35.4094 9.33951 31.8426Z" fill="#FF1850"/>
<path d="M24.048 28.8381C22.1266 24.9936 23.2492 20.5444 26.5581 18.8907L27.5558 18.392C30.8648 16.7383 35.097 18.5114 37.0184 22.3559C38.8012 25.9232 37.343 30.2658 33.7611 32.0558C30.1793 33.8459 25.8306 32.4049 24.048 28.8381Z" fill="#FF1850"/>
<path d="M30.542 20.6254C30.4602 20.6663 30.3667 20.6876 30.2688 20.6837C29.9618 20.6708 29.7233 20.4118 29.7375 20.1048C29.9571 15.2698 28.022 12.2586 22.1882 8.68922C24.133 14.5555 21.4371 21.4328 17.3584 23.4712C17.083 23.6089 16.7483 23.498 16.6112 23.2237C16.4742 22.9495 16.5864 22.6152 16.8618 22.4776C20.7794 20.5197 23.2975 13.1295 20.5421 7.61617C20.4329 7.39757 20.4802 7.13175 20.6587 6.96369C20.8369 6.79513 21.1051 6.76293 21.3182 6.88368C27.5753 10.4452 31.1411 13.7579 30.8509 20.1519C30.841 20.3605 30.7171 20.5379 30.542 20.6254Z" fill="#4C312C"/>
<path d="M20.7176 7.20412C23.4492 7.66505 26.1227 5.35969 26.5936 2.63316C23.8617 2.17173 21.1885 4.47759 20.7176 7.20412Z" fill="#27273D"/>
<path d="M13.4965 6.47786C15.095 8.73206 18.6133 8.98179 20.8783 7.37981C19.2792 5.12586 15.7609 4.87612 13.4965 6.47786Z" fill="#27273D"/>
</svg>
