<svg width="42" height="45" viewBox="0 0 42 45" fill="none" xmlns="http://www.w3.org/2000/svg">
<path d="M10.5 13.1836C12.5046 13.1836 14.2704 12.6339 15.7285 11.9325C14.2481 14.7303 13.3612 17.9688 13.1852 21.3087C7.26626 21.9469 2.625 26.9347 2.625 33.0469C2.625 39.5896 7.92388 45 14.4375 45C16.4442 45 18.3665 44.4321 20.0905 43.4822C17.4159 40.8485 15.75 37.0974 15.75 33.0469C15.75 28.9964 17.4159 25.3331 20.0905 22.6995C18.7629 21.9678 17.3165 21.4704 15.8061 21.2771C16.3769 11.9586 23.383 4.27231 32.4164 2.86983C30.1157 6.11423 28.875 9.98554 28.875 14.0501V21.3148C22.9848 21.9806 18.375 26.9553 18.375 33.0469C18.375 39.5896 23.6739 45 30.1875 45C36.7011 45 42 39.5896 42 33.0469C42 26.9553 37.3902 21.9806 31.5 21.3148V14.0501C31.5 9.59278 33.2278 5.40218 36.3655 2.25048L38.606 0H35.4375C29.2729 0 23.6858 2.52514 19.6434 6.59832C18.5821 5.57487 15.1792 2.63672 10.5 2.63672C4.96289 2.63672 1.17407 6.78097 0.990869 6.95744L0 7.91016L0.990869 8.86288C1.17407 9.03934 4.96289 13.1836 10.5 13.1836ZM30.1875 29.0918C28.0164 29.0918 26.25 30.8661 26.25 33.0469H23.625C23.625 29.4125 26.5692 26.4551 30.1875 26.4551V29.0918ZM14.4375 29.0918C12.2664 29.0918 10.5 30.8661 10.5 33.0469H7.875C7.875 29.4125 10.8192 26.4551 14.4375 26.4551V29.0918Z" fill="#452FB7"/>
</svg>
