<svg width="15" height="16" viewBox="0 0 15 16" fill="none" xmlns="http://www.w3.org/2000/svg">
<path d="M13.0012 1.81562C12.3725 1.17059 11.3562 1.17483 10.7326 1.82508L1.12974 11.838C0.506123 12.4882 0.510223 13.5394 1.13889 14.1845C1.76756 14.8295 2.78391 14.8252 3.40753 14.175L13.0104 4.16212C13.6345 3.51128 13.6299 2.46064 13.0012 1.81562Z" fill="white"/>
<path d="M1.61754 1.86529C0.993919 2.51554 0.998018 3.56677 1.62669 4.21179L11.3073 14.1442C11.936 14.7892 12.9523 14.785 13.5759 14.1347C14.1995 13.4845 14.1954 12.4333 13.5668 11.7882L3.88618 1.85582C3.25694 1.21022 2.24116 1.21504 1.61754 1.86529Z" fill="white"/>
</svg>
