<svg width="51" height="64" viewBox="0 0 51 64" fill="none" xmlns="http://www.w3.org/2000/svg">
<path d="M22.8621 53.0732C10.2361 53.0732 0 48.4496 0 43.7074V54.628C0.00703448 59.3671 10.2396 64.0001 22.8621 64.0001C35.4846 64.0001 45.7171 59.3671 45.7241 54.628V43.7074C45.7241 48.4496 35.4881 53.0732 22.8621 53.0732Z" fill="#08041D"/>
<path d="M28.1379 35.9025C15.5119 35.9025 5.27586 31.2789 5.27586 26.5367V37.4573C5.28289 42.1964 15.5154 46.8294 28.1379 46.8294C40.7604 46.8294 50.993 42.1964 51 37.4573V26.5367C51 31.2789 40.7639 35.9025 28.1379 35.9025Z" fill="#08041D"/>
<path d="M45.7241 8.0078C45.7241 12.7485 35.4881 17.1707 22.8621 17.1707C10.2361 17.1707 0 12.7485 0 8.0078C0 3.26556 10.2361 0 22.8621 0C35.4881 0 45.7241 3.26556 45.7241 8.0078Z" fill="#08041D"/>
<path d="M22.8621 17.1707C10.2361 17.1707 0 12.5471 0 7.80487V18.7255C0.00703448 23.4646 10.2396 28.0975 22.8621 28.0975C35.4846 28.0975 45.7171 23.4646 45.7241 18.7255V7.80487C45.7241 12.5471 35.4881 17.1707 22.8621 17.1707Z" fill="#452FB7"/>
<path d="M40.4483 13.61V24.5306C41.0866 24.2091 41.6723 23.8719 42.2069 23.5222V12.6032C41.6723 12.9529 41.0866 13.2885 40.4483 13.61Z" fill="#08041D"/>
<path d="M7.9138 14.7433V25.6655C8.47655 25.8731 9.06305 26.0698 9.67242 26.2555V15.3334C9.06305 15.1476 8.47655 14.951 7.9138 14.7433Z" fill="#08041D"/>
<path d="M31.6552 16.3933V27.317C32.2558 27.2062 32.8405 27.0844 33.4138 26.9549V16.0296C32.8405 16.1623 32.2558 16.284 31.6552 16.3933Z" fill="#08041D"/>
<path d="M16.7069 16.7945V27.7198C17.2846 27.7916 17.8702 27.8556 18.4655 27.9071V16.9803C17.8702 16.9287 17.2846 16.8663 16.7069 16.7945Z" fill="#08041D"/>
<path d="M8.7931 31.3349V42.2539C9.32772 42.6036 9.91334 42.9407 10.5517 43.2623V32.3417C9.91334 32.0202 9.32772 31.683 8.7931 31.3349Z" fill="#443A76"/>
<path d="M45.7241 32.3417V43.2623C46.3625 42.9407 46.9481 42.6036 47.4828 42.2539V31.3349C46.9481 31.6846 46.3625 32.0202 45.7241 32.3417Z" fill="#443A76"/>
<path d="M36.931 35.1235V46.0487C37.5316 45.9379 38.1163 45.8161 38.6897 45.6866V34.7629C38.1163 34.894 37.5316 35.0158 36.931 35.1235Z" fill="#443A76"/>
<path d="M21.9828 35.5262V46.4515C22.5605 46.5233 23.1461 46.5873 23.7414 46.6388V35.712C23.1461 35.6605 22.5605 35.598 21.9828 35.5262Z" fill="#443A76"/>
<path d="M7.9138 50.6458V61.568C8.47655 61.7756 9.06305 61.9722 9.67242 62.158V51.2359C9.06305 51.0501 8.47655 50.8534 7.9138 50.6458Z" fill="#443A76"/>
<path d="M36.0517 51.2359V62.1596C36.6611 61.9722 37.2476 61.7756 37.8103 61.568V50.6458C37.2476 50.8534 36.6611 51.0501 36.0517 51.2359Z" fill="#443A76"/>
<path d="M16.7069 52.6969V63.6222C17.2846 63.694 17.8702 63.758 18.4655 63.8095V52.8827C17.8702 52.8311 17.2846 52.7687 16.7069 52.6969Z" fill="#443A76"/>
<path d="M27.2586 52.8827V63.8095C27.8539 63.758 28.4395 63.694 29.0172 63.6222V52.6969C28.4395 52.7687 27.8539 52.8311 27.2586 52.8827Z" fill="#443A76"/>
<path d="M28.1379 46.8291C16.5196 46.8291 6.93248 42.9033 5.47459 38.5825C2.06374 39.9546 0 41.7825 0 43.9101C0 48.6508 10.2361 53.073 22.8621 53.073C35.4881 53.073 45.7241 48.6508 45.7241 43.9101C45.7241 43.701 45.6978 43.4965 45.6582 43.2935C41.4648 45.3884 35.1742 46.8291 28.1379 46.8291Z" fill="#2ACFD9"/>
<path d="M44.8387 21.1497C42.1031 24.9273 33.303 28.0976 22.8621 28.0976C16.1195 28.0976 10.0602 26.7739 5.87555 24.8196C5.48777 25.4284 5.27586 26.0683 5.27586 26.7396C5.27586 31.4818 15.5119 35.9025 28.1379 35.9025C40.7639 35.9025 51 31.4818 51 26.7396C51 24.473 48.6584 22.5452 44.8387 21.1497Z" fill="#A732EE"/>
</svg>
