<svg width="410" height="250" viewBox="40 100 400 250" fill="none" xmlns="http://www.w3.org/2000/svg">
<path d="M203.682 149.666L294.003 220.792L181.791 204.882L94.2836 134.5L203.682 149.666Z" fill="#FF1850"/>
<path d="M38.933 264.043L95.1211 134.671L182.027 204.582L116.936 339.128L38.933 264.043Z" fill="#08041D"/>
<path d="M182.027 204.581C216.089 210.022 291.843 220.948 293.938 220.255L228.237 347.528L116.936 339.127L182.027 204.581Z" fill="#A732EE"/>
<path d="M245.902 260.849C238.967 255.425 243.854 244.568 249.345 237.556C254.836 230.543 263.964 227.398 270.899 232.822C277.834 238.246 273.514 247.577 268.023 254.59C262.532 261.602 252.838 266.273 245.902 260.849Z" fill="#08041D"/>
<path d="M199.788 293.721C192.853 288.297 197.74 277.441 203.231 270.428C208.722 263.416 217.85 260.271 224.785 265.695C231.72 271.119 227.4 280.45 221.909 287.462C216.418 294.475 206.723 299.145 199.788 293.721Z" fill="#08041D"/>
<path d="M207.615 335.767C200.68 330.343 205.567 319.487 211.058 312.474C216.549 305.461 225.676 302.316 232.612 307.74C239.547 313.164 235.227 322.495 229.736 329.508C224.244 336.52 214.55 341.191 207.615 335.767Z" fill="#08041D"/>
<path d="M177.49 249.095C170.555 243.671 175.442 232.815 180.933 225.802C186.424 218.789 195.552 215.644 202.487 221.068C209.422 226.492 205.102 235.823 199.611 242.836C194.12 249.849 184.426 254.519 177.49 249.095Z" fill="#08041D"/>
<path d="M147.365 328.456C140.43 323.032 145.317 312.175 150.808 305.163C156.299 298.15 165.426 295.005 172.362 300.429C179.297 305.853 174.977 315.184 169.486 322.197C163.994 329.209 154.3 333.88 147.365 328.456Z" fill="#08041D"/>
<path d="M423.555 187.528L437.029 301.739L369.043 211.149L357.029 99.4531L423.555 187.528Z" fill="#FF1850"/>
<path d="M226.319 152.047L357.501 100.165L369.422 211.102L228.295 260.354L226.319 152.047Z" fill="#08041D"/>
<path d="M369.422 211.102C389.627 239.034 435.394 300.322 437.362 301.313L300.949 344.983L228.295 260.354L369.422 211.102Z" fill="#A732EE"/>
<path d="M374.731 296.098C373.67 287.355 384.799 283.123 393.637 282.039C402.474 280.956 411.144 285.181 412.205 293.925C413.266 302.668 403.616 306.221 394.778 307.304C385.941 308.388 375.792 304.841 374.731 296.098Z" fill="#08041D"/>
<path d="M318.917 286.775C317.856 278.031 328.986 273.799 337.823 272.716C346.661 271.632 355.331 275.858 356.392 284.601C357.453 293.344 347.802 296.897 338.965 297.981C330.127 299.064 319.978 295.518 318.917 286.775Z" fill="#08041D"/>
<path d="M294.704 322.077C293.644 313.333 304.773 309.101 313.611 308.018C322.448 306.934 331.118 311.16 332.179 319.903C333.24 328.646 323.59 332.199 314.752 333.283C305.915 334.366 295.765 330.82 294.704 322.077Z" fill="#08041D"/>
<path d="M334.734 239.414C333.673 230.67 344.803 226.438 353.64 225.355C362.478 224.271 371.148 228.497 372.209 237.24C373.27 245.983 363.619 249.536 354.782 250.62C345.944 251.703 335.795 248.157 334.734 239.414Z" fill="#08041D"/>
<path d="M309.094 139.867C309.092 125.689 322.804 120.798 333.368 120.559C343.931 120.321 353.54 128.555 353.542 142.733C353.545 156.911 341.672 160.965 331.108 161.203C320.545 161.441 309.097 154.045 309.094 139.867Z" fill="#A732EE"/>
<path d="M268.867 176.373C268.865 162.195 282.577 157.303 293.14 157.065C303.704 156.827 313.313 165.061 313.315 179.238C313.318 193.416 301.444 197.471 290.881 197.709C280.317 197.947 268.87 190.551 268.867 176.373Z" fill="#A732EE"/>
<path d="M235.86 218.525C235.858 204.347 249.57 199.456 260.133 199.218C270.697 198.979 280.306 207.213 280.308 221.391C280.311 235.569 268.438 239.623 257.874 239.861C247.311 240.1 235.863 232.703 235.86 218.525Z" fill="#A732EE"/>
<path d="M257.331 274.309C256.27 265.566 267.399 261.334 276.237 260.251C285.074 259.167 293.744 263.393 294.805 272.136C295.866 280.879 286.216 284.432 277.378 285.515C268.541 286.599 258.392 283.053 257.331 274.309Z" fill="#08041D"/>
</svg>
