<svg width="51" height="49" viewBox="0 0 51 49" fill="none" xmlns="http://www.w3.org/2000/svg">
<path d="M30.0014 39.6257L18.7978 46.9882C17.8814 47.5903 16.6451 47.3289 16.0366 46.4029L8.60235 35.0901C7.9943 34.1648 8.24373 32.926 9.16077 32.3234L20.3644 24.9609C21.2807 24.3587 22.517 24.6202 23.1255 25.5461L30.5598 36.859C31.1678 37.7842 30.9184 39.023 30.0014 39.6257Z" fill="#FFD146"/>
<path d="M14.1712 36.0301C14.9351 35.5281 15.1434 34.4958 14.6365 33.7245C14.1296 32.9532 13.0994 32.7348 12.3356 33.2368C11.5717 33.7388 11.3633 34.7711 11.8702 35.5424C12.3771 36.3137 13.4073 36.5321 14.1712 36.0301Z" fill="#452FB7"/>
<path d="M21.7786 31.0308C22.5425 30.5288 22.7508 29.4966 22.2439 28.7252C21.737 27.9539 20.7069 27.7355 19.943 28.2375C19.1791 28.7395 18.9707 29.7718 19.4776 30.5431C19.9845 31.3145 21.0147 31.5328 21.7786 31.0308Z" fill="#452FB7"/>
<path d="M19.219 43.7116C19.9829 43.2096 20.1913 42.1774 19.6844 41.406C19.1775 40.6347 18.1473 40.4163 17.3834 40.9183C16.6195 41.4203 16.4112 42.4526 16.9181 43.2239C17.4249 43.9953 18.4551 44.2136 19.219 43.7116Z" fill="#452FB7"/>
<path d="M26.8264 38.7124C27.5903 38.2104 27.7987 37.1782 27.2918 36.4068C26.7849 35.6355 25.7547 35.4171 24.9908 35.9191C24.2269 36.4211 24.0186 37.4534 24.5255 38.2247C25.0324 38.9961 26.0625 39.2144 26.8264 38.7124Z" fill="#452FB7"/>
<path d="M41.4829 14.7033L33.347 25.3763C32.6813 26.2498 31.4314 26.4092 30.5558 25.7338L19.8509 17.4711C18.9749 16.7949 18.8049 15.5388 19.47 14.6658L27.6059 3.9928C28.2716 3.11933 29.5215 2.9599 30.3971 3.63535L41.102 11.898C41.978 12.5742 42.148 13.8303 41.4829 14.7033Z" fill="#FFD146"/>
<path d="M24.9971 16.9C25.761 16.398 25.9693 15.3657 25.4624 14.5944C24.9556 13.823 23.9254 13.6047 23.1615 14.1067C22.3976 14.6087 22.1892 15.6409 22.6961 16.4123C23.203 17.1836 24.2332 17.402 24.9971 16.9Z" fill="#452FB7"/>
<path d="M30.522 9.65253C31.2859 9.15053 31.4942 8.11828 30.9874 7.34694C30.4805 6.57559 29.4503 6.35724 28.6864 6.85924C27.9225 7.36124 27.7141 8.39349 28.221 9.16483C28.7279 9.93618 29.7581 10.1545 30.522 9.65253Z" fill="#452FB7"/>
<path d="M32.2669 22.5106C33.0308 22.0086 33.2391 20.9763 32.7322 20.205C32.2253 19.4336 31.1952 19.2153 30.4313 19.7173C29.6674 20.2193 29.459 21.2515 29.9659 22.0229C30.4728 22.7942 31.503 23.0126 32.2669 22.5106Z" fill="#452FB7"/>
<path d="M20.6516 37.6038C21.4155 37.1018 21.6239 36.0695 21.117 35.2982C20.6101 34.5268 19.5799 34.3085 18.816 34.8105C18.0521 35.3125 17.8438 36.3447 18.3507 37.1161C18.8576 37.8874 19.8877 38.1058 20.6516 37.6038Z" fill="#452FB7"/>
<path d="M37.7906 15.2629C38.5545 14.7609 38.7628 13.7287 38.2559 12.9574C37.749 12.186 36.7188 11.9677 35.9549 12.4697C35.191 12.9717 34.9827 14.0039 35.4896 14.7752C35.9965 15.5466 37.0267 15.7649 37.7906 15.2629Z" fill="#452FB7"/>
</svg>
