<svg width="9" height="15" viewBox="0 0 9 15" fill="none" xmlns="http://www.w3.org/2000/svg">
<mask id="mask0" mask-type="alpha" maskUnits="userSpaceOnUse" x="0" y="0" width="9" height="16">
<path fill-rule="evenodd" clip-rule="evenodd" d="M1.84159 0.299303L8.70979 6.82591C9.09674 7.19306 9.09674 7.80599 8.70979 8.17466L1.84159 14.6998C1.42037 15.1001 0.755411 15.1001 0.334193 14.6998C-0.111398 14.2761 -0.111398 13.5704 0.334193 13.1459L6.08652 7.68009C6.19087 7.58133 6.19087 7.41773 6.08652 7.31897L0.334193 1.85311C-0.111398 1.42942 -0.111398 0.723755 0.334193 0.299303C0.545183 0.10027 0.816347 0 1.08751 0C1.35944 0 1.6306 0.10027 1.84159 0.299303Z" fill="white"/>
</mask>
<g mask="url(#mask0)">
<path fill-rule="evenodd" clip-rule="evenodd" d="M1.84159 0.299303L8.70979 6.82591C9.09674 7.19306 9.09674 7.80599 8.70979 8.17466L1.84159 14.6998C1.42037 15.1001 0.755411 15.1001 0.334193 14.6998C-0.111398 14.2761 -0.111398 13.5704 0.334193 13.1459L6.08652 7.68009C6.19087 7.58133 6.19087 7.41773 6.08652 7.31897L0.334193 1.85311C-0.111398 1.42942 -0.111398 0.723755 0.334193 0.299303C0.545183 0.10027 0.816347 0 1.08751 0C1.35944 0 1.6306 0.10027 1.84159 0.299303Z" fill="#8F8F8F"/>
</g>
</svg>
