<svg width="9" height="15" viewBox="0 0 9 15" fill="none" xmlns="http://www.w3.org/2000/svg">
<mask id="mask0" mask-type="alpha" maskUnits="userSpaceOnUse" x="0" y="0" width="9" height="16">
<path fill-rule="evenodd" clip-rule="evenodd" d="M7.15841 0.299303L0.290206 6.82591C-0.0967353 7.19306 -0.0967353 7.80599 0.290206 8.17466L7.15841 14.6998C7.57963 15.1001 8.24459 15.1001 8.66581 14.6998C9.1114 14.2761 9.1114 13.5704 8.66581 13.1459L2.91348 7.68009C2.80913 7.58133 2.80913 7.41773 2.91348 7.31897L8.66581 1.85311C9.1114 1.42942 9.1114 0.723755 8.66581 0.299303C8.45482 0.10027 8.18365 0 7.91249 0C7.64056 0 7.3694 0.10027 7.15841 0.299303Z" fill="white"/>
</mask>
<g mask="url(#mask0)">
<path fill-rule="evenodd" clip-rule="evenodd" d="M7.15841 0.299303L0.290206 6.82591C-0.0967353 7.19306 -0.0967353 7.80599 0.290206 8.17466L7.15841 14.6998C7.57963 15.1001 8.24459 15.1001 8.66581 14.6998C9.1114 14.2761 9.1114 13.5704 8.66581 13.1459L2.91348 7.68009C2.80913 7.58133 2.80913 7.41773 2.91348 7.31897L8.66581 1.85311C9.1114 1.42942 9.1114 0.723755 8.66581 0.299303C8.45482 0.10027 8.18365 0 7.91249 0C7.64056 0 7.3694 0.10027 7.15841 0.299303Z" fill="#8F8F8F"/>
</g>
</svg>
