<svg width="31" height="30" viewBox="0 0 31 30" fill="none" xmlns="http://www.w3.org/2000/svg">
<path d="M15.4224 0C7.15117 0 0.422363 6.72918 0.422363 15C0.422363 23.2708 7.15117 30 15.4224 30C23.6936 30 30.4224 23.2708 30.4224 15C30.4224 6.72918 23.6939 0 15.4224 0Z" fill="#8162FF"/>
<path d="M25.1276 16.0693C25.1298 16.0759 25.1581 16.6576 24.8989 17.3543L26.7775 18.3517C27.6902 17.1002 27.2407 15.7946 27.2318 15.7666L25.1276 16.0693Z" fill="#27273D"/>
<path d="M11.5512 23.6913L11.4823 23.6508L10.0769 25.4527L10.131 25.5094C10.9212 26.3301 11.8638 26.4527 12.3549 26.4527C12.4695 26.4527 12.5821 26.4454 12.6745 26.4332L12.7519 26.424L12.8218 24.2211L12.8222 24.136L12.7371 24.1283C12.7327 24.1265 12.1719 24.0547 11.5512 23.6913ZM12.5762 26.2613C12.5088 26.2679 12.4326 26.2697 12.3557 26.2697C11.9046 26.2697 11.0493 26.1604 10.3177 25.4384L11.5287 23.8864C12.0195 24.1603 12.4544 24.2612 12.6385 24.2936L12.5762 26.2613Z" fill="#27273D"/>
<path d="M7.5139 9.46482L6.09008 7.88525C4.80434 8.74941 4.78041 10.1302 4.77856 10.1589L6.85925 10.5952C6.86035 10.5878 7.03193 10.0307 7.5139 9.46482Z" fill="#27273D"/>
<path d="M22.2245 8.07527L22.275 8.13713L24.2117 6.92465L24.18 6.85285C23.5644 5.46291 22.2551 5.14699 22.106 5.11496L22.0301 5.09766L21.2105 7.14336L21.1553 7.23578L21.258 7.25971C21.2628 7.26192 21.7661 7.52224 22.2245 8.07527ZM22.1413 5.31047C22.437 5.38927 23.4495 5.73316 23.9816 6.85543L22.3125 7.89927C21.9572 7.48763 21.5805 7.23578 21.4093 7.13673L22.1413 5.31047Z" fill="#27273D"/>
<path d="M21.1526 22.825L21.9505 24.7963C23.4538 24.4237 23.949 23.1339 23.9601 23.1077L22.1541 21.9866C22.1511 21.9932 21.7988 22.4575 21.1526 22.825Z" fill="#27273D"/>
<path d="M7.56842 20.2546L7.48337 20.1964C7.47969 20.192 7.09897 19.7851 6.85412 19.0988L6.82761 19.024L4.59302 19.5012L4.59854 19.5797C4.70164 21.0963 5.82353 21.8408 5.95351 21.9218L6.01868 21.9637L7.48816 20.3219L7.56842 20.2546ZM5.98738 21.7266C5.73553 21.5506 4.9023 20.8816 4.78632 19.6456L6.71126 19.2347C6.90603 19.7479 7.17298 20.1117 7.29927 20.2612L5.98738 21.7266Z" fill="#27273D"/>
<path d="M12.9059 5.60592L12.8301 3.48068C11.2903 3.31646 10.3838 4.35846 10.3643 4.37982L11.678 6.05033C11.6828 6.04554 12.1725 5.73 12.9059 5.60592Z" fill="#27273D"/>
<path d="M26.8797 11.6527L26.8325 11.5912L24.8906 12.6313L24.7964 12.6674L24.8516 12.7506C24.8538 12.7558 25.0725 13.2716 25.0674 13.9974L25.067 14.0773L27.33 14.3935L27.3524 14.3181C27.7744 12.8537 26.9732 11.7727 26.8797 11.6527ZM27.1981 14.1918L25.2485 13.9189C25.2408 13.3722 25.1149 12.9373 25.0471 12.7536L26.7806 11.8254C26.9581 12.0761 27.5126 12.9878 27.1981 14.1918Z" fill="#27273D"/>
<path d="M14.7657 24.6069L14.1096 26.6298C15.5003 27.3113 16.7087 26.6412 16.7345 26.6283L16.0717 24.6088C16.0659 24.6117 15.497 24.741 14.7657 24.6069Z" fill="#27273D"/>
<path d="M3.72554 14.219L5.90748 13.9056L6.01058 13.9053L5.98443 13.807C5.98443 13.8011 5.95461 13.2433 6.20793 12.561L6.23554 12.487L4.21782 11.4155L4.17143 11.4796C3.27781 12.705 3.65669 13.9977 3.70345 14.1442L3.72554 14.219ZM4.27232 11.6508L6.01094 12.5731C5.83237 13.0879 5.80218 13.5411 5.80218 13.7374L3.85515 14.0168C3.77562 13.7212 3.56795 12.6711 4.27232 11.6508Z" fill="#27273D"/>
<path d="M18.3579 3.54247L18.2898 5.66734C18.2972 5.6666 18.8752 5.7395 19.5166 6.11617L20.8248 4.43903C19.7515 3.32266 18.3874 3.53879 18.3579 3.54247Z" fill="#27273D"/>
<path d="M24.0827 19.165L24.075 19.2674C24.0735 19.2729 23.9119 19.8061 23.4391 20.3617L23.3872 20.4221L24.9174 22.1191L24.983 22.0749C26.2415 21.2288 26.3284 19.8841 26.3343 19.7317L26.339 19.654L24.1814 19.2015L24.0827 19.165ZM26.1483 19.7987C26.1214 20.1032 25.9565 21.161 24.9465 21.8787L23.6284 20.4169C23.9741 19.9916 24.1556 19.5789 24.2226 19.3948L26.1483 19.7987Z" fill="#27273D"/>
<path d="M8.7286 21.8661L6.92554 22.9946C7.55295 24.4103 8.90865 24.6743 8.937 24.6806L9.72715 22.7074C9.72052 22.7056 9.20173 22.4397 8.7286 21.8661Z" fill="#27273D"/>
<path d="M9.04967 5.00022C7.57909 5.36473 7.03637 6.5993 6.97893 6.74069L6.94727 6.81286L8.82065 7.97526L8.90129 8.04411L8.94363 7.94911C8.94658 7.94506 9.29121 7.49402 9.91494 7.13945L9.98416 7.10079L9.12626 4.98218L9.04967 5.00022ZM8.84753 7.77864L7.17665 6.74143C7.30626 6.4638 7.82321 5.52564 9.01727 5.19647L9.75624 7.02162C9.28348 7.30366 8.97309 7.62841 8.84753 7.77864Z" fill="#27273D"/>
<path d="M24.2533 10.7554L26.3329 10.3113C26.2275 8.76711 25.0442 8.05575 25.0195 8.03918L23.6016 9.62391C23.6075 9.62722 24.0036 10.0547 24.2533 10.7554Z" fill="#27273D"/>
<path d="M19.3632 23.6854L19.2907 23.7602C19.2862 23.7635 18.8094 24.0691 18.1014 24.1891L18.0229 24.2024L18.1051 26.4856L18.1835 26.494C18.2958 26.5058 18.4085 26.5128 18.52 26.5128C19.8024 26.5128 20.5805 25.7263 20.7244 25.5677L20.7785 25.5109L19.4162 23.7775L19.3632 23.6854ZM18.5189 26.3313C18.4401 26.3313 18.3599 26.3276 18.2803 26.3221L18.21 24.3544C18.7501 24.2513 19.1533 24.0521 19.3223 23.9531L20.5381 25.4999C20.3367 25.7006 19.6176 26.3313 18.5189 26.3313Z" fill="#27273D"/>
<path d="M5.86443 15.8867L3.75761 15.5922C3.32902 17.08 4.1976 18.153 4.21528 18.1773L6.08977 17.1728C6.08498 17.1673 5.85891 16.6305 5.86443 15.8867Z" fill="#27273D"/>
<path d="M14.8819 5.40878L14.975 5.36312C14.9772 5.36276 15.211 5.30826 15.5822 5.30826C15.8042 5.30826 16.0251 5.32778 16.2398 5.36717L16.3182 5.38153L17.0229 3.2077L16.9522 3.17272C16.5262 2.96469 16.0752 2.85828 15.6105 2.85828C14.8844 2.85828 14.3491 3.12154 14.2471 3.17456L14.1768 3.20991L14.8642 5.30458L14.8819 5.40878ZM15.6102 3.04017C16.0214 3.04017 16.4213 3.12853 16.8009 3.30195L16.1945 5.17571C15.9934 5.14294 15.788 5.126 15.5822 5.126C15.3347 5.126 15.1282 5.15141 15.0115 5.17166L14.3977 3.30269C14.574 3.21985 15.0247 3.04017 15.6102 3.04017Z" fill="#27273D"/>
<path d="M16.2609 19.686L16.0673 17.5884C17.0948 17.2685 17.8367 16.3491 17.9347 15.2694L20.0812 15.064C20.3345 15.6847 20.969 16.0925 21.6691 16.0251C22.5269 15.9431 23.1588 15.1771 23.0794 14.3155C22.9997 13.4527 22.2399 12.8208 21.3809 12.9025C20.7153 12.9666 20.1885 13.4403 20.021 14.0516L17.8388 14.2606C17.5363 13.2304 16.645 12.4802 15.585 12.3611L15.3974 10.3322C15.9644 10.0523 16.3302 9.4448 16.2687 8.77646C16.1895 7.91433 15.4285 7.28216 14.5708 7.36362C13.7122 7.4466 13.081 8.21218 13.1604 9.07376C13.2246 9.77659 13.742 10.3266 14.3961 10.4616L14.5788 12.4424C13.5133 12.7345 12.7325 13.6603 12.6213 14.7608L10.7093 14.9428C10.4326 14.3747 9.82789 14.0079 9.16258 14.0732C8.30475 14.1552 7.67323 14.9201 7.75288 15.7829C7.83212 16.6451 8.59254 17.2771 9.45106 17.1947C10.1504 17.1277 10.6998 16.6066 10.8354 15.9489L12.7102 15.7695C13.0133 16.842 13.9545 17.6154 15.0642 17.7002L15.2533 19.748C14.6349 20.0041 14.2276 20.6433 14.2925 21.3458C14.3721 22.2086 15.1327 22.8401 15.9912 22.7576C16.849 22.6756 17.4811 21.9109 17.4009 21.0479C17.3401 20.3815 16.8694 19.8534 16.2609 19.686Z" fill="#27273D"/>
</svg>
