<svg width="21" height="34" viewBox="0 0 21 34" fill="none" xmlns="http://www.w3.org/2000/svg">
<path d="M20.4224 10.3075C20.4224 14.7964 17.6383 18.6157 13.7525 20.0294C12.7107 20.4085 11.5899 21.7889 10.4224 21.7889C9.31407 21.7889 8.2477 20.4288 7.25144 20.0858C3.28296 18.7193 0.422363 14.8576 0.422363 10.3075C0.422363 4.61481 4.89945 0 10.4224 0C15.9453 0 20.4224 4.61481 20.4224 10.3075Z" fill="#FF1850"/>
<path d="M9.64136 23.545L11.3203 22.6334" stroke="black" stroke-width="2" stroke-miterlimit="10" stroke-linecap="round" stroke-linejoin="round"/>
<path d="M11.4545 23.5155L9.56152 24.6311C9.56152 24.6311 11.4545 23.7283 11.4005 26.2862C11.3465 28.8441 8.42543 28.6305 11.4545 33" stroke="#452FB7" stroke-miterlimit="10" stroke-linecap="round" stroke-linejoin="round"/>
</svg>
