<svg width="41" height="49" viewBox="0 0 41 49" fill="none" xmlns="http://www.w3.org/2000/svg">
<path d="M12.0447 24.6735C18.6953 24.6735 24.0895 19.1508 24.0895 12.3419C24.0895 5.53292 18.6953 0 12.0447 0C5.39421 0 0 5.52271 0 12.3317C0 19.1406 5.39421 24.6735 12.0447 24.6735ZM7.83706 17.2112C7.94674 16.8029 8.05642 16.4048 8.17607 15.9965C8.31566 15.5269 8.44528 15.4758 8.86406 15.7004C9.58196 16.0781 10.3397 16.2925 11.1374 16.3946C11.6459 16.4558 12.1544 16.4048 12.6231 16.1904C13.5105 15.7923 13.65 14.7408 12.9022 14.1079C12.643 13.8935 12.3538 13.7302 12.0547 13.5975C11.277 13.2504 10.4694 12.985 9.73152 12.5358C8.54499 11.811 7.78721 10.8004 7.87695 9.32021C7.97665 7.64604 8.90394 6.59458 10.3996 6.04333C11.0178 5.80854 11.0178 5.81875 11.0277 5.15521C11.0277 4.93062 11.0277 4.70604 11.0277 4.48146C11.0377 3.98125 11.1274 3.89958 11.606 3.87917C11.7556 3.87917 11.9052 3.87917 12.0547 3.87917C13.0917 3.87917 13.0917 3.87917 13.0917 4.94083C13.0917 5.68604 13.0917 5.69625 13.8196 5.80854C14.3779 5.90042 14.9064 6.06375 15.4249 6.29854C15.714 6.43125 15.8137 6.63542 15.7339 6.94167C15.6043 7.40104 15.4847 7.86042 15.3351 8.30958C15.1955 8.73833 15.0659 8.79958 14.6671 8.60562C13.8594 8.2075 13.0119 8.03396 12.1145 8.085C11.8752 8.09521 11.6559 8.12583 11.4365 8.22792C10.6688 8.575 10.5392 9.44271 11.1972 9.98375C11.5263 10.2594 11.9052 10.4533 12.304 10.6167C12.982 10.9025 13.67 11.1883 14.3281 11.5558C16.392 12.7298 16.9504 15.384 15.4946 17.1908C14.9662 17.8442 14.2882 18.2831 13.4805 18.5077C13.1316 18.6098 12.972 18.7935 12.992 19.161C13.0119 19.5285 12.992 19.8858 12.992 20.2533C12.992 20.58 12.8324 20.7535 12.5134 20.7637C12.1345 20.774 11.7456 20.774 11.3667 20.7637C11.0277 20.7535 10.8682 20.5596 10.8682 20.2227C10.8682 19.9573 10.8682 19.6919 10.8582 19.4265C10.8483 18.8446 10.8383 18.814 10.2799 18.7221C9.57199 18.6098 8.884 18.4465 8.2359 18.1198C7.74732 17.885 7.69747 17.7523 7.83706 17.2112Z" fill="#452FB7"/>
<path d="M39.0657 25.7046H37.6598C36.7325 22.7952 34.9178 20.2125 32.4949 18.2116C32.4949 18.1198 32.4749 18.0177 32.455 17.9258C31.9465 16.0985 32.5747 14.4346 33.3025 13.2402C33.811 12.4031 33.153 11.3312 32.1958 11.4537C30.052 11.7293 28.5764 12.5358 27.5593 13.4443C26.8614 14.0671 26.3628 14.9041 26.1435 15.8331C24.608 22.346 18.8748 27.195 12.0447 27.195C8.72446 27.195 5.67339 26.0516 3.23054 24.1325C2.38302 26.0108 1.92436 28.0627 1.92436 30.2166C1.92436 31.3804 2.06395 32.5135 2.32319 33.6058C2.32319 33.6058 2.32319 33.6262 2.33317 33.6568C2.60238 34.79 3.01118 35.8823 3.52966 36.9133C4.21765 38.4343 5.21473 40.2106 6.5907 41.65C8.5749 43.7427 8.91391 46.3356 8.96376 47.4585V47.9383C8.96376 47.9587 8.96376 47.9791 8.96376 47.9996C8.96376 48.0098 8.96376 48.0098 8.96376 48.0098C9.00364 48.561 9.45233 49 10.0007 49H16.3023C16.8706 49 17.3392 48.5304 17.3392 47.9383V46.3458C18.2566 46.4683 19.1938 46.5398 20.141 46.5398C20.8889 46.5398 21.6167 46.4989 22.3446 46.4173V47.9383C22.3446 48.5202 22.8033 49 23.3816 49H29.7031C30.2714 49 30.74 48.5304 30.74 47.9383V46.3458C30.75 45.815 30.9295 43.7018 32.8838 41.895C32.9535 41.8337 33.0233 41.7725 33.0931 41.7112C33.1131 41.6908 33.133 41.6806 33.153 41.6602C35.3266 39.6798 36.9319 37.2093 37.7595 34.4531H39.0856C40.1425 34.4531 41 33.5752 41 32.4931V27.6646C40.9801 26.5825 40.1226 25.7046 39.0657 25.7046ZM31.1787 26.0516C30.3113 26.0516 29.6133 25.3371 29.6133 24.4489C29.6133 23.5608 30.3113 22.8462 31.1787 22.8462C32.0462 22.8462 32.7442 23.5608 32.7442 24.4489C32.7442 25.3371 32.0462 26.0516 31.1787 26.0516Z" fill="#A732EE"/>
</svg>
