<svg width="29" height="28" viewBox="0 0 29 28" fill="none" xmlns="http://www.w3.org/2000/svg">
<path d="M14.7197 28C22.4517 28 28.7197 21.732 28.7197 14C28.7197 6.26801 22.4517 0 14.7197 0C6.98774 0 0.719727 6.26801 0.719727 14C0.719727 21.732 6.98774 28 14.7197 28Z" fill="#587BE1"/>
<path d="M14.7197 7C15.9522 7 17.1287 7.235 18.2197 7.6445V0.441C17.1012 0.153 15.9282 0 14.7197 0C13.5112 0 12.3382 0.153 11.2197 0.441V7.6445C12.3107 7.235 13.4872 7 14.7197 7Z" fill="#139AD6"/>
<path d="M14.7197 21C13.4872 21 12.3107 20.765 11.2197 20.3555V27.559C12.3382 27.847 13.5112 28 14.7197 28C15.9282 28 17.1012 27.847 18.2197 27.559V20.3555C17.1287 20.765 15.9522 21 14.7197 21Z" fill="#139AD6"/>
<path d="M21.7197 14C21.7197 15.2325 21.4847 16.409 21.0752 17.5H28.2787C28.5667 16.3815 28.7197 15.2085 28.7197 14C28.7197 12.7915 28.5667 11.6185 28.2787 10.5H21.0752C21.4847 11.591 21.7197 12.7675 21.7197 14Z" fill="#139AD6"/>
<path d="M7.71973 14C7.71973 12.7675 7.95473 11.591 8.36423 10.5H1.16073C0.872727 11.6185 0.719727 12.7915 0.719727 14C0.719727 15.2085 0.872727 16.3815 1.16073 17.5H8.36423C7.95473 16.409 7.71973 15.2325 7.71973 14Z" fill="#139AD6"/>
<path d="M14.7197 24.5C8.92973 24.5 4.21973 19.79 4.21973 14C4.21973 8.21 8.92973 3.5 14.7197 3.5C20.5097 3.5 25.2197 8.21 25.2197 14C25.2197 19.79 20.5097 24.5 14.7197 24.5Z" fill="#139AD6"/>
</svg>
