<svg width="70" height="82" viewBox="10 0 70 82" fill="none" xmlns="http://www.w3.org/2000/svg">
<path d="M48.84 0L54.1399 16.2653H71.2907L57.4154 26.3179L62.7153 42.5832L48.84 32.5307L34.9648 42.5832L40.2646 26.3179L26.3894 16.2653H43.5401L48.84 0Z" fill="#8162FF"/>
<path d="M16.5668 17.5804L31.906 25.2307L43.9425 13.0475L41.3861 29.9588L56.7253 37.6091L39.8062 40.4106L37.2499 57.3219L29.3496 42.142L12.4305 44.9436L24.467 32.7603L16.5668 17.5804Z" fill="#2ACFD9"/>
<path d="M41.8008 32.1911L57.14 39.8413L69.1765 27.6581L66.6201 44.5695L81.9593 52.2197L65.0402 55.0212L62.4839 71.9326L54.5836 56.7527L37.6646 59.5542L49.701 47.371L41.8008 32.1911Z" fill="#08041D"/>
</svg>
