<svg width="59" height="59" viewBox="0 0 59 59" fill="none" xmlns="http://www.w3.org/2000/svg">
<path d="M39.8711 20.8574C29.387 20.8574 20.8574 29.387 20.8574 39.8711C20.8574 50.3552 29.387 59 39.8711 59C50.3552 59 59 50.3552 59 39.8711C59 29.387 50.3552 20.8574 39.8711 20.8574ZM45.0566 32.957C45.0566 32.0016 45.8297 31.2285 46.7852 31.2285C47.7406 31.2285 48.5137 32.0016 48.5137 32.957V36.4141C48.5137 37.3695 47.7406 38.1426 46.7852 38.1426C45.8297 38.1426 45.0566 37.3695 45.0566 36.4141V32.957ZM31.2285 32.957C31.2285 32.0016 32.0016 31.2285 32.957 31.2285C33.9124 31.2285 34.6855 32.0016 34.6855 32.957V36.4141C34.6855 37.3695 33.9124 38.1426 32.957 38.1426C32.0016 38.1426 31.2285 37.3695 31.2285 36.4141V32.957ZM48.4259 44.9688C46.142 47.2544 43.1036 48.5137 39.8711 48.5137C36.6385 48.5137 33.6002 47.2544 31.3163 44.9688C30.6412 44.2937 30.6412 43.1981 31.3163 42.5246C31.9915 41.8494 33.0854 41.8494 33.7606 42.5246C37.0251 45.7892 42.7172 45.7892 45.9817 42.5246C46.6569 41.8494 47.7508 41.8494 48.426 42.5246C49.1011 43.1981 49.1011 44.2937 48.4259 44.9688Z" fill="#A732EE"/>
<path d="M25.1937 22.9988C28.7109 19.9355 33.136 17.8879 38.0596 17.4921C37.2253 7.7729 29.0607 0 19.1289 0C8.64477 0 0 8.64477 0 19.1289C0 29.0607 7.7729 37.2253 17.4922 38.0596C17.8741 33.308 19.8012 29.026 22.6841 25.5677C19.5026 24.1918 15.5409 24.7425 13.0184 27.265C12.3432 27.9402 11.2493 27.9402 10.5741 27.265C9.89898 26.5915 9.89898 25.496 10.5741 24.8208C14.3993 20.9928 20.5918 20.4155 25.1937 22.9988ZM24.3145 12.2148C24.3145 11.2594 25.0876 10.4863 26.043 10.4863C26.9984 10.4863 27.7715 11.2594 27.7715 12.2148V15.6719C27.7715 16.6273 26.9984 17.4004 26.043 17.4004C25.0876 17.4004 24.3145 16.6273 24.3145 15.6719V12.2148ZM10.4863 12.2148C10.4863 11.2594 11.2594 10.4863 12.2148 10.4863C13.1703 10.4863 13.9434 11.2594 13.9434 12.2148V15.6719C13.9434 16.6273 13.1703 17.4004 12.2148 17.4004C11.2594 17.4004 10.4863 16.6273 10.4863 15.6719V12.2148Z" fill="#08041D"/>
</svg>
