<svg width="31" height="26" viewBox="0 0 31 26" fill="none" xmlns="http://www.w3.org/2000/svg">
<path d="M30.4224 20.8204H0.422363V26H30.4224V20.8204Z" fill="#452FB7"/>
<path d="M22.7244 14.6613H16.4496V17.5373H14.6918V14.6613H8.11992L3.77637 19.0607H27.068L22.7244 14.6613Z" fill="#FFD146"/>
<path d="M26.2013 5.85528V4.80886H24.4435V5.85528H18.7453C18.5666 5.21238 18.1951 4.6323 17.68 4.20116V2.11172C17.68 0.947342 16.7337 0 15.5707 0C14.4076 0 13.4619 0.947342 13.4619 2.11172V4.20116C12.9468 4.6323 12.5753 5.21238 12.396 5.85528H6.77749V4.80886H5.01968V5.85528H3.76196V7.61505H5.01968V8.79533H6.77749V7.61505H12.396V7.61511C12.5753 8.25801 12.9468 8.83815 13.4619 9.26929V10.4589H11.3197V12.9015H19.5246V10.4589H17.68V9.26929C18.1951 8.83815 18.5666 8.25801 18.7453 7.61511V7.61505H24.4435V8.79533H26.2013V7.61505H27.4948V5.85528H26.2013Z" fill="#452FB7"/>
</svg>
