<svg width="20" height="20" viewBox="0 0 20 20" fill="none" xmlns="http://www.w3.org/2000/svg">
<path fill-rule="evenodd" clip-rule="evenodd" d="M15.9829 8.33862C15.9829 12.5188 12.5543 15.9077 8.3248 15.9077C4.09534 15.9077 0.666687 12.5188 0.666687 8.33862C0.666687 4.1582 4.09534 0.769287 8.3248 0.769287C12.5543 0.769287 15.9829 4.1582 15.9829 8.33862ZM2.58121 8.33862C2.58121 11.4739 5.15271 14.0154 8.3248 14.0154C11.4969 14.0154 14.0684 11.4739 14.0684 8.33862C14.0684 5.20337 11.4969 2.66162 8.3248 2.66162C5.15271 2.66162 2.58121 5.20337 2.58121 8.33862Z" fill="#27273D"/>
<path fill-rule="evenodd" clip-rule="evenodd" d="M17.682 19.3978C18.0462 19.7767 18.6521 19.7921 19.0354 19.4322C19.4187 19.0723 19.4343 18.4734 19.0701 18.0946L13.8052 12.6163C13.4411 12.2374 12.8352 12.2221 12.4519 12.5819C12.0685 12.9418 12.053 13.5407 12.4171 13.9196L17.682 19.3978Z" fill="#27273D"/>
</svg>
