<svg width="51" height="47" viewBox="0 0 51 47" fill="none" xmlns="http://www.w3.org/2000/svg">
<path d="M10.6942 20.567C10.2421 20.1675 9.56435 19.8608 8.67844 19.6556C7.99615 19.5012 7.67932 19.3244 7.53163 19.2019C7.34949 19.0541 7.26108 18.8564 7.26108 18.5953C7.25832 18.2842 7.35106 18.0865 7.55428 17.9191C7.76399 17.7425 8.0881 17.6738 8.49374 17.6738H8.51678C8.86925 17.6738 9.01083 17.7223 9.21325 17.8979C9.40504 18.0638 9.52811 18.3267 9.5799 18.7095L9.62283 18.9626L11.1656 18.95L11.154 18.6284C11.1148 17.8985 10.8327 17.3114 10.3132 16.8829C9.96545 16.6037 9.66004 16.4174 9.19297 16.3271L9.18864 15.3687L7.59445 15.3793L7.60213 16.3714C7.18389 16.473 6.81212 16.6555 6.49608 16.915C5.95555 17.3557 5.68382 17.9274 5.68815 18.6146C5.69189 19.2145 5.91223 19.7231 6.34406 20.1273C6.7493 20.5016 7.3554 20.7832 8.1458 20.9648C8.79698 21.1151 9.25716 21.292 9.51276 21.4899C9.73684 21.6641 9.84101 21.8875 9.84101 22.192C9.84101 22.5756 9.72699 22.8611 9.49169 23.0656C9.24673 23.2802 8.88658 23.3909 8.42285 23.3946C7.95204 23.3946 7.74587 23.2882 7.50662 23.0763C7.26856 22.8727 7.14962 22.5797 7.14313 22.1763L7.1317 21.8766L5.57414 21.882L5.51349 22.3718V22.3825C5.51349 22.9924 5.83957 23.5364 6.38777 24.0023C6.79971 24.3387 7.15632 24.5622 7.63521 24.6708L7.6482 25.8048L9.24555 25.8007L9.23806 24.6667C9.75318 24.5556 10.1956 24.3408 10.5515 24.0293C11.1257 23.5455 11.4149 22.9174 11.4102 22.164C11.4104 21.5284 11.17 20.9914 10.6942 20.567Z" fill="#08041D"/>
<path d="M23.3007 20.567C22.8486 20.1675 22.1706 19.8608 21.2847 19.6556C20.6024 19.5012 20.2856 19.3244 20.1381 19.2019C19.956 19.0541 19.8674 18.8564 19.8674 18.5955C19.8648 18.2842 19.9576 18.0865 20.1608 17.9191C20.3703 17.7425 20.6944 17.6738 21.1 17.6738H21.1231C21.4753 17.6738 21.6171 17.7223 21.8197 17.8977C22.0113 18.0636 22.1344 18.3267 22.1864 18.7091L22.2289 18.9626L23.7715 18.95L23.7605 18.6284C23.7211 17.8985 23.4387 17.3114 22.9195 16.8829C22.5717 16.6037 22.2663 16.4174 21.7993 16.3271L21.7949 15.3687L20.2009 15.3793L20.2086 16.3714C19.7902 16.473 19.4184 16.6555 19.1024 16.915C18.5618 17.3557 18.2901 17.9276 18.2946 18.6146C18.298 19.2145 18.5185 19.7231 18.9506 20.1273C19.3554 20.5016 19.9617 20.7832 20.7523 20.9648C21.4035 21.1151 21.8637 21.292 22.1192 21.4897C22.3431 21.6641 22.4473 21.8875 22.4473 22.192C22.4473 22.5756 22.3333 22.8611 22.0982 23.0656C21.8532 23.2802 21.4931 23.3909 21.0291 23.3946C20.5583 23.3946 20.3522 23.2882 20.1129 23.0763C19.8749 22.8727 19.7559 22.5797 19.7494 22.1767L19.7386 21.8766L18.1783 21.882L18.1158 22.3718V22.3823C18.1158 22.9924 18.4439 23.5364 18.9921 24.0023C19.4145 24.3468 19.7618 24.5638 20.2405 24.671L20.2539 25.8048L21.8516 25.8007L21.8446 24.6667C22.3595 24.5556 22.8019 24.3408 23.158 24.0293C23.7321 23.5455 24.0214 22.9174 24.0167 22.164C24.0167 21.5286 23.7763 20.9914 23.3007 20.567Z" fill="#08041D"/>
<path d="M34.7991 23.0654C34.5542 23.28 34.194 23.3907 33.7301 23.3944C33.2593 23.3944 33.0531 23.288 32.8139 23.0761C32.5758 22.8725 32.4569 22.5795 32.4504 22.1765L32.4395 21.8764L30.83 21.8818L30.7181 22.3718V22.3823C30.9151 22.9924 31.0954 23.5364 31.6436 24.0023C32.066 24.3468 32.438 24.5638 32.9167 24.671L32.9424 25.8048L34.5463 25.8007L34.5422 24.6667C35.0571 24.5556 35.5011 24.3408 35.8571 24.0293C36.4313 23.5455 36.7214 22.9174 36.7166 22.164C36.7166 21.5288 36.4764 20.9916 36.0009 20.567C35.5488 20.1675 34.871 19.8608 33.9851 19.6556C33.3028 19.5012 32.9862 19.3244 32.8385 19.2019C32.6563 19.0541 32.5677 18.8564 32.5677 18.5955C32.5652 18.2842 32.6579 18.0865 32.8611 17.9191C33.0706 17.7425 33.3948 17.6738 33.8004 17.6738H33.8234C34.1757 17.6738 34.3175 17.7223 34.5201 17.8977C34.7117 18.0636 34.8348 18.3267 34.8867 18.7091L34.9293 18.9626L36.4719 18.95L36.4609 18.6284C36.4215 17.8985 36.1391 17.3114 35.6199 16.8829C35.2721 16.6037 34.9667 16.4174 34.4996 16.3271L34.4953 15.3687L32.9013 15.3793L32.909 16.3714C32.4905 16.473 32.1188 16.6555 31.8027 16.915C31.2622 17.3557 30.9905 17.9276 30.995 18.6146C30.9983 19.2145 31.2189 19.7231 31.6509 20.1273C32.0558 20.5016 32.662 20.7832 33.4526 20.9648C34.1038 21.1151 34.564 21.292 34.8196 21.4897C35.0435 21.6641 35.1477 21.8875 35.1477 22.192C35.1482 22.5752 35.0342 22.8609 34.7991 23.0654Z" fill="#08041D"/>
<path d="M51 4.36983C51 1.9604 49.0289 0 46.5858 0C44.1428 0 42.1309 1.9604 42.1309 4.36983C42.1309 6.05601 43.1236 7.52117 44.5019 8.24947V34.9587H39.7761V31.8512H41.9421V9.32231H39.7761V5.2438H26.0263C25.541 3.00081 23.5169 1.31328 21.1002 1.31328C18.6833 1.31328 16.6595 3.00081 16.1741 5.2438H2.36293V9.32231H0V31.8512H2.36293V47H39.7761V38.843H48.4402V8.31512C50.0154 7.61148 51 6.10767 51 4.36983ZM16.5405 27.9669V13.2066H25.4015V27.9669H16.5405ZM38.0039 27.9669H29.3398V13.2066H38.0039V27.9669ZM3.93822 13.2066H12.6023V27.9669H3.93822V13.2066Z" fill="#452FB7"/>
</svg>
