<svg width="29" height="29" viewBox="0 0 29 29" fill="none" xmlns="http://www.w3.org/2000/svg">
<path d="M27.6461 12.4823C25.7781 9.17691 21.9557 4.41897 14.8122 0.0259019C14.7562 -0.00863397 14.6832 -0.00863397 14.6277 0.0259019C7.48532 4.41897 3.66185 9.03226 1.79337 12.3377C-0.404106 16.2252 0.848881 20.9221 4.84534 22.9082C5.88733 23.4257 6.64482 23.4938 7.54332 23.4938C7.54332 23.4938 7.76331 23.4863 8.12531 23.4322C9.73129 23.192 11.2078 22.4107 12.3503 21.2555L12.5128 21.0913C12.7503 20.851 13.1578 21.0397 13.1263 21.3766C12.9568 23.201 12.6273 25.9378 11.2328 27.6786C10.8053 28.2122 11.1553 29 11.8388 29H17.6057C18.2872 29 18.6347 28.2142 18.2077 27.6821C16.7957 25.9223 16.4767 23.1429 16.3042 21.318C16.2772 21.0332 16.6282 20.8796 16.8207 21.0913C17.8167 22.1894 19.1017 22.9963 20.5347 23.3737C21.3322 23.5839 21.8952 23.6389 21.8952 23.6389C22.7937 23.6389 23.5517 23.5709 24.5931 23.0533C28.5906 21.0668 29.8436 16.3699 27.6461 12.4823Z" fill="#FF1850"/>
</svg>
