<svg version="1.1" xmlns="http://www.w3.org/2000/svg" xmlns:xlink="http://www.w3.org/1999/xlink">
<defs>
<symbol id="icon-icon-right" viewBox="0 0 19 32">
<title>icon-right</title>
<path d="M3.929 0.638l14.652 13.923c0.826 0.783 0.826 2.091 0 2.877l-14.652 13.92c-0.899 0.854-2.317 0.854-3.216 0-0.951-0.904-0.951-2.409 0-3.315l12.272-11.66c0.223-0.211 0.223-0.56 0-0.77l-12.272-11.661c-0.951-0.904-0.951-2.409 0-3.315 0.45-0.425 1.029-0.638 1.607-0.638 0.58 0 1.159 0.214 1.609 0.638z"></path>
</symbol>
<symbol id="icon-icon-left" viewBox="0 0 19 32">
<title>icon-left</title>
<path d="M15.271 0.638l-14.652 13.923c-0.825 0.783-0.825 2.091 0 2.877l14.652 13.92c0.899 0.854 2.317 0.854 3.216 0 0.951-0.904 0.951-2.409 0-3.315l-12.272-11.66c-0.223-0.211-0.223-0.56 0-0.77l12.272-11.661c0.951-0.904 0.951-2.409 0-3.315-0.45-0.425-1.029-0.638-1.607-0.638-0.58 0-1.159 0.214-1.609 0.638z"></path>
</symbol>
</defs>
</svg>
