<svg aria-hidden="true" style="position: absolute; width: 0; height: 0; overflow: hidden;" version="1.1" xmlns="http://www.w3.org/2000/svg" xmlns:xlink="http://www.w3.org/1999/xlink">
<defs>
<symbol id="icon-casino-company" viewBox="0 0 29 32">
<title>casino-company</title>
<path fill="#5d698d" style="fill: var(--color1, #5d698d)" d="M11.367 15.897l-0.654 3.529 3.487-1.692c0.338-0.165 0.736-0.165 1.074 0l3.471 1.689-0.637-3.526c-0.072-0.382 0.064-0.772 0.358-1.035l2.755-2.487-3.849-0.514c-0.382-0.051-0.715-0.279-0.893-0.611l-1.731-3.248v-0.003l-1.751 3.252c-0.178 0.332-0.511 0.56-0.894 0.611l-3.84 0.514 2.749 2.484c0.294 0.264 0.428 0.656 0.354 1.038z"></path>
<path fill="#5d698d" style="fill: var(--color1, #5d698d)" d="M14.737 25.14c6.186 0 11.2-4.86 11.2-10.856s-5.014-10.856-11.2-10.856c-6.186 0-11.2 4.86-11.2 10.856 0.007 5.993 5.017 10.849 11.2 10.856zM7.128 12.036c0.137-0.424 0.516-0.732 0.97-0.79l3.841-0.517 1.739-3.251c0.206-0.382 0.614-0.621 1.058-0.621s0.852 0.239 1.058 0.621l1.731 3.248 3.849 0.52c0.454 0.058 0.832 0.367 0.97 0.79 0.139 0.419 0.013 0.878-0.322 1.175l-2.755 2.488 0.656 3.525c0.079 0.425-0.097 0.857-0.456 1.114-0.362 0.264-0.848 0.305-1.251 0.106l-3.47-1.689-3.488 1.689c-0.404 0.199-0.89 0.157-1.252-0.106-0.358-0.257-0.535-0.689-0.456-1.114l0.654-3.53-2.756-2.483c-0.334-0.298-0.46-0.756-0.321-1.175z"></path>
<path fill="#5d698d" style="fill: var(--color1, #5d698d)" d="M14.737 28.568c8.139 0 14.737-6.395 14.737-14.284s-6.598-14.284-14.737-14.284-14.737 6.395-14.737 14.284c0.009 7.885 6.602 14.275 14.737 14.284zM14.737 2.285c6.837 0 12.379 5.372 12.379 11.999s-5.542 11.999-12.379 11.999-12.379-5.372-12.379-11.999c0.008-6.624 5.545-11.991 12.379-11.999z"></path>
<path fill="#5d698d" style="fill: var(--color1, #5d698d)" d="M14.737 29.711c-6.139-0.005-11.729-3.428-14.371-8.799 1.54 6.49 7.501 11.088 14.371 11.088s12.83-4.599 14.371-11.088c-2.642 5.371-8.232 8.794-14.371 8.799z"></path>
</symbol>
<symbol id="icon-contact" viewBox="0 0 27 32">
<title>contact</title>
<path fill="#5d698d" style="fill: var(--color1, #5d698d)" d="M22.546 23.551c-4.915 6.512-15.493 12.047-22.546 5.535l7.48-9.659 3.847 3.039 7.48-9.659-3.954-3.147 7.48-9.659c7.907 5.318 5.129 17.148 0.214 23.551z"></path>
</symbol>
<symbol id="icon-casino-bonuses" viewBox="0 0 29 32">
<title>casino-bonuses</title>
<path fill="#8162ff" style="fill: var(--color2, #8162ff)" opacity="0.5" d="M27.273 17.521h-11.625v14.479h11.625v-14.479z"></path>
<path fill="#8162ff" style="fill: var(--color2, #8162ff)" opacity="0.5" d="M13.528 17.521h-11.625v14.479h11.625v-14.479z"></path>
<path fill="#8162ff" style="fill: var(--color2, #8162ff)" opacity="0.5" d="M23.651 5.902c0.314-0.567 0.493-1.217 0.493-1.908 0-2.203-1.82-3.994-4.057-3.994-1.655 0-3.348 0.842-4.645 2.309-0.321 0.363-0.607 0.753-0.854 1.16-0.247-0.406-0.533-0.797-0.854-1.16-1.297-1.468-2.99-2.309-4.645-2.309-2.237 0-4.057 1.792-4.057 3.994 0 0.69 0.179 1.34 0.493 1.908h-5.525v9.532h13.528v-9.532h2.12v9.532h13.528v-9.532h-5.525zM9.089 5.902c-1.068 0-1.938-0.856-1.938-1.908s0.869-1.907 1.938-1.907c1.923 0 3.752 1.937 4.284 3.815l-4.284 0zM20.087 5.902h-4.284c0.532-1.878 2.361-3.815 4.284-3.815 1.068 0 1.938 0.856 1.938 1.908s-0.869 1.907-1.938 1.907z"></path>
</symbol>
</defs>
</svg>
