<svg aria-hidden="true" style="position: absolute; width: 0; height: 0; overflow: hidden;" version="1.1" xmlns="http://www.w3.org/2000/svg" xmlns:xlink="http://www.w3.org/1999/xlink">
<defs>
<symbol id="icon-instagram" viewBox="0 0 31 32">
<title>instagram</title>
<path fill="#484876" style="fill: var(--color1, #484876)" opacity="0.7" d="M21.742 0h-12.517c-5.087 0-9.225 4.276-9.225 9.533v12.934c0 5.257 4.139 9.533 9.225 9.533h12.517c5.087 0 9.226-4.276 9.226-9.533v-12.934c-0-5.256-4.139-9.533-9.226-9.533zM27.852 22.467c0 3.487-2.736 6.314-6.11 6.314h-12.517c-3.374 0-6.11-2.827-6.11-6.314v-12.934c0-3.487 2.736-6.314 6.11-6.314h12.517c3.375 0 6.11 2.827 6.11 6.314v12.934z"></path>
<path fill="#484876" style="fill: var(--color1, #484876)" opacity="0.7" d="M15.484 7.724c-4.416 0-8.009 3.713-8.009 8.276s3.593 8.276 8.009 8.276c4.416 0 8.009-3.713 8.009-8.276s-3.593-8.276-8.009-8.276zM15.484 21.057c-2.703 0-4.894-2.264-4.894-5.057s2.191-5.057 4.894-5.057c2.703 0 4.894 2.264 4.894 5.057s-2.191 5.057-4.894 5.057z"></path>
<path fill="#484876" style="fill: var(--color1, #484876)" opacity="0.7" d="M23.509 9.769c1.060 0 1.919-0.888 1.919-1.983s-0.859-1.983-1.919-1.983c-1.060 0-1.919 0.888-1.919 1.983s0.859 1.983 1.919 1.983z"></path>
</symbol>
<symbol id="icon-linkedin" viewBox="0 0 32 32">
<title>linkedin</title>
<path fill="#484876" style="fill: var(--color1, #484876)" opacity="0.7" d="M29.105 0h-26.211c-1.599 0-2.895 1.296-2.895 2.895v26.211c0 1.599 1.296 2.895 2.895 2.895h26.211c1.599 0 2.895-1.296 2.895-2.895v-26.211c0-1.599-1.296-2.895-2.895-2.895zM9.902 27.631c0 0.465-0.377 0.842-0.842 0.842h-3.586c-0.465 0-0.842-0.377-0.842-0.842v-15.032c0-0.465 0.377-0.842 0.842-0.842h3.586c0.465 0 0.842 0.377 0.842 0.842v15.032zM7.267 10.34c-1.881 0-3.407-1.525-3.407-3.407s1.525-3.407 3.407-3.407c1.881 0 3.407 1.525 3.407 3.407s-1.525 3.407-3.407 3.407zM28.642 27.699c0 0.428-0.347 0.774-0.775 0.774h-3.848c-0.428 0-0.775-0.347-0.775-0.774v-7.051c0-1.052 0.309-4.609-2.749-4.609-2.371 0-2.852 2.435-2.949 3.528v8.132c0 0.428-0.347 0.774-0.774 0.774h-3.722c-0.428 0-0.774-0.347-0.774-0.774v-15.167c0-0.428 0.347-0.774 0.774-0.774h3.722c0.428 0 0.774 0.347 0.774 0.774v1.311c0.879-1.32 2.186-2.338 4.969-2.338 6.161 0 6.126 5.756 6.126 8.919v7.275z"></path>
</symbol>
<symbol id="icon-facebook" viewBox="0 0 32 32">
<title>facebook</title>
<path fill="#484876" style="fill: var(--color1, #484876)" opacity="0.7" d="M27.688 0h-23.376c-2.381 0-4.312 1.931-4.312 4.312v23.376c0 2.382 1.931 4.312 4.312 4.312h11.529l0.020-11.435h-2.971c-0.386 0-0.699-0.312-0.701-0.698l-0.014-3.686c-0.002-0.388 0.313-0.704 0.701-0.704h2.965v-3.562c0-4.133 2.524-6.384 6.211-6.384h3.026c0.387 0 0.701 0.314 0.701 0.701v3.108c0 0.387-0.314 0.701-0.701 0.701l-1.857 0.001c-2.005 0-2.393 0.953-2.393 2.351v3.083h4.406c0.42 0 0.745 0.367 0.696 0.783l-0.437 3.686c-0.042 0.353-0.341 0.619-0.696 0.619h-3.95l-0.020 11.435h6.86c2.381 0 4.312-1.931 4.312-4.312v-23.376c-0-2.381-1.931-4.312-4.312-4.312z"></path>
</symbol>
</defs>
</svg>
