<svg width="53" height="64" viewBox="0 0 53 64" fill="none" xmlns="http://www.w3.org/2000/svg">
<path d="M33.1178 43.9342H19.8244C8.90076 43.9342 0 52.9433 0 64H53C52.9422 53.0018 44.0414 43.9342 33.1178 43.9342Z" fill="#8162FF"/>
<path d="M30.8111 49.4177H21.3447C13.5657 49.4177 7.22726 55.9649 7.22726 64H44.9697C44.9285 56.0074 38.5901 49.4177 30.8111 49.4177Z" fill="#08041D"/>
<path d="M28.8408 34.7495C29.8811 34.7495 30.8637 35.1005 31.615 35.744H36.4122C38.7819 33.2285 40.2268 29.894 40.2268 26.1499C40.2268 18.4278 34.0425 12.2267 26.4711 12.2267C18.8997 12.2267 12.7154 18.4278 12.7154 26.1499C12.7154 31.3565 15.5474 35.9196 19.7666 38.3181C20.229 36.2706 22.0207 34.7495 24.1014 34.7495H28.8408Z" fill="#8162FF"/>
<path d="M6.1265 27.3199C6.2999 28.7824 6.99346 30.128 7.97601 31.1225C8.72738 31.883 9.70993 32.468 10.8081 32.819C10.7503 32.585 10.7503 32.351 10.7503 32.1755V20.8263C10.7503 20.5923 10.7503 20.3583 10.8081 20.1243C9.70993 20.4168 8.78517 21.0018 7.97601 21.8208C7.91822 21.8793 7.80262 21.9963 7.74482 22.0548V21.5868C7.74482 20.4753 7.86042 19.3638 8.03381 18.3108C8.2072 17.1993 8.49619 16.1463 8.90077 15.1517C9.24755 14.0987 9.70993 13.1042 10.2879 12.1682C10.8081 11.2322 11.4438 10.2962 12.1374 9.47715C12.1952 9.41865 12.253 9.30165 12.253 9.24314C12.7732 9.30165 13.2934 9.12614 13.6401 8.77514C17.1658 5.20658 21.7895 3.45155 26.3555 3.45155C30.9215 3.45155 35.6031 5.20658 39.0709 8.77514C39.4755 9.18464 39.9956 9.30165 40.458 9.24314C40.5158 9.30165 40.5158 9.41865 40.5736 9.47715C41.2672 10.2962 41.9029 11.2322 42.4231 12.1682C42.9433 13.1042 43.4057 14.0987 43.8103 15.1517C44.157 16.2048 44.446 17.2578 44.6772 18.3693C44.8506 19.4223 44.9662 20.5338 44.9662 21.6453V22.1133C44.9084 21.9963 44.7928 21.9378 44.735 21.8793C43.9836 21.1188 43.0011 20.5338 41.9029 20.1828C41.9607 20.4168 41.9607 20.6508 41.9607 20.8848V32.1755C41.9607 32.4095 41.9607 32.6435 41.9029 32.819C42.1919 32.7605 42.4809 32.6435 42.7699 32.5265V36.2121C42.7699 36.6216 42.7121 37.0311 42.6543 37.3236C42.5965 37.6161 42.4809 37.7916 42.3653 37.9671C42.2497 38.0841 42.0763 38.2011 41.9029 38.2596C41.6718 38.3181 41.4406 38.3766 41.1516 38.3766H41.0938H30.4591C30.1123 37.7916 29.5344 37.3821 28.783 37.3821H24.0436C23.0033 37.3821 22.1941 38.2596 22.1941 39.2541C22.2519 40.3071 23.0611 41.1261 24.1014 41.1261H28.8408C29.5344 41.1261 30.1701 40.7166 30.5169 40.1316H41.2672H41.6718C42.0763 40.1316 42.4231 40.0146 42.7699 39.8976C43.2323 39.7221 43.5791 39.4881 43.9258 39.1371C44.2148 38.7861 44.446 38.3766 44.6194 37.8501C44.735 37.3821 44.8506 36.7971 44.8506 36.1536V31.4735V31.298C44.9084 31.2395 44.9662 31.181 45.024 31.1225C46.0065 30.128 46.7001 28.7824 46.8735 27.3199C46.9313 27.2614 46.9891 27.2614 46.9891 27.2029C47.1625 27.0274 47.2781 26.7349 47.2781 26.5009V21.6453C47.2781 20.4168 47.1625 19.1883 46.9891 18.0183C46.6423 16.7898 46.3533 15.6197 45.9487 14.4497C45.5442 13.2797 45.024 12.1682 44.3882 11.1152C43.8103 10.0622 43.1167 9.06764 42.3075 8.13163C42.2497 8.01462 42.1341 7.95612 42.0185 7.89762C42.1341 7.37112 41.9607 6.72761 41.5562 6.3181C37.3948 2.10603 31.9618 0 26.4711 0C20.9804 0 15.5474 2.10603 11.3282 6.3181C10.9237 6.72761 10.7503 7.37112 10.8659 7.89762C10.7503 7.95612 10.6925 8.01462 10.5769 8.13163C9.76772 9.06764 9.07416 10.0622 8.49619 11.1152C7.91822 12.1682 7.39804 13.2797 6.93566 14.4497C6.53108 15.6197 6.1843 16.7898 6.01091 18.0183C5.77972 19.1883 5.72192 20.4168 5.72192 21.6453V26.5009C5.72192 26.7934 5.83752 27.0274 6.01091 27.2029C6.06871 27.2614 6.1265 27.2614 6.1265 27.3199Z" fill="#08041D"/>
</svg>
