<svg width="20" height="13" viewBox="0 0 20 13" fill="none" xmlns="http://www.w3.org/2000/svg">
<path d="M19.8758 12.9998H0V-0.000130653H19.8758V12.9998Z" fill="#F0F0F0"/>
<path d="M11.1801 13H8.69565V7.71888H0V5.28143H8.69565V0.000305176H11.1801V5.28143H19.8758V7.71888H11.1801V13Z" fill="#D80027"/>
<path d="M15.2866 4.23926L19.8757 1.73797V4.23926H15.2866Z" fill="#0052B4"/>
<path d="M12.0981 4.23926L19.8756 0.000224113V1.19892L14.2975 4.23926H12.0981Z" fill="#0052B4"/>
<path d="M17.804 0.000162125L12.0981 3.11035V0.000162125H17.804Z" fill="#0052B4"/>
<path d="M12.0981 4.23926L19.8756 0.000224113V1.19892L14.2975 4.23926H12.0981Z" fill="#F0F0F0"/>
<path d="M12.0981 4.23926L19.8756 0.000224113V1.19892L14.2975 4.23926H12.0981Z" fill="#D80027"/>
<path d="M3.50703 4.2395L0 2.32801V4.2395H3.50703Z" fill="#0052B4"/>
<path d="M7.77767 3.7002V0.000180483H0.989746L7.77767 3.7002Z" fill="#0052B4"/>
<path d="M5.57814 4.23926L0 1.19892V0.000224113L7.77748 4.23926H5.57814Z" fill="#D80027"/>
<path d="M4.58909 8.76092L0 11.2622V8.76092H4.58909Z" fill="#0052B4"/>
<path d="M7.77748 8.76097L0 13V11.8013L5.57814 8.76097H7.77748Z" fill="#0052B4"/>
<path d="M2.07178 13L7.7776 9.88981V13H2.07178Z" fill="#0052B4"/>
<path d="M7.77748 8.76097L0 13V11.8013L5.57814 8.76097H7.77748Z" fill="#F0F0F0"/>
<path d="M7.77748 8.76097L0 13V11.8013L5.57814 8.76097H7.77748Z" fill="#D80027"/>
<path d="M16.3687 8.76087L19.8757 10.6724V8.76087H16.3687Z" fill="#0052B4"/>
<path d="M12.0981 9.29999V13H18.8861L12.0981 9.29999Z" fill="#0052B4"/>
<path d="M14.2975 8.76097L19.8756 11.8013V13L12.0981 8.76097H14.2975Z" fill="#D80027"/>
</svg>
