<svg width="28" height="28" viewBox="0 0 28 28" fill="none" xmlns="http://www.w3.org/2000/svg">
<path d="M12.8525 2.36622V13.0819C12.8525 13.2086 12.9553 13.3114 13.082 13.3114H27.767C27.8938 13.3114 27.9965 13.2086 27.9965 13.0819V0.2295C27.9965 0.162851 27.9676 0.0995067 27.9172 0.0559001C27.8669 0.0122936 27.8001 -0.00716873 27.7339 0.00237881L13.049 2.1391C12.9362 2.15553 12.8525 2.25229 12.8525 2.36622Z" fill="#904DBF"/>
<path d="M11.2461 25.7001C11.3013 25.7001 11.355 25.6803 11.397 25.6435C11.447 25.5999 11.4756 25.5369 11.4756 25.4706V14.918C11.4756 14.7912 11.3729 14.6885 11.2461 14.6885H0.238053C0.177188 14.6885 0.118801 14.7126 0.0757449 14.7557C0.0326892 14.7987 0.00854492 14.8571 0.00854492 14.918L0.00909574 23.962C0.00909574 24.0767 0.0938302 24.1738 0.207391 24.1894L11.2149 25.6981C11.2253 25.6994 11.2357 25.7001 11.2461 25.7001Z" fill="#904DBF"/>
<path d="M0.239515 13.3115H11.246C11.3728 13.3115 11.4755 13.2088 11.4755 13.082V2.63311C11.4755 2.56683 11.4469 2.50385 11.397 2.46025C11.3472 2.41664 11.2812 2.39663 11.2151 2.40571L0.198662 3.90174C0.0847345 3.91726 -9.17288e-05 4.01448 7.44439e-08 4.12941L0.0100066 13.0822C0.0101902 13.2089 0.112918 13.3115 0.239515 13.3115Z" fill="#904DBF"/>
<path d="M27.767 28C27.822 28 27.8755 27.9802 27.9175 27.9437C27.9677 27.9001 27.9965 27.8369 27.9965 27.7704L28.0002 14.918C28.0002 14.8571 27.976 14.7987 27.933 14.7557C27.8899 14.7126 27.8315 14.6885 27.7707 14.6885H13.082C12.9553 14.6885 12.8525 14.7912 12.8525 14.918V25.7045C12.8525 25.8189 12.9368 25.9158 13.05 25.9318L27.735 27.9978C27.7457 27.9992 27.7563 28 27.767 28Z" fill="#904DBF"/>
</svg>
